<?xml version="1.0" encoding="UTF-8"?>
<svg xmlns="http://www.w3.org/2000/svg" xmlns:xlink="http://www.w3.org/1999/xlink" width="px" height="px" viewBox="0 0 12 17" version="1.1">
<g id="surface1">
<path style=" stroke:none;fill-rule:nonzero;fill:rgb(30.980392%,33.72549%,23.137255%);fill-opacity:1;" d="M 2.707031 11.320312 C 2.585938 11.320312 2.46875 11.308594 2.351562 11.285156 C 1.402344 11.101562 0.855469 10.230469 0.957031 9.070312 C 1.058594 7.910156 2 2.964844 2.035156 2.753906 C 2.050781 2.683594 2.109375 2.628906 2.183594 2.621094 C 2.289062 2.621094 4.824219 2.367188 5.972656 3.621094 C 6.007812 3.65625 6.019531 3.707031 6.011719 3.757812 C 5.976562 3.949219 5.140625 8.445312 4.800781 9.660156 C 4.570312 10.613281 3.710938 11.292969 2.707031 11.320312 Z M 2.34375 2.945312 C 2.195312 3.738281 1.386719 8.054688 1.300781 9.105469 C 1.210938 10.105469 1.640625 10.820312 2.421875 10.972656 C 3.378906 11.113281 4.28125 10.503906 4.480469 9.585938 C 4.792969 8.46875 5.554688 4.414062 5.671875 3.789062 C 4.746094 2.859375 2.847656 2.90625 2.34375 2.945312 Z M 2.34375 2.945312 "/>
<path style=" stroke:none;fill-rule:nonzero;fill:rgb(30.980392%,33.72549%,23.137255%);fill-opacity:1;" d="M 1.230469 16.566406 L 1.195312 16.566406 C 1.105469 16.546875 1.046875 16.457031 1.066406 16.371094 L 2.21875 11.089844 C 2.238281 11.003906 2.328125 10.945312 2.417969 10.964844 C 2.511719 10.984375 2.566406 11.070312 2.546875 11.160156 L 1.394531 16.4375 C 1.378906 16.511719 1.308594 16.566406 1.230469 16.566406 Z M 1.230469 16.566406 "/>
<path style=" stroke:none;fill-rule:nonzero;fill:rgb(30.980392%,33.72549%,23.137255%);fill-opacity:1;" d="M 2.34375 16.914062 L 2.304688 16.914062 L 0.128906 16.378906 C 0.0351562 16.355469 -0.0195312 16.265625 0.00390625 16.179688 C 0.0273438 16.089844 0.121094 16.039062 0.207031 16.0625 L 2.382812 16.597656 C 2.472656 16.609375 2.535156 16.691406 2.523438 16.777344 C 2.511719 16.863281 2.433594 16.925781 2.34375 16.917969 Z M 2.34375 16.914062 "/>
<path style=" stroke:none;fill-rule:nonzero;fill:rgb(30.980392%,33.72549%,23.137255%);fill-opacity:1;" d="M 2.707031 11.320312 C 2.585938 11.320312 2.46875 11.308594 2.351562 11.285156 C 1.402344 11.101562 0.855469 10.230469 0.957031 9.070312 C 0.992188 8.710938 1.101562 7.960938 1.296875 6.835938 C 1.3125 6.757812 1.382812 6.699219 1.464844 6.699219 C 4.496094 6.699219 5.421875 4.964844 5.460938 4.890625 C 5.5 4.816406 5.585938 4.78125 5.667969 4.808594 C 5.746094 4.832031 5.792969 4.914062 5.777344 4.992188 C 5.652344 5.640625 5.011719 8.910156 4.800781 9.660156 C 4.570312 10.613281 3.710938 11.292969 2.707031 11.320312 Z M 1.605469 7.027344 C 1.429688 8.066406 1.324219 8.761719 1.292969 9.097656 C 1.207031 10.097656 1.636719 10.8125 2.417969 10.964844 C 3.371094 11.105469 4.273438 10.496094 4.476562 9.578125 C 4.617188 9.070312 4.976562 7.316406 5.3125 5.632812 C 4.753906 6.207031 3.628906 6.988281 1.605469 7.023438 Z M 1.605469 7.027344 "/>
<path style=" stroke:none;fill-rule:nonzero;fill:rgb(30.980392%,33.72549%,23.137255%);fill-opacity:1;" d="M 9.238281 11.320312 C 8.238281 11.289062 7.382812 10.609375 7.152344 9.660156 C 6.8125 8.445312 5.976562 3.949219 5.941406 3.757812 C 5.933594 3.707031 5.945312 3.65625 5.980469 3.621094 C 7.128906 2.371094 9.664062 2.605469 9.769531 2.621094 C 9.84375 2.628906 9.90625 2.683594 9.917969 2.753906 C 9.957031 2.964844 10.890625 7.902344 10.996094 9.070312 C 11.101562 10.238281 10.550781 11.101562 9.601562 11.285156 C 9.480469 11.308594 9.359375 11.320312 9.238281 11.320312 Z M 6.273438 3.777344 C 6.390625 4.402344 7.152344 8.460938 7.460938 9.574219 C 7.664062 10.496094 8.5625 11.101562 9.519531 10.960938 C 10.300781 10.808594 10.734375 10.097656 10.644531 9.097656 C 10.550781 8.046875 9.742188 3.726562 9.601562 2.9375 C 9.09375 2.90625 7.199219 2.863281 6.273438 3.777344 Z M 6.273438 3.777344 "/>
<path style=" stroke:none;fill-rule:nonzero;fill:rgb(30.980392%,33.72549%,23.137255%);fill-opacity:1;" d="M 10.707031 16.566406 C 10.628906 16.566406 10.5625 16.511719 10.542969 16.4375 L 9.40625 11.15625 C 9.394531 11.113281 9.402344 11.070312 9.429688 11.035156 C 9.453125 10.996094 9.492188 10.972656 9.535156 10.964844 C 9.578125 10.953125 9.625 10.960938 9.660156 10.984375 C 9.699219 11.007812 9.722656 11.046875 9.734375 11.089844 L 10.886719 16.367188 C 10.894531 16.410156 10.886719 16.457031 10.863281 16.492188 C 10.839844 16.527344 10.800781 16.554688 10.757812 16.5625 Z M 10.707031 16.566406 "/>
<path style=" stroke:none;fill-rule:nonzero;fill:rgb(30.980392%,33.72549%,23.137255%);fill-opacity:1;" d="M 9.601562 16.914062 C 9.523438 16.914062 9.453125 16.863281 9.4375 16.789062 C 9.425781 16.746094 9.429688 16.703125 9.453125 16.664062 C 9.476562 16.628906 9.515625 16.601562 9.558594 16.589844 L 11.734375 16.054688 C 11.777344 16.042969 11.824219 16.050781 11.859375 16.074219 C 11.898438 16.09375 11.925781 16.128906 11.9375 16.171875 C 11.960938 16.261719 11.90625 16.351562 11.816406 16.375 L 9.640625 16.902344 Z M 9.601562 16.914062 "/>
<path style=" stroke:none;fill-rule:nonzero;fill:rgb(30.980392%,33.72549%,23.137255%);fill-opacity:1;" d="M 9.238281 11.320312 C 8.238281 11.289062 7.382812 10.609375 7.152344 9.660156 C 6.941406 8.902344 6.300781 5.640625 6.175781 4.992188 C 6.164062 4.914062 6.210938 4.839844 6.289062 4.8125 C 6.367188 4.789062 6.449219 4.820312 6.492188 4.890625 C 6.53125 4.964844 7.457031 6.699219 10.488281 6.699219 C 10.570312 6.699219 10.640625 6.757812 10.65625 6.835938 C 10.847656 7.964844 10.964844 8.714844 10.996094 9.070312 C 11.101562 10.230469 10.550781 11.101562 9.601562 11.285156 C 9.480469 11.308594 9.359375 11.320312 9.238281 11.320312 Z M 6.628906 5.632812 C 6.960938 7.316406 7.324219 9.074219 7.464844 9.578125 C 7.664062 10.496094 8.566406 11.105469 9.523438 10.964844 C 10.304688 10.8125 10.738281 10.097656 10.644531 9.097656 C 10.617188 8.765625 10.511719 8.070312 10.335938 7.027344 C 8.3125 6.988281 7.1875 6.207031 6.632812 5.628906 Z M 6.628906 5.632812 "/>
<path style=" stroke:none;fill-rule:nonzero;fill:rgb(30.980392%,33.72549%,23.137255%);fill-opacity:1;" d="M 5.613281 2.792969 C 5.578125 2.792969 5.539062 2.78125 5.507812 2.761719 L 4.207031 1.773438 C 4.132812 1.71875 4.121094 1.613281 4.175781 1.542969 C 4.203125 1.507812 4.242188 1.488281 4.289062 1.480469 C 4.332031 1.476562 4.375 1.488281 4.410156 1.515625 L 5.714844 2.5 C 5.75 2.527344 5.773438 2.566406 5.78125 2.609375 C 5.785156 2.652344 5.773438 2.695312 5.746094 2.730469 C 5.714844 2.769531 5.667969 2.792969 5.613281 2.792969 Z M 5.613281 2.792969 "/>
<path style=" stroke:none;fill-rule:nonzero;fill:rgb(30.980392%,33.72549%,23.137255%);fill-opacity:1;" d="M 6.097656 2.539062 C 6.015625 2.535156 5.945312 2.476562 5.933594 2.398438 L 5.570312 0.191406 C 5.566406 0.105469 5.628906 0.0273438 5.714844 0.015625 C 5.800781 0.00390625 5.886719 0.0546875 5.90625 0.140625 L 6.261719 2.347656 C 6.277344 2.4375 6.214844 2.519531 6.121094 2.535156 Z M 6.097656 2.539062 "/>
<path style=" stroke:none;fill-rule:nonzero;fill:rgb(30.980392%,33.72549%,23.137255%);fill-opacity:1;" d="M 6.644531 2.539062 C 6.601562 2.535156 6.5625 2.523438 6.53125 2.496094 C 6.464844 2.429688 6.464844 2.328125 6.53125 2.261719 L 7.734375 0.976562 C 7.796875 0.910156 7.902344 0.90625 7.972656 0.964844 C 8.039062 1.027344 8.046875 1.132812 7.984375 1.199219 L 6.777344 2.484375 C 6.742188 2.519531 6.695312 2.539062 6.644531 2.539062 Z M 6.644531 2.539062 "/>
</g>
</svg>
