<svg xmlns="http://www.w3.org/2000/svg" width="45.78" height="66.65"><defs><style>.a{fill:#4f563b}</style></defs><path class="a" d="M10.37 44.61a6.72 6.72 0 0 1-1.35-.13c-3.65-.73-5.74-4.16-5.35-8.73s4-24.06 4.13-24.89a.67.67 0 0 1 .57-.53c.41 0 10.13-1 14.52 3.94a.62.62 0 0 1 .15.54c-.13.75-3.33 18.48-4.63 23.27a8.49 8.49 0 0 1-8.04 6.53Zm-1.39-33c-.57 3.12-3.66 20.14-4 24.28-.34 3.94 1.31 6.75 4.31 7.35a7 7 0 0 0 7.89-5.46c1.19-4.4 4.11-20.39 4.56-22.85-3.55-3.66-10.83-3.48-12.76-3.32Z"/><path class="a" d="M4.72 65.29h-.14a.65.65 0 0 1-.49-.77l4.42-20.81a.644.644 0 0 1 1.26.27L5.35 64.79a.65.65 0 0 1-.63.5Z"/><path class="a" d="M8.99 66.66h-.16L.49 64.55a.65.65 0 0 1-.47-.79.64.64 0 0 1 .78-.46l8.34 2.11a.64.64 0 0 1-.15 1.27ZM10.37 44.61a6.72 6.72 0 0 1-1.35-.13c-3.65-.73-5.74-4.16-5.35-8.73.13-1.42.56-4.38 1.3-8.81a.64.64 0 0 1 .64-.53c11.63 0 15.18-6.84 15.33-7.14a.65.65 0 0 1 .78-.32.64.64 0 0 1 .43.73c-.48 2.55-2.94 15.44-3.74 18.4a8.49 8.49 0 0 1-8.04 6.53ZM6.15 27.69c-.67 4.1-1.08 6.84-1.19 8.17-.34 3.94 1.31 6.75 4.31 7.35a7 7 0 0 0 7.89-5.46c.54-2 1.92-8.91 3.2-15.55-2.13 2.26-6.45 5.34-14.21 5.48ZM35.41 44.61a8.5 8.5 0 0 1-8-6.53c-1.3-4.79-4.5-22.52-4.63-23.27a.62.62 0 0 1 .15-.54c4.39-4.92 14.11-4 14.52-3.94a.65.65 0 0 1 .57.53c.15.83 3.73 20.29 4.13 24.89s-1.7 8-5.34 8.73a6.82 6.82 0 0 1-1.4.13ZM24.05 14.89c.44 2.46 3.36 18.45 4.55 22.85a7 7 0 0 0 7.89 5.46c3-.6 4.66-3.41 4.31-7.35-.36-4.14-3.45-21.16-4-24.28-1.94-.12-9.21-.29-12.75 3.32Z"/><path class="a" d="M41.05 65.29a.66.66 0 0 1-.63-.51l-4.37-20.81a.64.64 0 0 1 .5-.76.63.63 0 0 1 .76.49l4.42 20.81a.64.64 0 0 1-.49.77Z"/><path class="a" d="M36.8 66.66a.65.65 0 0 1-.63-.49.64.64 0 0 1 .47-.78l8.34-2.11a.63.63 0 0 1 .78.46.65.65 0 0 1-.46.79l-8.35 2.08ZM35.41 44.61a8.5 8.5 0 0 1-8-6.53c-.8-3-3.25-15.85-3.74-18.4a.65.65 0 0 1 1.21-.41c.15.3 3.7 7.14 15.33 7.14a.64.64 0 0 1 .64.53c.74 4.45 1.18 7.41 1.3 8.81.4 4.57-1.7 8-5.34 8.73a6.82 6.82 0 0 1-1.4.13Zm-10-22.41c1.28 6.64 2.66 13.56 3.2 15.55a7 7 0 0 0 7.89 5.46c3-.6 4.66-3.41 4.31-7.35-.11-1.31-.51-4.06-1.19-8.17-7.75-.15-12.07-3.23-14.2-5.5ZM21.52 11.01a.66.66 0 0 1-.4-.13l-5-3.89a.65.65 0 0 1-.11-.91.64.64 0 0 1 .9-.11l5 3.89a.64.64 0 0 1 .12.9.63.63 0 0 1-.51.25ZM23.37 10a.64.64 0 0 1-.63-.55L21.36.75a.65.65 0 0 1 1.28-.2l1.37 8.7a.65.65 0 0 1-.54.74ZM25.47 10a.67.67 0 0 1-.44-.17.65.65 0 0 1 0-.91l4.62-5.07a.644.644 0 0 1 .95.87l-4.62 5.07a.62.62 0 0 1-.51.21Z"/></svg>