<?xml version="1.0" encoding="UTF-8"?>
<svg xmlns="http://www.w3.org/2000/svg" xmlns:xlink="http://www.w3.org/1999/xlink" width="px" height="px" viewBox="0 0 23 33" version="1.1">
<g id="surface1">
<path style=" stroke:none;fill-rule:nonzero;fill:rgb(30.980392%,33.72549%,23.137255%);fill-opacity:1;" d="M 5.183594 21.972656 C 4.957031 21.972656 4.730469 21.953125 4.511719 21.90625 C 2.683594 21.546875 1.640625 19.859375 1.835938 17.609375 C 2.03125 15.355469 3.835938 5.757812 3.898438 5.347656 C 3.929688 5.210938 4.042969 5.105469 4.183594 5.089844 C 4.390625 5.089844 9.25 4.59375 11.445312 7.027344 C 11.511719 7.101562 11.539062 7.199219 11.519531 7.292969 C 11.453125 7.664062 9.855469 16.398438 9.203125 18.753906 C 8.761719 20.601562 7.109375 21.921875 5.183594 21.972656 Z M 4.488281 5.71875 C 4.203125 7.253906 2.660156 15.636719 2.488281 17.675781 C 2.320312 19.617188 3.144531 21 4.644531 21.296875 C 6.476562 21.570312 8.203125 20.390625 8.589844 18.609375 C 9.183594 16.441406 10.644531 8.566406 10.871094 7.355469 C 9.09375 5.550781 5.453125 5.640625 4.488281 5.71875 Z M 4.488281 5.71875 "/>
<path style=" stroke:none;fill-rule:nonzero;fill:rgb(30.980392%,33.72549%,23.137255%);fill-opacity:1;" d="M 2.359375 32.15625 L 2.289062 32.15625 C 2.117188 32.117188 2.007812 31.949219 2.046875 31.777344 L 4.253906 21.527344 C 4.292969 21.359375 4.464844 21.25 4.636719 21.285156 C 4.8125 21.320312 4.921875 21.492188 4.886719 21.660156 L 2.675781 31.910156 C 2.640625 32.054688 2.511719 32.15625 2.359375 32.15625 Z M 2.359375 32.15625 "/>
<path style=" stroke:none;fill-rule:nonzero;fill:rgb(30.980392%,33.72549%,23.137255%);fill-opacity:1;" d="M 4.496094 32.832031 L 4.414062 32.832031 L 0.246094 31.792969 C 0.0703125 31.75 -0.0351562 31.574219 0.0117188 31.402344 C 0.0546875 31.234375 0.230469 31.132812 0.398438 31.175781 L 4.570312 32.21875 C 4.738281 32.242188 4.855469 32.398438 4.835938 32.566406 C 4.816406 32.734375 4.664062 32.855469 4.496094 32.84375 Z M 5.183594 21.972656 C 4.957031 21.972656 4.730469 21.953125 4.511719 21.90625 C 2.683594 21.546875 1.640625 19.859375 1.835938 17.609375 C 1.898438 16.910156 2.113281 15.449219 2.484375 13.269531 C 2.511719 13.117188 2.648438 13.003906 2.804688 13.007812 C 8.621094 13.007812 10.394531 9.640625 10.46875 9.492188 C 10.542969 9.351562 10.707031 9.285156 10.859375 9.332031 C 11.011719 9.382812 11.105469 9.535156 11.074219 9.691406 C 10.835938 10.949219 9.605469 17.296875 9.203125 18.753906 C 8.761719 20.601562 7.109375 21.921875 5.183594 21.972656 Z M 3.074219 13.636719 C 2.738281 15.65625 2.535156 17.007812 2.480469 17.664062 C 2.308594 19.601562 3.136719 20.988281 4.636719 21.28125 C 6.464844 21.554688 8.195312 20.375 8.578125 18.59375 C 8.851562 17.609375 9.539062 14.203125 10.179688 10.933594 C 9.113281 12.046875 6.953125 13.566406 3.074219 13.632812 Z M 17.703125 21.972656 C 15.789062 21.914062 14.148438 20.59375 13.703125 18.753906 C 13.054688 16.398438 11.453125 7.664062 11.390625 7.292969 C 11.371094 7.199219 11.398438 7.101562 11.464844 7.027344 C 13.660156 4.605469 18.519531 5.058594 18.726562 5.089844 C 18.867188 5.101562 18.984375 5.210938 19.011719 5.347656 C 19.085938 5.757812 20.875 15.34375 21.074219 17.609375 C 21.273438 19.875 20.226562 21.546875 18.40625 21.90625 C 18.175781 21.953125 17.941406 21.972656 17.703125 21.972656 Z M 12.023438 7.332031 C 12.246094 8.546875 13.703125 16.421875 14.300781 18.589844 C 14.6875 20.371094 16.414062 21.550781 18.246094 21.277344 C 19.746094 20.980469 20.574219 19.597656 20.398438 17.65625 C 20.21875 15.617188 18.675781 7.234375 18.398438 5.699219 C 17.429688 5.640625 13.796875 5.554688 12.023438 7.332031 Z M 12.023438 7.332031 "/>
<path style=" stroke:none;fill-rule:nonzero;fill:rgb(30.980392%,33.72549%,23.137255%);fill-opacity:1;" d="M 20.523438 32.15625 C 20.375 32.15625 20.246094 32.050781 20.210938 31.90625 L 18.023438 21.65625 C 18.007812 21.574219 18.023438 21.488281 18.070312 21.417969 C 18.117188 21.347656 18.191406 21.300781 18.273438 21.28125 C 18.359375 21.261719 18.445312 21.277344 18.515625 21.324219 C 18.589844 21.371094 18.636719 21.441406 18.65625 21.523438 L 20.863281 31.773438 C 20.882812 31.855469 20.871094 31.941406 20.824219 32.015625 C 20.777344 32.085938 20.703125 32.136719 20.621094 32.152344 Z M 20.523438 32.15625 "/>
<path style=" stroke:none;fill-rule:nonzero;fill:rgb(30.980392%,33.72549%,23.137255%);fill-opacity:1;" d="M 18.398438 32.832031 C 18.25 32.832031 18.121094 32.734375 18.085938 32.589844 C 18.0625 32.507812 18.078125 32.421875 18.121094 32.351562 C 18.164062 32.277344 18.238281 32.226562 18.320312 32.207031 L 22.488281 31.167969 C 22.574219 31.144531 22.660156 31.15625 22.734375 31.199219 C 22.808594 31.242188 22.859375 31.3125 22.878906 31.394531 C 22.925781 31.5625 22.820312 31.738281 22.648438 31.785156 L 18.476562 32.808594 Z M 17.703125 21.972656 C 15.789062 21.914062 14.148438 20.59375 13.703125 18.753906 C 13.304688 17.277344 12.078125 10.949219 11.835938 9.691406 C 11.8125 9.539062 11.90625 9.394531 12.050781 9.34375 C 12.199219 9.296875 12.363281 9.355469 12.441406 9.492188 C 12.515625 9.640625 14.289062 13.007812 20.105469 13.007812 C 20.261719 13.003906 20.398438 13.117188 20.425781 13.269531 C 20.796875 15.460938 21.015625 16.917969 21.074219 17.609375 C 21.273438 19.859375 20.226562 21.546875 18.40625 21.90625 C 18.175781 21.953125 17.941406 21.972656 17.703125 21.972656 Z M 12.703125 10.933594 C 13.34375 14.203125 14.035156 17.613281 14.304688 18.59375 C 14.691406 20.375 16.421875 21.554688 18.25 21.28125 C 19.75 20.988281 20.578125 19.601562 20.40625 17.664062 C 20.351562 17.015625 20.148438 15.664062 19.808594 13.636719 C 15.933594 13.566406 13.773438 12.046875 12.710938 10.929688 Z M 10.761719 5.421875 C 10.6875 5.421875 10.617188 5.402344 10.558594 5.359375 L 8.058594 3.441406 C 7.917969 3.332031 7.894531 3.132812 8.003906 2.996094 C 8.058594 2.929688 8.132812 2.886719 8.21875 2.875 C 8.304688 2.867188 8.386719 2.890625 8.453125 2.941406 L 10.953125 4.855469 C 11.023438 4.90625 11.066406 4.984375 11.078125 5.066406 C 11.089844 5.148438 11.066406 5.234375 11.015625 5.300781 C 10.953125 5.378906 10.859375 5.425781 10.761719 5.421875 Z M 11.683594 4.925781 C 11.527344 4.925781 11.390625 4.808594 11.371094 4.65625 L 10.679688 0.371094 C 10.667969 0.203125 10.785156 0.0546875 10.953125 0.03125 C 11.121094 0.00390625 11.28125 0.109375 11.320312 0.269531 L 12.003906 4.554688 C 12.03125 4.730469 11.910156 4.894531 11.734375 4.921875 Z M 12.734375 4.925781 C 12.652344 4.925781 12.574219 4.894531 12.515625 4.839844 C 12.390625 4.71875 12.390625 4.519531 12.515625 4.394531 L 14.824219 1.894531 C 14.945312 1.765625 15.148438 1.757812 15.28125 1.875 C 15.410156 1.996094 15.421875 2.195312 15.300781 2.324219 L 12.988281 4.820312 C 12.925781 4.894531 12.832031 4.933594 12.734375 4.925781 Z M 12.734375 4.925781 "/>
</g>
</svg>
