<?xml version="1.0" encoding="UTF-8"?> <svg xmlns="http://www.w3.org/2000/svg" width="78.44" height="67.67" viewBox="0 0 78.44 67.67"> <defs> <style> .a { fill: #4f563b; } </style> </defs> <g> <path class="a" d="M316.81,392.66a20.24,20.24,0,1,1,20.24-20.24A20.26,20.26,0,0,1,316.81,392.66Zm0-39.19a18.95,18.95,0,1,0,18.95,18.95A19,19,0,0,0,316.81,353.47Zm0,35.24a16.3,16.3,0,1,1,16.3-16.29A16.31,16.31,0,0,1,316.81,388.71Zm0-31.3a15,15,0,1,0,15,15A15,15,0,0,0,316.81,357.41Z" transform="translate(-258.61 -347.01)"></path> <g> <path class="a" d="M278.85,414.69a20.24,20.24,0,1,1,20.24-20.24A20.26,20.26,0,0,1,278.85,414.69Zm0-39.19a18.95,18.95,0,1,0,18.95,18.95A19,19,0,0,0,278.85,375.5Zm0,35.24a16.3,16.3,0,1,1,16.3-16.29A16.31,16.31,0,0,1,278.85,410.74Zm0-31.3a15,15,0,1,0,15,15A15,15,0,0,0,278.85,379.44Z" transform="translate(-258.61 -347.01)"></path> <g> <path class="a" d="M288.9,366.75H268.81a.66.66,0,0,1-.59-.38.65.65,0,0,1,.1-.69l3.32-3.94a.69.69,0,0,1,.5-.23h13.8a.64.64,0,0,1,.51.26l3,3.94a.65.65,0,0,1-.51,1Zm-18.7-1.29h17.41l-2-2.66H272.44Z" transform="translate(-258.61 -347.01)"></path> <path class="a" d="M281.81,375.5h-6.1a.68.68,0,0,1-.51-.25l-6.9-8.75a.64.64,0,0,1,.51-1H288.9a.64.64,0,0,1,.58.36.66.66,0,0,1-.08.69l-7.09,8.75A.64.64,0,0,1,281.81,375.5ZM276,374.21h5.48l6-7.46h-17.4Z" transform="translate(-258.61 -347.01)"></path> <path class="a" d="M275.22,366.75h0a.67.67,0,0,1-.49-.25l-3.08-3.95a.64.64,0,1,1,1-.79l2.6,3.33,2.94-3.36a.69.69,0,0,1,.46-.22.57.57,0,0,1,.48.19l3.5,3.45,2.82-3.4a.64.64,0,0,1,.91-.09.66.66,0,0,1,.09.91l-3.27,3.94a.64.64,0,0,1-.46.23.6.6,0,0,1-.49-.18l-3.52-3.46-3,3.43A.64.64,0,0,1,275.22,366.75Z" transform="translate(-258.61 -347.01)"></path> <path class="a" d="M277.74,375.5a.65.65,0,0,1-.62-.47l-2.52-8.75a.65.65,0,1,1,1.24-.36l2.52,8.75a.65.65,0,0,1-.44.8Z" transform="translate(-258.61 -347.01)"></path> <path class="a" d="M279.65,375.5a.67.67,0,0,1-.61-.86l3-8.75a.63.63,0,0,1,.81-.4.65.65,0,0,1,.41.82l-3,8.75A.64.64,0,0,1,279.65,375.5Z" transform="translate(-258.61 -347.01)"></path> </g> <g> <path class="a" d="M267.11,362.34a.61.61,0,0,1-.4-.14l-3.6-2.78a.65.65,0,0,1,.79-1l3.6,2.78a.65.65,0,0,1,.12.91A.66.66,0,0,1,267.11,362.34Z" transform="translate(-258.61 -347.01)"></path> <path class="a" d="M270,360.1a.65.65,0,0,1-.54-.29l-3.4-5.27a.64.64,0,1,1,1.08-.7l3.41,5.27a.65.65,0,0,1-.2.89A.62.62,0,0,1,270,360.1Z" transform="translate(-258.61 -347.01)"></path> <path class="a" d="M278.85,358.16a.64.64,0,0,1-.64-.64v-9.86a.65.65,0,1,1,1.29,0v9.86A.65.65,0,0,1,278.85,358.16Z" transform="translate(-258.61 -347.01)"></path> <path class="a" d="M274.54,358.84a.66.66,0,0,1-.63-.49l-2-8a.64.64,0,0,1,.47-.78.65.65,0,0,1,.78.47l2,8a.65.65,0,0,1-.46.79Z" transform="translate(-258.61 -347.01)"></path> <path class="a" d="M290.6,362.34a.63.63,0,0,1-.51-.25.65.65,0,0,1,.11-.91l3.6-2.78a.65.65,0,0,1,.91.12.64.64,0,0,1-.12.9L291,362.2A.6.6,0,0,1,290.6,362.34Z" transform="translate(-258.61 -347.01)"></path> <path class="a" d="M287.69,360.1a.64.64,0,0,1-.54-1l3.41-5.27a.64.64,0,0,1,.89-.19.64.64,0,0,1,.19.89l-3.41,5.27A.64.64,0,0,1,287.69,360.1Z" transform="translate(-258.61 -347.01)"></path> <path class="a" d="M283.17,358.84l-.16,0a.65.65,0,0,1-.47-.79l2-8a.64.64,0,1,1,1.25.31l-2,8A.65.65,0,0,1,283.17,358.84Z" transform="translate(-258.61 -347.01)"></path> </g> </g> </g> </svg> 