<?xml version="1.0" encoding="UTF-8"?>
<svg xmlns="http://www.w3.org/2000/svg" xmlns:xlink="http://www.w3.org/1999/xlink" width="px" height="px" viewBox="0 0 19 17" version="1.1">
<g id="surface1">
<path style=" stroke:none;fill-rule:nonzero;fill:rgb(30.980392%,33.72549%,23.137255%);fill-opacity:1;" d="M 14.175781 11.414062 C 11.453125 11.414062 9.246094 9.148438 9.246094 6.351562 C 9.246094 3.558594 11.453125 1.292969 14.175781 1.292969 C 16.898438 1.292969 19.105469 3.558594 19.105469 6.351562 C 19.105469 9.144531 16.898438 11.410156 14.175781 11.414062 Z M 14.175781 1.613281 C 11.628906 1.613281 9.5625 3.734375 9.5625 6.351562 C 9.5625 8.96875 11.628906 11.089844 14.175781 11.089844 C 16.726562 11.089844 18.792969 8.96875 18.792969 6.351562 C 18.785156 3.738281 16.722656 1.621094 14.175781 1.613281 Z M 14.175781 10.425781 C 11.984375 10.425781 10.207031 8.601562 10.207031 6.347656 C 10.207031 4.097656 11.984375 2.273438 14.179688 2.273438 C 16.371094 2.277344 18.148438 4.101562 18.148438 6.351562 C 18.144531 8.601562 16.367188 10.421875 14.175781 10.425781 Z M 14.175781 2.601562 C 12.160156 2.601562 10.523438 4.277344 10.523438 6.351562 C 10.523438 8.421875 12.160156 10.101562 14.175781 10.101562 C 16.195312 10.101562 17.832031 8.421875 17.832031 6.351562 C 17.832031 4.277344 16.195312 2.601562 14.175781 2.601562 Z M 14.175781 2.601562 "/>
<path style=" stroke:none;fill-rule:nonzero;fill:rgb(30.980392%,33.72549%,23.137255%);fill-opacity:1;" d="M 4.929688 16.921875 C 2.207031 16.921875 0 14.65625 0 11.859375 C 0 9.066406 2.207031 6.800781 4.929688 6.800781 C 7.652344 6.800781 9.859375 9.066406 9.859375 11.859375 C 9.859375 14.652344 7.652344 16.917969 4.929688 16.921875 Z M 4.929688 7.121094 C 2.382812 7.121094 0.3125 9.242188 0.3125 11.859375 C 0.3125 14.476562 2.382812 16.597656 4.929688 16.597656 C 7.480469 16.597656 9.546875 14.476562 9.546875 11.859375 C 9.539062 9.246094 7.476562 7.128906 4.929688 7.121094 Z M 4.929688 15.933594 C 2.738281 15.933594 0.960938 14.109375 0.960938 11.855469 C 0.960938 9.605469 2.738281 7.78125 4.933594 7.78125 C 7.125 7.785156 8.902344 9.609375 8.902344 11.859375 C 8.898438 14.109375 7.121094 15.929688 4.929688 15.933594 Z M 4.929688 8.109375 C 2.914062 8.109375 1.277344 9.785156 1.277344 11.859375 C 1.277344 13.929688 2.914062 15.609375 4.929688 15.609375 C 6.949219 15.609375 8.585938 13.929688 8.585938 11.859375 C 8.585938 9.785156 6.949219 8.109375 4.929688 8.109375 Z M 4.929688 8.109375 "/>
<path style=" stroke:none;fill-rule:nonzero;fill:rgb(30.980392%,33.72549%,23.137255%);fill-opacity:1;" d="M 7.378906 4.933594 L 2.484375 4.933594 C 2.421875 4.933594 2.367188 4.898438 2.339844 4.839844 C 2.316406 4.78125 2.324219 4.714844 2.367188 4.667969 L 3.175781 3.683594 C 3.203125 3.648438 3.25 3.625 3.296875 3.625 L 6.65625 3.625 C 6.707031 3.625 6.753906 3.648438 6.78125 3.691406 L 7.511719 4.675781 C 7.542969 4.722656 7.546875 4.785156 7.519531 4.835938 C 7.496094 4.886719 7.445312 4.921875 7.386719 4.925781 Z M 2.824219 4.613281 L 7.0625 4.613281 L 6.578125 3.949219 L 3.367188 3.949219 Z M 2.824219 4.613281 "/>
<path style=" stroke:none;fill-rule:nonzero;fill:rgb(30.980392%,33.72549%,23.137255%);fill-opacity:1;" d="M 5.652344 7.121094 L 4.164062 7.121094 C 4.117188 7.121094 4.070312 7.097656 4.042969 7.058594 L 2.359375 4.871094 C 2.328125 4.824219 2.324219 4.761719 2.351562 4.710938 C 2.375 4.65625 2.425781 4.625 2.484375 4.621094 L 7.378906 4.621094 C 7.4375 4.621094 7.492188 4.65625 7.519531 4.710938 C 7.546875 4.769531 7.539062 4.835938 7.5 4.886719 L 5.773438 7.074219 C 5.742188 7.105469 5.695312 7.125 5.652344 7.121094 Z M 4.234375 6.800781 L 5.570312 6.800781 L 7.03125 4.933594 L 2.792969 4.933594 Z M 4.234375 6.800781 "/>
<path style=" stroke:none;fill-rule:nonzero;fill:rgb(30.980392%,33.72549%,23.137255%);fill-opacity:1;" d="M 4.046875 4.933594 C 4 4.933594 3.957031 4.910156 3.925781 4.871094 L 3.175781 3.886719 C 3.136719 3.839844 3.121094 3.777344 3.144531 3.71875 C 3.164062 3.664062 3.210938 3.621094 3.269531 3.617188 C 3.332031 3.609375 3.386719 3.636719 3.421875 3.6875 L 4.054688 4.519531 L 4.769531 3.679688 C 4.796875 3.648438 4.839844 3.628906 4.882812 3.625 C 4.925781 3.621094 4.96875 3.636719 5 3.671875 L 5.851562 4.535156 L 6.539062 3.683594 C 6.5625 3.652344 6.601562 3.628906 6.644531 3.625 C 6.6875 3.621094 6.726562 3.636719 6.757812 3.664062 C 6.824219 3.71875 6.835938 3.820312 6.78125 3.890625 L 5.984375 4.875 C 5.957031 4.910156 5.917969 4.929688 5.871094 4.933594 C 5.828125 4.9375 5.785156 4.921875 5.753906 4.886719 L 4.894531 4.023438 L 4.164062 4.878906 C 4.136719 4.914062 4.089844 4.933594 4.046875 4.933594 Z M 4.046875 4.933594 "/>
<path style=" stroke:none;fill-rule:nonzero;fill:rgb(30.980392%,33.72549%,23.137255%);fill-opacity:1;" d="M 4.660156 7.121094 C 4.589844 7.121094 4.527344 7.074219 4.507812 7.003906 L 3.894531 4.816406 C 3.871094 4.761719 3.882812 4.691406 3.921875 4.648438 C 3.964844 4.601562 4.027344 4.582031 4.085938 4.597656 C 4.144531 4.617188 4.1875 4.664062 4.195312 4.726562 L 4.8125 6.914062 C 4.835938 7 4.785156 7.089844 4.703125 7.113281 Z M 4.660156 7.121094 "/>
<path style=" stroke:none;fill-rule:nonzero;fill:rgb(30.980392%,33.72549%,23.137255%);fill-opacity:1;" d="M 5.125 7.121094 C 5.074219 7.121094 5.027344 7.09375 5 7.050781 C 4.972656 7.011719 4.960938 6.957031 4.976562 6.90625 L 5.707031 4.71875 C 5.71875 4.679688 5.75 4.644531 5.785156 4.628906 C 5.824219 4.609375 5.867188 4.605469 5.90625 4.621094 C 5.988281 4.648438 6.03125 4.738281 6.003906 4.824219 L 5.273438 7.011719 C 5.253906 7.078125 5.191406 7.121094 5.125 7.121094 Z M 5.125 7.121094 "/>
<path style=" stroke:none;fill-rule:nonzero;fill:rgb(30.980392%,33.72549%,23.137255%);fill-opacity:1;" d="M 2.070312 3.832031 C 2.035156 3.832031 2 3.820312 1.972656 3.796875 L 1.097656 3.101562 C 1.046875 3.042969 1.046875 2.957031 1.09375 2.898438 C 1.140625 2.835938 1.222656 2.816406 1.289062 2.851562 L 2.164062 3.546875 C 2.234375 3.601562 2.246094 3.703125 2.195312 3.773438 C 2.164062 3.8125 2.117188 3.832031 2.070312 3.832031 Z M 2.070312 3.832031 "/>
<path style=" stroke:none;fill-rule:nonzero;fill:rgb(30.980392%,33.72549%,23.137255%);fill-opacity:1;" d="M 2.773438 3.273438 C 2.722656 3.273438 2.671875 3.246094 2.644531 3.199219 L 1.816406 1.882812 C 1.769531 1.808594 1.789062 1.707031 1.859375 1.660156 C 1.933594 1.613281 2.03125 1.632812 2.078125 1.707031 L 2.910156 3.023438 C 2.953125 3.101562 2.933594 3.199219 2.859375 3.246094 C 2.835938 3.265625 2.804688 3.273438 2.773438 3.273438 Z M 2.773438 3.273438 "/>
<path style=" stroke:none;fill-rule:nonzero;fill:rgb(30.980392%,33.72549%,23.137255%);fill-opacity:1;" d="M 4.929688 2.789062 C 4.84375 2.789062 4.773438 2.714844 4.773438 2.628906 L 4.773438 0.164062 C 4.765625 0.101562 4.796875 0.0390625 4.847656 0.00390625 C 4.898438 -0.0273438 4.964844 -0.0273438 5.015625 0.00390625 C 5.066406 0.0390625 5.097656 0.101562 5.089844 0.164062 L 5.089844 2.628906 C 5.085938 2.714844 5.015625 2.789062 4.929688 2.789062 Z M 4.929688 2.789062 "/>
<path style=" stroke:none;fill-rule:nonzero;fill:rgb(30.980392%,33.72549%,23.137255%);fill-opacity:1;" d="M 3.878906 2.957031 C 3.808594 2.957031 3.746094 2.90625 3.726562 2.835938 L 3.238281 0.835938 C 3.230469 0.792969 3.234375 0.75 3.257812 0.714844 C 3.277344 0.675781 3.3125 0.648438 3.355469 0.640625 C 3.4375 0.621094 3.523438 0.671875 3.542969 0.757812 L 4.03125 2.757812 C 4.054688 2.84375 4.003906 2.933594 3.917969 2.953125 Z M 3.878906 2.957031 "/>
<path style=" stroke:none;fill-rule:nonzero;fill:rgb(30.980392%,33.72549%,23.137255%);fill-opacity:1;" d="M 7.792969 3.832031 C 7.742188 3.832031 7.699219 3.808594 7.667969 3.769531 C 7.613281 3.699219 7.625 3.597656 7.695312 3.542969 L 8.570312 2.847656 C 8.640625 2.792969 8.742188 2.804688 8.792969 2.878906 C 8.820312 2.910156 8.828125 2.953125 8.824219 2.996094 C 8.820312 3.039062 8.796875 3.078125 8.765625 3.101562 L 7.890625 3.796875 C 7.863281 3.820312 7.828125 3.832031 7.792969 3.832031 Z M 7.792969 3.832031 "/>
<path style=" stroke:none;fill-rule:nonzero;fill:rgb(30.980392%,33.72549%,23.137255%);fill-opacity:1;" d="M 7.082031 3.273438 C 7.023438 3.273438 6.972656 3.242188 6.945312 3.1875 C 6.917969 3.136719 6.917969 3.070312 6.953125 3.023438 L 7.78125 1.703125 C 7.804688 1.667969 7.839844 1.644531 7.882812 1.636719 C 7.921875 1.625 7.964844 1.632812 8 1.65625 C 8.035156 1.679688 8.058594 1.71875 8.066406 1.757812 C 8.078125 1.800781 8.070312 1.84375 8.046875 1.878906 L 7.214844 3.199219 C 7.1875 3.242188 7.136719 3.273438 7.082031 3.273438 Z M 7.082031 3.273438 "/>
<path style=" stroke:none;fill-rule:nonzero;fill:rgb(30.980392%,33.72549%,23.137255%);fill-opacity:1;" d="M 5.984375 2.957031 L 5.945312 2.957031 C 5.859375 2.933594 5.808594 2.847656 5.828125 2.761719 L 6.316406 0.761719 C 6.335938 0.671875 6.421875 0.621094 6.507812 0.640625 C 6.589844 0.664062 6.640625 0.75 6.621094 0.835938 L 6.132812 2.835938 C 6.113281 2.90625 6.054688 2.957031 5.984375 2.957031 Z M 5.984375 2.957031 "/>
</g>
</svg>
