<svg xmlns="http://www.w3.org/2000/svg" width="78.44" height="67.67"><defs><style>.a{fill:#4f563b}</style></defs><path class="a" d="M58.2 45.65a20.24 20.24 0 1 1 20.24-20.24A20.26 20.26 0 0 1 58.2 45.65Zm0-39.19a18.95 18.95 0 1 0 18.95 18.95A19 19 0 0 0 58.2 6.46Zm0 35.24a16.3 16.3 0 1 1 16.3-16.29A16.31 16.31 0 0 1 58.2 41.7Zm0-31.3a15 15 0 1 0 15 15 15 15 0 0 0-15-15ZM20.24 67.68a20.24 20.24 0 1 1 20.24-20.24 20.26 20.26 0 0 1-20.24 20.24Zm0-39.19a18.95 18.95 0 1 0 18.95 18.95 19 19 0 0 0-18.95-18.95Zm0 35.24a16.3 16.3 0 1 1 16.3-16.29 16.31 16.31 0 0 1-16.3 16.29Zm0-31.3a15 15 0 1 0 15 15 15 15 0 0 0-15-15ZM30.29 19.74H10.2a.66.66 0 0 1-.59-.38.65.65 0 0 1 .1-.69l3.32-3.94a.69.69 0 0 1 .5-.23h13.8a.64.64 0 0 1 .51.26l3 3.94a.65.65 0 0 1-.51 1Zm-18.7-1.29H29l-2-2.66H13.83Z"/><path class="a" d="M23.2 28.49h-6.1a.68.68 0 0 1-.51-.25l-6.9-8.75a.64.64 0 0 1 .51-1h20.09a.64.64 0 0 1 .58.36.66.66 0 0 1-.08.69l-7.09 8.75a.64.64 0 0 1-.5.2Zm-5.81-1.29h5.48l6-7.46h-17.4Z"/><path class="a" d="M16.61 19.74a.67.67 0 0 1-.49-.25l-3.08-3.95a.64.64 0 1 1 1-.79l2.6 3.33 2.94-3.36a.69.69 0 0 1 .46-.22.57.57 0 0 1 .48.19l3.5 3.45 2.82-3.4a.64.64 0 0 1 .91-.09.66.66 0 0 1 .09.91l-3.27 3.94a.64.64 0 0 1-.46.23.6.6 0 0 1-.49-.18l-3.52-3.46-3 3.43a.64.64 0 0 1-.49.22Z"/><path class="a" d="M19.13 28.49a.65.65 0 0 1-.62-.47l-2.52-8.75a.65.65 0 1 1 1.24-.36l2.52 8.75a.65.65 0 0 1-.44.8ZM21.04 28.49a.67.67 0 0 1-.61-.86l3-8.75a.63.63 0 0 1 .81-.4.65.65 0 0 1 .41.82l-3 8.75a.64.64 0 0 1-.61.44ZM8.5 15.33a.61.61 0 0 1-.4-.14l-3.6-2.78a.65.65 0 0 1 .79-1l3.6 2.78a.65.65 0 0 1 .12.91.66.66 0 0 1-.51.23ZM11.39 13.09a.65.65 0 0 1-.54-.29l-3.4-5.27a.644.644 0 1 1 1.08-.7l3.41 5.27a.65.65 0 0 1-.2.89.62.62 0 0 1-.35.1ZM20.24 11.15a.64.64 0 0 1-.64-.64V.65a.65.65 0 1 1 1.29 0v9.86a.65.65 0 0 1-.65.64ZM15.93 11.83a.66.66 0 0 1-.63-.49l-2-8a.64.64 0 0 1 .47-.78.65.65 0 0 1 .78.47l2 8a.65.65 0 0 1-.46.79ZM31.99 15.33a.63.63 0 0 1-.51-.25.65.65 0 0 1 .11-.91l3.6-2.78a.65.65 0 0 1 .91.12.64.64 0 0 1-.12.9l-3.59 2.78a.6.6 0 0 1-.4.14ZM29.08 13.09a.64.64 0 0 1-.54-1l3.41-5.27a.64.64 0 0 1 .89-.19.64.64 0 0 1 .19.89l-3.41 5.27a.64.64 0 0 1-.54.3ZM24.56 11.83h-.16a.65.65 0 0 1-.47-.79l2-8a.644.644 0 1 1 1.25.31l-2 8a.65.65 0 0 1-.62.48Z"/></svg>