<?xml version="1.0" encoding="UTF-8"?>
<svg xmlns="http://www.w3.org/2000/svg" xmlns:xlink="http://www.w3.org/1999/xlink" width="px" height="px" viewBox="0 0 39 34" version="1.1">
<g id="surface1">
<path style=" stroke:none;fill-rule:nonzero;fill:rgb(30.980392%,33.72549%,23.137255%);fill-opacity:1;" d="M 29.101562 22.824219 C 23.511719 22.824219 18.980469 18.292969 18.980469 12.703125 C 18.980469 7.117188 23.511719 2.585938 29.101562 2.585938 C 34.6875 2.585938 39.21875 7.117188 39.21875 12.703125 C 39.214844 18.292969 34.6875 22.820312 29.101562 22.824219 Z M 29.101562 3.230469 C 23.867188 3.230469 19.625 7.472656 19.625 12.703125 C 19.625 17.9375 23.867188 22.179688 29.101562 22.179688 C 34.332031 22.179688 38.574219 17.9375 38.574219 12.703125 C 38.5625 7.476562 34.328125 3.242188 29.101562 3.230469 Z M 29.101562 20.851562 C 24.597656 20.851562 20.949219 17.199219 20.949219 12.699219 C 20.949219 8.195312 24.601562 4.546875 29.101562 4.550781 C 33.605469 4.550781 37.253906 8.203125 37.25 12.703125 C 37.246094 17.203125 33.597656 20.847656 29.101562 20.851562 Z M 29.101562 5.199219 C 24.957031 5.199219 21.601562 8.558594 21.601562 12.699219 C 21.601562 16.84375 24.957031 20.199219 29.101562 20.199219 C 33.242188 20.199219 36.601562 16.84375 36.601562 12.699219 C 36.601562 8.558594 33.242188 5.199219 29.101562 5.199219 Z M 10.121094 33.839844 C 4.53125 33.839844 0 29.308594 0 23.71875 C 0 18.132812 4.53125 13.601562 10.121094 13.601562 C 15.710938 13.601562 20.238281 18.132812 20.238281 23.71875 C 20.234375 29.308594 15.707031 33.835938 10.121094 33.839844 Z M 10.121094 14.246094 C 4.886719 14.246094 0.644531 18.488281 0.644531 23.71875 C 0.644531 28.953125 4.886719 33.195312 10.121094 33.195312 C 15.351562 33.195312 19.59375 28.953125 19.59375 23.71875 C 19.582031 18.492188 15.347656 14.257812 10.121094 14.246094 Z M 10.121094 31.863281 C 5.617188 31.863281 1.96875 28.214844 1.96875 23.714844 C 1.972656 19.210938 5.621094 15.5625 10.125 15.566406 C 14.625 15.566406 18.273438 19.21875 18.269531 23.71875 C 18.265625 28.21875 14.617188 31.863281 10.121094 31.863281 Z M 10.121094 16.214844 C 5.976562 16.214844 2.621094 19.574219 2.621094 23.714844 C 2.621094 27.855469 5.976562 31.214844 10.121094 31.214844 C 14.261719 31.214844 17.621094 27.855469 17.621094 23.714844 C 17.621094 19.574219 14.261719 16.214844 10.121094 16.214844 Z M 15.144531 9.871094 L 5.101562 9.871094 C 4.972656 9.867188 4.859375 9.792969 4.804688 9.679688 C 4.753906 9.566406 4.773438 9.429688 4.855469 9.335938 L 6.515625 7.363281 C 6.578125 7.292969 6.667969 7.253906 6.765625 7.25 L 13.664062 7.25 C 13.765625 7.25 13.859375 7.300781 13.921875 7.378906 L 15.421875 9.351562 C 15.480469 9.445312 15.488281 9.570312 15.4375 9.671875 C 15.382812 9.777344 15.28125 9.84375 15.164062 9.851562 Z M 5.796875 9.226562 L 14.5 9.226562 L 13.5 7.894531 L 6.914062 7.894531 Z M 5.796875 9.226562 "/>
<path style=" stroke:none;fill-rule:nonzero;fill:rgb(30.980392%,33.72549%,23.137255%);fill-opacity:1;" d="M 11.601562 14.246094 L 8.550781 14.246094 C 8.449219 14.242188 8.359375 14.195312 8.296875 14.121094 L 4.84375 9.746094 C 4.777344 9.648438 4.769531 9.523438 4.824219 9.417969 C 4.878906 9.316406 4.984375 9.25 5.101562 9.246094 L 15.144531 9.246094 C 15.269531 9.242188 15.382812 9.3125 15.433594 9.425781 C 15.488281 9.539062 15.472656 9.671875 15.394531 9.769531 L 11.851562 14.144531 C 11.785156 14.214844 11.695312 14.25 11.601562 14.246094 Z M 8.695312 13.601562 L 11.433594 13.601562 L 14.433594 9.871094 L 5.734375 9.871094 Z M 8.695312 13.601562 "/>
<path style=" stroke:none;fill-rule:nonzero;fill:rgb(30.980392%,33.72549%,23.137255%);fill-opacity:1;" d="M 8.304688 9.871094 C 8.210938 9.867188 8.121094 9.820312 8.058594 9.746094 L 6.519531 7.769531 C 6.4375 7.683594 6.410156 7.554688 6.449219 7.441406 C 6.492188 7.324219 6.59375 7.246094 6.714844 7.230469 C 6.835938 7.21875 6.953125 7.273438 7.019531 7.375 L 8.320312 9.039062 L 9.789062 7.359375 C 9.851562 7.296875 9.933594 7.257812 10.019531 7.25 C 10.109375 7.242188 10.199219 7.277344 10.261719 7.34375 L 12.011719 9.070312 L 13.421875 7.371094 C 13.472656 7.304688 13.550781 7.261719 13.636719 7.25 C 13.722656 7.242188 13.808594 7.269531 13.875 7.324219 C 14.007812 7.441406 14.03125 7.640625 13.921875 7.78125 L 12.285156 9.75 C 12.226562 9.820312 12.144531 9.859375 12.054688 9.863281 C 11.964844 9.875 11.875 9.839844 11.808594 9.773438 L 10.050781 8.046875 L 8.550781 9.761719 C 8.488281 9.832031 8.398438 9.871094 8.304688 9.871094 Z M 8.304688 9.871094 "/>
<path style=" stroke:none;fill-rule:nonzero;fill:rgb(30.980392%,33.72549%,23.137255%);fill-opacity:1;" d="M 9.566406 14.246094 C 9.421875 14.242188 9.292969 14.148438 9.253906 14.011719 L 7.996094 9.636719 C 7.945312 9.519531 7.96875 9.386719 8.050781 9.292969 C 8.132812 9.199219 8.265625 9.160156 8.382812 9.195312 C 8.503906 9.230469 8.59375 9.332031 8.613281 9.453125 L 9.875 13.828125 C 9.921875 14 9.824219 14.179688 9.65625 14.230469 Z M 10.519531 14.246094 C 10.417969 14.238281 10.324219 14.1875 10.261719 14.105469 C 10.203125 14.019531 10.1875 13.914062 10.214844 13.816406 L 11.714844 9.441406 C 11.742188 9.359375 11.800781 9.292969 11.875 9.253906 C 11.953125 9.214844 12.039062 9.210938 12.121094 9.238281 C 12.289062 9.296875 12.382812 9.480469 12.324219 9.648438 L 10.824219 14.023438 C 10.78125 14.15625 10.660156 14.246094 10.519531 14.246094 Z M 4.25 7.664062 C 4.175781 7.667969 4.105469 7.640625 4.050781 7.59375 L 2.25 6.203125 C 2.148438 6.085938 2.148438 5.914062 2.242188 5.792969 C 2.339844 5.671875 2.507812 5.636719 2.644531 5.703125 L 4.445312 7.09375 C 4.585938 7.203125 4.613281 7.40625 4.503906 7.550781 C 4.441406 7.625 4.347656 7.667969 4.25 7.664062 Z M 5.695312 6.546875 C 5.585938 6.542969 5.484375 6.492188 5.425781 6.398438 L 3.726562 3.765625 C 3.65625 3.667969 3.648438 3.542969 3.699219 3.4375 C 3.75 3.332031 3.859375 3.261719 3.976562 3.257812 C 4.09375 3.253906 4.203125 3.3125 4.265625 3.414062 L 5.96875 6.050781 C 6.0625 6.199219 6.019531 6.398438 5.871094 6.496094 C 5.816406 6.527344 5.757812 6.546875 5.695312 6.546875 Z M 10.121094 5.574219 C 9.941406 5.574219 9.800781 5.433594 9.800781 5.253906 L 9.800781 0.324219 C 9.785156 0.199219 9.84375 0.078125 9.949219 0.0117188 C 10.054688 -0.0585938 10.191406 -0.0585938 10.296875 0.0117188 C 10.402344 0.078125 10.460938 0.199219 10.445312 0.324219 L 10.445312 5.253906 C 10.441406 5.433594 10.296875 5.574219 10.121094 5.574219 Z M 7.964844 5.914062 C 7.816406 5.914062 7.6875 5.8125 7.648438 5.671875 L 6.648438 1.671875 C 6.628906 1.585938 6.640625 1.5 6.6875 1.425781 C 6.730469 1.351562 6.800781 1.300781 6.886719 1.28125 C 7.058594 1.238281 7.230469 1.34375 7.273438 1.515625 L 8.273438 5.515625 C 8.320312 5.6875 8.21875 5.863281 8.046875 5.910156 Z M 15.996094 7.664062 C 15.894531 7.667969 15.800781 7.621094 15.738281 7.539062 C 15.628906 7.398438 15.65625 7.195312 15.796875 7.085938 L 17.59375 5.695312 C 17.738281 5.585938 17.941406 5.613281 18.050781 5.753906 C 18.101562 5.824219 18.125 5.90625 18.113281 5.992188 C 18.101562 6.078125 18.058594 6.152344 17.988281 6.203125 L 16.195312 7.59375 C 16.140625 7.640625 16.066406 7.667969 15.996094 7.664062 Z M 14.539062 6.546875 C 14.421875 6.546875 14.308594 6.480469 14.253906 6.378906 C 14.195312 6.273438 14.203125 6.144531 14.269531 6.046875 L 15.976562 3.410156 C 16.019531 3.339844 16.09375 3.289062 16.175781 3.269531 C 16.261719 3.25 16.347656 3.269531 16.421875 3.316406 C 16.492188 3.359375 16.542969 3.433594 16.558594 3.519531 C 16.578125 3.601562 16.5625 3.6875 16.515625 3.761719 L 14.808594 6.394531 C 14.75 6.488281 14.648438 6.542969 14.539062 6.546875 Z M 12.28125 5.914062 L 12.199219 5.914062 C 12.027344 5.871094 11.921875 5.695312 11.964844 5.519531 L 12.964844 1.519531 C 12.992188 1.40625 13.078125 1.316406 13.1875 1.285156 C 13.300781 1.25 13.417969 1.28125 13.503906 1.363281 C 13.585938 1.441406 13.621094 1.5625 13.589844 1.675781 L 12.589844 5.675781 C 12.550781 5.816406 12.425781 5.914062 12.28125 5.914062 Z M 12.28125 5.914062 "/>
</g>
</svg>
