<?xml version="1.0" encoding="UTF-8"?>
<svg xmlns="http://www.w3.org/2000/svg" xmlns:xlink="http://www.w3.org/1999/xlink" width="px" height="px" viewBox="0 0 22 15" version="1.1">
<g id="surface1">
<path style=" stroke:none;fill-rule:nonzero;fill:rgb(30.980392%,33.72549%,23.137255%);fill-opacity:1;" d="M 2.445312 14.882812 C 2.375 14.882812 2.3125 14.832031 2.292969 14.761719 L 0.00390625 5.433594 C -0.015625 5.34375 0.0351562 5.257812 0.117188 5.234375 L 10.132812 2.613281 C 10.214844 2.59375 10.300781 2.644531 10.324219 2.734375 L 12.613281 12.066406 C 12.621094 12.109375 12.617188 12.152344 12.59375 12.191406 C 12.574219 12.226562 12.542969 12.253906 12.5 12.265625 L 2.484375 14.886719 Z M 0.347656 5.507812 L 2.558594 14.523438 L 12.273438 11.984375 L 10.058594 2.96875 Z M 0.347656 5.507812 "/>
<path style=" stroke:none;fill-rule:nonzero;fill:rgb(30.980392%,33.72549%,23.137255%);fill-opacity:1;" d="M 3.21875 13.667969 C 3.191406 13.667969 3.164062 13.660156 3.136719 13.644531 C 3.101562 13.625 3.078125 13.585938 3.066406 13.546875 L 1.324219 6.421875 C 1.304688 6.335938 1.355469 6.246094 1.4375 6.226562 L 9.417969 4.136719 C 9.457031 4.125 9.5 4.132812 9.535156 4.152344 C 9.570312 4.175781 9.597656 4.210938 9.609375 4.253906 L 11.351562 11.375 C 11.371094 11.460938 11.320312 11.550781 11.238281 11.574219 L 3.246094 13.664062 Z M 1.664062 6.5 L 3.328125 13.316406 L 11.015625 11.316406 L 9.347656 4.503906 Z M 1.664062 6.5 "/>
<path style=" stroke:none;fill-rule:nonzero;fill:rgb(30.980392%,33.72549%,23.137255%);fill-opacity:1;" d="M 17.957031 11.691406 C 17.941406 11.695312 17.925781 11.695312 17.90625 11.691406 L 11.699219 9.398438 C 11.652344 9.382812 11.613281 9.339844 11.601562 9.289062 L 10.875 6.316406 C 10.867188 6.285156 10.867188 6.25 10.875 6.21875 L 12.4375 1.699219 C 12.453125 1.660156 12.480469 1.628906 12.519531 1.609375 C 12.554688 1.589844 12.597656 1.589844 12.636719 1.609375 L 20.398438 4.476562 C 20.4375 4.488281 20.46875 4.519531 20.488281 4.558594 C 20.503906 4.59375 20.507812 4.640625 20.492188 4.679688 L 18.101562 11.601562 C 18.078125 11.65625 18.019531 11.695312 17.957031 11.691406 Z M 11.886719 9.113281 L 17.863281 11.316406 L 20.152344 4.699219 L 12.683594 1.949219 L 11.1875 6.273438 Z M 11.886719 9.113281 "/>
<path style=" stroke:none;fill-rule:nonzero;fill:rgb(30.980392%,33.72549%,23.137255%);fill-opacity:1;" d="M 18.539062 13.066406 C 18.523438 13.070312 18.503906 13.070312 18.488281 13.066406 L 12.03125 10.636719 C 11.980469 10.621094 11.941406 10.578125 11.929688 10.527344 L 10.425781 4.425781 C 10.414062 4.394531 10.414062 4.359375 10.425781 4.328125 L 11.875 0.109375 C 11.90625 0.0234375 11.996094 -0.0195312 12.074219 0.0117188 L 21.804688 3.601562 C 21.84375 3.617188 21.875 3.648438 21.894531 3.683594 C 21.910156 3.726562 21.910156 3.769531 21.894531 3.808594 L 18.679688 12.953125 C 18.660156 13.019531 18.605469 13.0625 18.539062 13.066406 Z M 12.203125 10.371094 L 18.445312 12.699219 L 21.554688 3.859375 L 12.125 0.371094 L 10.734375 4.398438 Z M 12.203125 10.371094 "/>
</g>
</svg>
