<svg xmlns="http://www.w3.org/2000/svg" width="90.63" height="59.53"><defs><style>.a{fill:#4f563b}</style></defs><path class="a" d="M10.12 59.53a.66.66 0 0 1-.63-.49L.02 21.73a.65.65 0 0 1 .47-.79l41.42-10.48a.65.65 0 0 1 .79.47l9.47 37.34a.64.64 0 0 1-.07.49.65.65 0 0 1-.39.3L10.28 59.54Zm-8.69-37.5 9.15 36.07 40.18-10.16-9.15-36.07Z"/><path class="a" d="M13.31 54.67a.66.66 0 0 1-.33-.09.62.62 0 0 1-.29-.4L5.48 25.69a.65.65 0 0 1 .47-.79l33-8.36a.69.69 0 0 1 .49.07.64.64 0 0 1 .3.4l7.21 28.49a.66.66 0 0 1-.47.79l-33.05 8.36ZM6.89 26l6.87 27.27 31.8-8-6.89-27.25ZM74.28 46.77a.78.78 0 0 1-.21 0L48.4 37.6a.64.64 0 0 1-.41-.45l-3-11.89a.7.7 0 0 1 0-.38L51.45 6.8a.7.7 0 0 1 .33-.37.64.64 0 0 1 .49 0L84.38 17.9a.64.64 0 0 1 .39.82L74.88 46.4a.65.65 0 0 1-.6.37ZM49.16 36.46l24.73 8.81 9.46-26.47-30.89-11-6.18 17.29Z"/><path class="a" d="M76.69 52.27a.85.85 0 0 1-.22 0l-26.71-9.72a.62.62 0 0 1-.41-.44L43.12 17.7a.62.62 0 0 1 0-.38l6-16.89a.65.65 0 0 1 .83-.39l40.24 14.37a.7.7 0 0 1 .37.33.67.67 0 0 1 0 .5L77.27 51.82a.67.67 0 0 1-.58.45ZM50.47 41.48 76.3 50.8l12.85-35.37-39-13.94-5.75 16.1Z"/></svg>