<?xml version="1.0" encoding="UTF-8"?>
<svg xmlns="http://www.w3.org/2000/svg" xmlns:xlink="http://www.w3.org/1999/xlink" width="px" height="px" viewBox="0 0 45 30" version="1.1">
<g id="surface1">
<path style=" stroke:none;fill-rule:nonzero;fill:rgb(30.980392%,33.72549%,23.137255%);fill-opacity:1;" d="M 5.003906 29.765625 C 4.859375 29.761719 4.730469 29.664062 4.691406 29.519531 L 0.0117188 10.863281 C -0.0351562 10.691406 0.0703125 10.515625 0.242188 10.46875 L 20.726562 5.230469 C 20.898438 5.1875 21.070312 5.292969 21.117188 5.464844 L 25.796875 24.136719 C 25.820312 24.21875 25.808594 24.304688 25.765625 24.378906 C 25.722656 24.453125 25.652344 24.507812 25.570312 24.53125 L 5.082031 29.769531 Z M 0.707031 11.015625 L 5.230469 29.050781 L 25.101562 23.96875 L 20.578125 5.933594 Z M 0.707031 11.015625 "/>
<path style=" stroke:none;fill-rule:nonzero;fill:rgb(30.980392%,33.72549%,23.137255%);fill-opacity:1;" d="M 6.582031 27.335938 C 6.523438 27.335938 6.46875 27.320312 6.417969 27.289062 C 6.34375 27.246094 6.292969 27.175781 6.273438 27.089844 L 2.710938 12.84375 C 2.667969 12.671875 2.769531 12.496094 2.941406 12.449219 L 19.261719 8.269531 C 19.34375 8.25 19.429688 8.261719 19.503906 8.304688 C 19.578125 8.347656 19.632812 8.421875 19.652344 8.503906 L 23.21875 22.75 C 23.257812 22.921875 23.15625 23.097656 22.984375 23.144531 L 6.640625 27.324219 Z M 3.40625 13 L 6.804688 26.636719 L 22.53125 22.636719 L 19.121094 9.011719 Z M 36.730469 23.386719 C 36.699219 23.390625 36.664062 23.390625 36.628906 23.386719 L 23.933594 18.800781 C 23.832031 18.765625 23.757812 18.679688 23.730469 18.574219 L 22.246094 12.628906 C 22.230469 12.566406 22.230469 12.503906 22.246094 12.441406 L 25.441406 3.398438 C 25.472656 3.320312 25.53125 3.253906 25.605469 3.214844 C 25.683594 3.183594 25.769531 3.183594 25.847656 3.214844 L 41.726562 8.949219 C 41.804688 8.976562 41.871094 9.039062 41.90625 9.113281 C 41.945312 9.191406 41.949219 9.28125 41.917969 9.359375 L 37.027344 23.199219 C 36.972656 23.316406 36.859375 23.386719 36.730469 23.386719 Z M 24.308594 18.230469 L 36.539062 22.636719 L 41.21875 9.398438 L 25.941406 3.898438 L 22.886719 12.546875 Z M 24.308594 18.230469 "/>
<path style=" stroke:none;fill-rule:nonzero;fill:rgb(30.980392%,33.72549%,23.137255%);fill-opacity:1;" d="M 37.921875 26.136719 C 37.886719 26.140625 37.851562 26.140625 37.816406 26.136719 L 24.605469 21.273438 C 24.507812 21.242188 24.429688 21.160156 24.402344 21.054688 L 21.324219 8.851562 C 21.304688 8.789062 21.304688 8.722656 21.324219 8.660156 L 24.289062 0.214844 C 24.351562 0.046875 24.535156 -0.0390625 24.699219 0.0195312 L 44.597656 7.203125 C 44.679688 7.234375 44.742188 7.292969 44.78125 7.371094 C 44.8125 7.449219 44.8125 7.539062 44.78125 7.621094 L 38.210938 25.910156 C 38.167969 26.035156 38.054688 26.125 37.921875 26.136719 Z M 24.957031 20.738281 L 37.730469 25.398438 L 44.085938 7.714844 L 24.800781 0.746094 L 21.957031 8.796875 Z M 24.957031 20.738281 "/>
</g>
</svg>
