<?xml version="1.0" encoding="UTF-8"?> <svg xmlns="http://www.w3.org/2000/svg" width="90.63" height="59.53" viewBox="0 0 90.63 59.53"> <defs> <style> .a { fill: #4f563b; } </style> </defs> <g> <g> <path class="a" d="M389.36,414.26a.66.66,0,0,1-.63-.49l-9.47-37.31a.65.65,0,0,1,.47-.79l41.42-10.48a.65.65,0,0,1,.79.47L431.41,403a.64.64,0,0,1-.07.49.65.65,0,0,1-.39.3l-41.43,10.48Zm-8.69-37.5,9.15,36.07L430,402.67l-9.15-36.07Z" transform="translate(-379.24 -354.73)"></path> <path class="a" d="M392.55,409.4a.66.66,0,0,1-.33-.09.62.62,0,0,1-.29-.4l-7.21-28.49a.65.65,0,0,1,.47-.79l33-8.36a.69.69,0,0,1,.49.07.64.64,0,0,1,.3.4l7.21,28.49a.66.66,0,0,1-.47.79l-33.05,8.36Zm-6.42-28.67L393,408l31.8-8-6.89-27.25Z" transform="translate(-379.24 -354.73)"></path> </g> <g> <path class="a" d="M453.52,401.5a.78.78,0,0,1-.21,0l-25.67-9.17a.64.64,0,0,1-.41-.45l-3-11.89a.7.7,0,0,1,0-.38l6.46-18.08a.7.7,0,0,1,.33-.37.64.64,0,0,1,.49,0l32.11,11.47a.64.64,0,0,1,.39.82l-9.89,27.68A.65.65,0,0,1,453.52,401.5ZM428.4,391.19,453.13,400l9.46-26.47-30.89-11-6.18,17.29Z" transform="translate(-379.24 -354.73)"></path> <path class="a" d="M455.93,407a.85.85,0,0,1-.22,0L429,397.28a.62.62,0,0,1-.41-.44l-6.23-24.41a.62.62,0,0,1,0-.38l6-16.89a.65.65,0,0,1,.83-.39l40.24,14.37a.7.7,0,0,1,.37.33.67.67,0,0,1,0,.5l-13.29,36.58A.67.67,0,0,1,455.93,407Zm-26.22-10.79,25.83,9.32,12.85-35.37-39-13.94-5.75,16.1Z" transform="translate(-379.24 -354.73)"></path> </g> </g> </svg> 