<?xml version="1.0" encoding="UTF-8"?>
<svg xmlns="http://www.w3.org/2000/svg" xmlns:xlink="http://www.w3.org/1999/xlink" width="px" height="px" viewBox="0 0 40 37" version="1.1">
<g id="surface1">
<path style=" stroke:none;fill-rule:nonzero;fill:rgb(30.980392%,33.72549%,23.137255%);fill-opacity:1;" d="M 13.789062 37.085938 C 6.175781 37.085938 0 30.828125 0 23.105469 C 0 15.386719 6.175781 9.128906 13.789062 9.128906 C 21.40625 9.128906 27.578125 15.386719 27.578125 23.105469 C 27.570312 30.824219 21.402344 37.078125 13.789062 37.085938 Z M 13.789062 9.78125 C 6.53125 9.78125 0.644531 15.746094 0.644531 23.105469 C 0.644531 30.464844 6.53125 36.433594 13.789062 36.433594 C 21.050781 36.433594 26.933594 30.464844 26.933594 23.105469 C 26.925781 15.75 21.046875 9.789062 13.789062 9.78125 Z M 13.789062 9.78125 "/>
<path style=" stroke:none;fill-rule:nonzero;fill:rgb(30.980392%,33.72549%,23.137255%);fill-opacity:1;" d="M 13.789062 35.648438 C 6.957031 35.648438 1.421875 30.03125 1.421875 23.105469 C 1.421875 16.183594 6.957031 10.566406 13.789062 10.566406 C 20.621094 10.566406 26.160156 16.183594 26.160156 23.105469 C 26.152344 30.027344 20.617188 35.636719 13.789062 35.648438 Z M 13.789062 11.222656 C 7.316406 11.222656 2.066406 16.542969 2.066406 23.105469 C 2.066406 29.671875 7.316406 34.992188 13.789062 34.992188 C 20.265625 34.992188 25.515625 29.671875 25.515625 23.105469 C 25.507812 16.546875 20.261719 11.230469 13.789062 11.222656 Z M 13.789062 11.222656 "/>
<path style=" stroke:none;fill-rule:nonzero;fill:rgb(30.980392%,33.72549%,23.137255%);fill-opacity:1;" d="M 13.789062 32.605469 C 8.613281 32.605469 4.421875 28.351562 4.421875 23.105469 C 4.421875 17.863281 8.613281 13.609375 13.789062 13.609375 C 18.964844 13.609375 23.160156 17.863281 23.160156 23.105469 C 23.152344 28.347656 18.960938 32.597656 13.789062 32.605469 Z M 13.789062 14.261719 C 8.972656 14.261719 5.066406 18.222656 5.066406 23.105469 C 5.066406 27.992188 8.972656 31.953125 13.789062 31.953125 C 18.609375 31.953125 22.515625 27.992188 22.515625 23.105469 C 22.507812 18.226562 18.605469 14.269531 13.789062 14.261719 Z M 38.933594 23.230469 C 38.34375 23.199219 37.828125 22.8125 37.628906 22.25 L 33.339844 12.300781 C 32.875 12.089844 31.410156 11.230469 30.511719 8.523438 C 29.808594 6.433594 29.210938 0.414062 30.203125 0.03125 C 30.488281 -0.0859375 30.75 0.105469 30.960938 0.601562 C 31.066406 0.847656 39.089844 19.457031 39.871094 21.257812 C 40.28125 22.214844 39.90625 22.90625 39.371094 23.132812 C 39.234375 23.191406 39.085938 23.226562 38.933594 23.230469 Z M 30.40625 0.925781 C 30.21875 3.40625 30.460938 5.902344 31.121094 8.296875 C 32.066406 11.140625 33.664062 11.707031 33.683594 11.714844 C 33.769531 11.746094 33.839844 11.8125 33.878906 11.894531 L 38.21875 21.96875 C 38.445312 22.472656 38.855469 22.636719 39.125 22.515625 C 39.394531 22.394531 39.484375 21.980469 39.273438 21.5 Z M 32.59375 25.996094 L 32.488281 25.996094 C 32.1875 25.992188 31.917969 25.808594 31.796875 25.53125 L 25.296875 10.5 C 24.878906 10.636719 24.429688 10.636719 24.015625 10.5 C 23.554688 10.324219 23.1875 9.957031 23.015625 9.488281 L 21.113281 5.078125 C 20.953125 4.753906 20.984375 4.359375 21.195312 4.066406 C 21.417969 3.765625 21.78125 3.609375 22.148438 3.65625 C 22.5 3.691406 22.804688 3.921875 22.941406 4.253906 L 24.074219 6.882812 L 24.136719 6.84375 L 22.980469 4.238281 C 22.847656 3.984375 22.824219 3.6875 22.921875 3.417969 C 23.015625 3.148438 23.21875 2.933594 23.480469 2.824219 C 23.734375 2.722656 24.019531 2.730469 24.269531 2.847656 C 24.515625 2.964844 24.707031 3.179688 24.796875 3.441406 L 25.910156 6.085938 L 25.953125 6.035156 L 24.824219 3.441406 C 24.71875 3.191406 24.710938 2.910156 24.8125 2.65625 C 24.910156 2.40625 25.105469 2.203125 25.355469 2.097656 C 25.597656 1.984375 25.871094 1.980469 26.117188 2.082031 C 26.363281 2.183594 26.554688 2.382812 26.648438 2.636719 L 28.550781 7.039062 C 28.757812 7.472656 28.773438 7.976562 28.59375 8.425781 C 28.375 8.882812 28.011719 9.253906 27.566406 9.484375 L 34.066406 24.511719 C 34.273438 24.992188 33.949219 25.523438 33.285156 25.828125 C 33.070312 25.933594 32.832031 25.988281 32.59375 25.996094 Z M 25.484375 9.777344 C 25.519531 9.769531 25.558594 9.769531 25.59375 9.777344 C 25.675781 9.808594 25.742188 9.871094 25.78125 9.949219 L 32.410156 25.261719 C 32.410156 25.261719 32.410156 25.328125 32.570312 25.34375 C 32.742188 25.351562 32.914062 25.316406 33.070312 25.242188 C 33.378906 25.105469 33.570312 24.886719 33.519531 24.785156 L 26.914062 9.46875 C 26.878906 9.386719 26.878906 9.292969 26.914062 9.210938 C 26.949219 9.128906 27.011719 9.0625 27.09375 9.027344 C 27.507812 8.871094 27.851562 8.566406 28.066406 8.175781 C 28.175781 7.894531 28.160156 7.578125 28.019531 7.3125 L 26.121094 2.902344 C 26.09375 2.8125 26.03125 2.738281 25.945312 2.699219 C 25.859375 2.660156 25.761719 2.664062 25.679688 2.707031 C 25.585938 2.738281 25.515625 2.8125 25.476562 2.902344 C 25.4375 2.996094 25.4375 3.097656 25.480469 3.1875 L 26.609375 5.820312 C 26.671875 5.984375 26.667969 6.171875 26.597656 6.335938 C 26.523438 6.5 26.390625 6.625 26.226562 6.691406 C 26.070312 6.765625 25.894531 6.769531 25.734375 6.707031 C 25.574219 6.648438 25.449219 6.519531 25.386719 6.359375 L 24.253906 3.734375 C 24.144531 3.476562 23.964844 3.371094 23.789062 3.453125 C 23.695312 3.5 23.625 3.589844 23.597656 3.695312 C 23.570312 3.800781 23.585938 3.914062 23.644531 4.003906 L 24.773438 6.628906 C 24.847656 6.785156 24.855469 6.964844 24.792969 7.128906 C 24.730469 7.289062 24.605469 7.417969 24.445312 7.480469 C 24.113281 7.640625 23.714844 7.503906 23.550781 7.171875 L 22.371094 4.566406 C 22.324219 4.449219 22.21875 4.367188 22.09375 4.355469 C 21.957031 4.335938 21.820312 4.390625 21.734375 4.5 C 21.671875 4.609375 21.671875 4.742188 21.734375 4.851562 L 23.636719 9.261719 C 23.738281 9.558594 23.964844 9.796875 24.253906 9.914062 C 24.621094 10.007812 25.007812 9.972656 25.351562 9.808594 C 25.390625 9.777344 25.4375 9.757812 25.484375 9.75 Z M 25.910156 6.085938 Z M 25.910156 6.085938 "/>
</g>
</svg>
