<?xml version="1.0" encoding="UTF-8"?> <svg xmlns="http://www.w3.org/2000/svg" width="80.09" height="73.17" viewBox="0 0 80.09 73.17"> <defs> <style> .a { fill: #4f563b; } </style> </defs> <g> <g> <path class="a" d="M658.76,421.16a27.58,27.58,0,1,1,27.58-27.58A27.61,27.61,0,0,1,658.76,421.16Zm0-53.87a26.29,26.29,0,1,0,26.29,26.29A26.32,26.32,0,0,0,658.76,367.29Z" transform="translate(-631.18 -347.99)"></path> <path class="a" d="M658.76,418.32a24.74,24.74,0,1,1,24.74-24.74A24.77,24.77,0,0,1,658.76,418.32Zm0-48.19a23.45,23.45,0,1,0,23.45,23.45A23.48,23.48,0,0,0,658.76,370.13Z" transform="translate(-631.18 -347.99)"></path> <path class="a" d="M658.76,412.32a18.74,18.74,0,1,1,18.74-18.74A18.77,18.77,0,0,1,658.76,412.32Zm0-36.19a17.45,17.45,0,1,0,17.45,17.45A17.47,17.47,0,0,0,658.76,376.13Z" transform="translate(-631.18 -347.99)"></path> </g> <path class="a" d="M709.05,393.82a2.92,2.92,0,0,1-2.61-1.93l-8.58-19.63c-.93-.42-3.86-2.11-5.66-7.45-1.4-4.13-2.6-16-.61-16.76.57-.23,1.09.15,1.51,1.13.21.48,16.26,37.2,17.82,40.75h0c.82,1.89.07,3.25-1,3.7A2.3,2.3,0,0,1,709.05,393.82Zm-17.06-44a42.2,42.2,0,0,0,1.43,14.54c1.89,5.61,5.09,6.73,5.13,6.74a.69.69,0,0,1,.39.36l8.68,19.87c.45,1,1.27,1.32,1.81,1.08s.72-1.05.3-2h0Z" transform="translate(-631.18 -347.99)"></path> <path class="a" d="M696.37,399.28h-.21a1.55,1.55,0,0,1-1.39-.92l-13-29.65a4.15,4.15,0,0,1-2.56,0,3.42,3.42,0,0,1-2-2l-3.8-8.7a1.92,1.92,0,0,1,.16-2,2.1,2.1,0,0,1,1.91-.81,1.93,1.93,0,0,1,1.58,1.18l2.27,5.19s.09-.06.12-.08l-2.31-5.14a2,2,0,0,1,1-2.79,2,2,0,0,1,2.63,1.22L683,360l.09-.1-2.26-5.12a2,2,0,0,1,1.06-2.65,1.91,1.91,0,0,1,2.59,1.06l3.8,8.69a3.35,3.35,0,0,1,.09,2.73,4.61,4.61,0,0,1-2.06,2.09l13,29.65c.42.95-.23,2-1.56,2.6A3.52,3.52,0,0,1,696.37,399.28Zm-14.22-32a.6.6,0,0,1,.22,0,.65.65,0,0,1,.37.34L696,397.83s0,.13.32.16a2.13,2.13,0,0,0,1-.2c.62-.27,1-.7.9-.9l-13.21-30.22a.65.65,0,0,1,0-.51.67.67,0,0,1,.36-.36,3.71,3.71,0,0,0,1.94-1.68,2,2,0,0,0-.09-1.7l-3.8-8.7a.62.62,0,0,0-.88-.39.7.7,0,0,0-.4.95l2.26,5.19a1.33,1.33,0,0,1-.77,1.72,1.24,1.24,0,0,1-1.68-.65l-2.26-5.18c-.22-.51-.58-.72-.93-.56a.76.76,0,0,0-.29,1.09l2.26,5.18a1.23,1.23,0,0,1-.66,1.68,1.35,1.35,0,0,1-1.79-.61L675.92,357a.66.66,0,0,0-.55-.42.8.8,0,0,0-.72.29.67.67,0,0,0,0,.69l3.8,8.7a2.17,2.17,0,0,0,1.24,1.29,3.23,3.23,0,0,0,2.19-.21A.59.59,0,0,1,682.15,367.23ZM683,360h0Z" transform="translate(-631.18 -347.99)"></path> </g> </svg> 