<?xml version="1.0" encoding="UTF-8"?>
<svg xmlns="http://www.w3.org/2000/svg" xmlns:xlink="http://www.w3.org/1999/xlink" width="px" height="px" viewBox="0 0 19 18" version="1.1">
<g id="surface1">
<path style=" stroke:none;fill-rule:nonzero;fill:rgb(30.980392%,33.72549%,23.137255%);fill-opacity:1;" d="M 6.550781 18.042969 C 2.933594 18.042969 0 14.996094 0 11.242188 C 0 7.484375 2.933594 4.441406 6.550781 4.441406 C 10.167969 4.441406 13.101562 7.484375 13.101562 11.242188 C 13.097656 14.996094 10.167969 18.039062 6.550781 18.042969 Z M 6.550781 4.757812 C 3.101562 4.757812 0.304688 7.660156 0.304688 11.242188 C 0.304688 14.820312 3.101562 17.722656 6.550781 17.722656 C 10 17.722656 12.792969 14.820312 12.792969 11.242188 C 12.789062 7.664062 9.996094 4.761719 6.550781 4.757812 Z M 6.550781 4.757812 "/>
<path style=" stroke:none;fill-rule:nonzero;fill:rgb(30.980392%,33.72549%,23.137255%);fill-opacity:1;" d="M 6.550781 17.339844 C 3.304688 17.339844 0.675781 14.609375 0.675781 11.242188 C 0.675781 7.871094 3.304688 5.140625 6.550781 5.140625 C 9.796875 5.140625 12.425781 7.871094 12.425781 11.242188 C 12.421875 14.609375 9.792969 17.335938 6.550781 17.339844 Z M 6.550781 5.460938 C 3.472656 5.460938 0.980469 8.046875 0.980469 11.242188 C 0.980469 14.433594 3.472656 17.023438 6.550781 17.023438 C 9.625 17.023438 12.121094 14.433594 12.121094 11.242188 C 12.117188 8.050781 9.625 5.464844 6.550781 5.460938 Z M 6.550781 5.460938 "/>
<path style=" stroke:none;fill-rule:nonzero;fill:rgb(30.980392%,33.72549%,23.137255%);fill-opacity:1;" d="M 6.550781 15.863281 C 4.09375 15.863281 2.097656 13.792969 2.097656 11.242188 C 2.097656 8.6875 4.09375 6.621094 6.550781 6.621094 C 9.007812 6.621094 11 8.6875 11 11.242188 C 10.996094 13.792969 9.007812 15.859375 6.550781 15.863281 Z M 6.550781 6.9375 C 4.261719 6.9375 2.40625 8.863281 2.40625 11.242188 C 2.40625 13.617188 4.261719 15.542969 6.550781 15.542969 C 8.839844 15.542969 10.695312 13.617188 10.695312 11.242188 C 10.691406 8.867188 8.839844 6.941406 6.550781 6.9375 Z M 6.550781 6.9375 "/>
<path style=" stroke:none;fill-rule:nonzero;fill:rgb(30.980392%,33.72549%,23.137255%);fill-opacity:1;" d="M 18.492188 11.300781 C 18.214844 11.285156 17.96875 11.097656 17.875 10.824219 L 15.835938 5.984375 C 15.617188 5.878906 14.917969 5.464844 14.492188 4.148438 C 14.160156 3.128906 13.875 0.203125 14.347656 0.015625 C 14.484375 -0.0429688 14.605469 0.0507812 14.707031 0.292969 C 14.757812 0.410156 18.566406 9.464844 18.9375 10.339844 C 19.132812 10.808594 18.953125 11.144531 18.699219 11.253906 C 18.636719 11.28125 18.566406 11.300781 18.492188 11.300781 Z M 14.441406 0.453125 C 14.355469 1.65625 14.46875 2.871094 14.78125 4.035156 C 15.230469 5.417969 15.992188 5.695312 16 5.699219 C 16.042969 5.714844 16.074219 5.746094 16.09375 5.789062 L 18.15625 10.6875 C 18.261719 10.933594 18.457031 11.011719 18.585938 10.953125 C 18.710938 10.894531 18.753906 10.695312 18.65625 10.460938 Z M 14.441406 0.453125 "/>
<path style=" stroke:none;fill-rule:nonzero;fill:rgb(30.980392%,33.72549%,23.137255%);fill-opacity:1;" d="M 15.484375 12.648438 L 15.433594 12.648438 C 15.289062 12.644531 15.160156 12.554688 15.101562 12.421875 L 12.015625 5.109375 C 11.816406 5.175781 11.605469 5.175781 11.40625 5.109375 C 11.1875 5.023438 11.015625 4.84375 10.933594 4.617188 L 10.03125 2.46875 C 9.953125 2.3125 9.964844 2.121094 10.066406 1.976562 C 10.175781 1.832031 10.347656 1.757812 10.519531 1.777344 C 10.6875 1.796875 10.832031 1.90625 10.898438 2.070312 L 11.4375 3.347656 C 11.4375 3.347656 11.457031 3.332031 11.464844 3.328125 L 10.914062 2.0625 C 10.851562 1.9375 10.84375 1.792969 10.886719 1.664062 C 10.933594 1.53125 11.027344 1.425781 11.152344 1.375 C 11.273438 1.324219 11.410156 1.328125 11.527344 1.382812 C 11.644531 1.441406 11.734375 1.546875 11.777344 1.675781 L 12.308594 2.960938 L 12.328125 2.9375 L 11.792969 1.675781 C 11.742188 1.554688 11.738281 1.414062 11.785156 1.292969 C 11.832031 1.167969 11.925781 1.070312 12.042969 1.019531 C 12.15625 0.964844 12.289062 0.960938 12.40625 1.011719 C 12.523438 1.0625 12.613281 1.160156 12.660156 1.28125 L 13.5625 3.425781 C 13.660156 3.636719 13.667969 3.878906 13.582031 4.097656 C 13.476562 4.320312 13.304688 4.5 13.09375 4.613281 L 16.179688 11.925781 C 16.28125 12.160156 16.125 12.417969 15.808594 12.566406 C 15.707031 12.617188 15.597656 12.644531 15.484375 12.648438 Z M 12.105469 4.757812 C 12.121094 4.753906 12.140625 4.753906 12.15625 4.757812 C 12.195312 4.769531 12.226562 4.800781 12.246094 4.839844 L 15.394531 12.289062 C 15.394531 12.289062 15.394531 12.320312 15.472656 12.328125 C 15.550781 12.332031 15.632812 12.316406 15.707031 12.28125 C 15.855469 12.210938 15.945312 12.105469 15.921875 12.058594 L 12.785156 4.605469 C 12.769531 4.566406 12.769531 4.519531 12.785156 4.480469 C 12.800781 4.441406 12.832031 4.410156 12.871094 4.390625 C 13.066406 4.316406 13.230469 4.167969 13.332031 3.976562 C 13.382812 3.839844 13.375 3.6875 13.308594 3.558594 L 12.40625 1.414062 C 12.394531 1.367188 12.363281 1.332031 12.324219 1.3125 C 12.285156 1.292969 12.238281 1.296875 12.199219 1.316406 C 12.152344 1.332031 12.117188 1.367188 12.101562 1.414062 C 12.082031 1.457031 12.082031 1.507812 12.101562 1.550781 L 12.640625 2.832031 C 12.667969 2.910156 12.667969 3.003906 12.632812 3.082031 C 12.597656 3.160156 12.535156 3.222656 12.457031 3.253906 C 12.382812 3.289062 12.300781 3.292969 12.222656 3.265625 C 12.148438 3.234375 12.089844 3.171875 12.058594 3.09375 L 11.519531 1.816406 C 11.46875 1.691406 11.382812 1.640625 11.300781 1.679688 C 11.253906 1.703125 11.222656 1.746094 11.207031 1.796875 C 11.195312 1.847656 11.203125 1.902344 11.230469 1.949219 L 11.769531 3.226562 C 11.804688 3.300781 11.808594 3.390625 11.777344 3.46875 C 11.746094 3.546875 11.6875 3.609375 11.613281 3.640625 C 11.453125 3.71875 11.265625 3.652344 11.1875 3.488281 L 10.625 2.222656 C 10.605469 2.164062 10.554688 2.125 10.496094 2.117188 C 10.429688 2.109375 10.367188 2.136719 10.324219 2.191406 C 10.292969 2.242188 10.292969 2.308594 10.324219 2.359375 L 11.226562 4.503906 C 11.277344 4.648438 11.382812 4.765625 11.519531 4.824219 C 11.695312 4.871094 11.878906 4.851562 12.042969 4.769531 C 12.058594 4.757812 12.082031 4.746094 12.105469 4.742188 Z M 12.308594 2.960938 Z M 12.308594 2.960938 "/>
</g>
</svg>
