<?xml version="1.0" encoding="UTF-8"?>
<svg xmlns="http://www.w3.org/2000/svg" xmlns:xlink="http://www.w3.org/1999/xlink" width="px" height="px" viewBox="0 0 28 30" version="1.1">
<g id="surface1">
<path style=" stroke:none;fill-rule:nonzero;fill:rgb(30.980392%,33.72549%,23.137255%);fill-opacity:1;" d="M 27.507812 30.25 L 0.324219 30.25 C 0.238281 30.25 0.152344 30.214844 0.0898438 30.152344 C 0.03125 30.089844 -0.00390625 30.003906 0 29.914062 C 0.0273438 28.941406 0.289062 20.371094 1.597656 18.976562 C 3.925781 16.511719 9.484375 15.628906 13.914062 15.628906 C 16.804688 15.628906 25.359375 16.261719 26.746094 19.058594 C 27.625 20.816406 27.828125 29.542969 27.832031 29.914062 C 27.835938 30.003906 27.804688 30.089844 27.742188 30.152344 C 27.679688 30.214844 27.59375 30.25 27.507812 30.25 Z M 0.667969 29.613281 L 27.171875 29.613281 C 27.097656 26.910156 26.804688 20.664062 26.152344 19.367188 C 25.132812 17.277344 18.234375 16.316406 13.933594 16.316406 C 9.632812 16.316406 4.261719 17.140625 2.097656 19.460938 C 1.246094 20.3125 0.785156 25.867188 0.667969 29.613281 Z M 0.667969 29.613281 "/>
<path style=" stroke:none;fill-rule:nonzero;fill:rgb(30.980392%,33.72549%,23.137255%);fill-opacity:1;" d="M 25.542969 22.195312 C 24.355469 22.113281 23.269531 21.515625 22.566406 20.558594 C 21.957031 21.007812 21.199219 21.21875 20.445312 21.140625 C 19.382812 20.96875 18.40625 20.449219 17.671875 19.664062 C 16.769531 20.765625 15.773438 21.332031 14.703125 21.332031 C 13.214844 21.332031 12.03125 20.253906 11.511719 19.683594 C 10.933594 20.511719 10.039062 21.066406 9.042969 21.207031 C 7.871094 21.265625 6.71875 20.890625 5.808594 20.152344 C 5.328125 21.058594 4.511719 21.742188 3.53125 22.058594 C 2.648438 22.285156 1.710938 22.164062 0.910156 21.726562 C 0.792969 21.65625 0.730469 21.515625 0.757812 21.382812 C 0.996094 20.105469 1.269531 19.347656 1.609375 18.976562 C 3.933594 16.511719 9.496094 15.628906 13.921875 15.628906 C 16.816406 15.628906 25.367188 16.261719 26.757812 19.058594 C 27.035156 19.816406 27.207031 20.605469 27.265625 21.410156 C 27.285156 21.542969 27.222656 21.667969 27.109375 21.738281 C 26.636719 22.027344 26.09375 22.1875 25.542969 22.195312 Z M 22.628906 19.765625 L 22.675781 19.765625 C 22.769531 19.777344 22.851562 19.828125 22.902344 19.90625 C 22.96875 20.007812 24.539062 22.296875 26.59375 21.269531 C 26.539062 20.609375 26.390625 19.960938 26.152344 19.34375 C 25.132812 17.253906 18.234375 16.292969 13.933594 16.292969 C 9.632812 16.292969 4.261719 17.117188 2.097656 19.433594 C 1.96875 19.566406 1.722656 19.988281 1.460938 21.265625 C 2.0625 21.535156 2.738281 21.597656 3.375 21.433594 C 4.300781 21.101562 5.046875 20.402344 5.4375 19.5 C 5.484375 19.410156 5.570312 19.347656 5.671875 19.332031 C 5.773438 19.3125 5.875 19.34375 5.953125 19.414062 C 5.953125 19.414062 7.417969 20.734375 8.980469 20.5625 C 9.929688 20.398438 10.753906 19.816406 11.226562 18.976562 C 11.285156 18.886719 11.382812 18.832031 11.488281 18.828125 C 11.597656 18.820312 11.703125 18.871094 11.765625 18.960938 C 11.765625 18.960938 13.074219 20.679688 14.710938 20.679688 C 15.660156 20.679688 16.5625 20.101562 17.394531 18.960938 C 17.457031 18.878906 17.550781 18.832031 17.648438 18.828125 C 17.753906 18.828125 17.851562 18.871094 17.914062 18.949219 C 17.914062 18.949219 19.074219 20.359375 20.519531 20.476562 C 21.222656 20.53125 21.914062 20.296875 22.4375 19.824219 C 22.492188 19.785156 22.558594 19.765625 22.628906 19.765625 Z M 27.3125 25.769531 L 27.226562 25.769531 C 13.796875 22.152344 0.808594 25.484375 0.683594 25.519531 C 0.515625 25.546875 0.355469 25.441406 0.3125 25.277344 C 0.269531 25.113281 0.355469 24.945312 0.515625 24.882812 C 0.648438 24.847656 13.800781 21.472656 27.398438 25.132812 C 27.484375 25.15625 27.554688 25.210938 27.597656 25.285156 C 27.640625 25.363281 27.652344 25.453125 27.628906 25.535156 C 27.589844 25.675781 27.460938 25.773438 27.3125 25.769531 Z M 22.996094 11.816406 C 22.082031 11.761719 21.238281 11.3125 20.683594 10.585938 C 20.207031 10.917969 19.628906 11.066406 19.050781 11.011719 C 18.238281 10.886719 17.488281 10.5 16.917969 9.910156 C 16.375 10.648438 15.53125 11.105469 14.617188 11.15625 C 13.667969 11.085938 12.785156 10.644531 12.15625 9.929688 C 11.703125 10.546875 11.015625 10.953125 10.257812 11.058594 C 9.359375 11.113281 8.476562 10.835938 7.769531 10.28125 C 7.382812 10.960938 6.757812 11.472656 6.011719 11.710938 C 5.304688 11.890625 4.558594 11.796875 3.921875 11.445312 C 3.800781 11.375 3.738281 11.238281 3.765625 11.105469 C 3.832031 10.429688 4.066406 9.78125 4.445312 9.21875 C 6.257812 7.308594 10.554688 6.625 14.019531 6.625 C 16.261719 6.625 22.914062 7.132812 24.003906 9.300781 C 24.230469 9.886719 24.375 10.503906 24.425781 11.128906 C 24.441406 11.261719 24.382812 11.386719 24.269531 11.457031 C 23.886719 11.691406 23.445312 11.816406 22.996094 11.816406 Z M 20.75 9.78125 L 20.796875 9.78125 C 20.886719 9.796875 20.96875 9.847656 21.019531 9.925781 C 21.070312 10 22.226562 11.667969 23.734375 10.972656 C 23.691406 10.492188 23.582031 10.019531 23.40625 9.570312 C 22.617188 7.992188 17.335938 7.261719 14.011719 7.261719 C 10.6875 7.261719 6.582031 7.886719 4.914062 9.652344 C 4.660156 10.042969 4.5 10.492188 4.449219 10.957031 C 4.886719 11.140625 5.371094 11.171875 5.828125 11.054688 C 6.515625 10.804688 7.070312 10.285156 7.355469 9.617188 C 7.402344 9.523438 7.488281 9.460938 7.589844 9.445312 C 7.6875 9.425781 7.789062 9.457031 7.867188 9.523438 C 7.867188 9.523438 8.976562 10.539062 10.152344 10.386719 C 10.863281 10.265625 11.480469 9.832031 11.832031 9.203125 C 11.890625 9.117188 11.988281 9.0625 12.097656 9.054688 C 12.203125 9.054688 12.304688 9.101562 12.371094 9.1875 C 12.371094 9.1875 13.359375 10.480469 14.585938 10.480469 C 15.292969 10.480469 15.96875 10.042969 16.621094 9.191406 C 16.683594 9.113281 16.773438 9.0625 16.875 9.054688 C 16.976562 9.058594 17.074219 9.105469 17.140625 9.179688 C 17.644531 9.777344 18.335938 10.1875 19.105469 10.335938 C 19.625 10.378906 20.140625 10.207031 20.53125 9.859375 C 20.59375 9.816406 20.671875 9.796875 20.75 9.808594 Z M 20.75 9.78125 "/>
<path style=" stroke:none;fill-rule:nonzero;fill:rgb(30.980392%,33.72549%,23.137255%);fill-opacity:1;" d="M 3.507812 18.292969 C 3.445312 18.292969 3.386719 18.277344 3.335938 18.242188 C 3.234375 18.183594 3.171875 18.074219 3.175781 17.953125 C 3.234375 16.160156 3.476562 10.230469 4.433594 9.222656 C 6.246094 7.3125 10.542969 6.628906 14.011719 6.628906 C 16.25 6.628906 22.902344 7.140625 23.992188 9.304688 C 24.640625 10.589844 24.8125 16.488281 24.84375 17.660156 C 24.84375 17.773438 24.789062 17.878906 24.695312 17.945312 C 24.601562 18.007812 24.484375 18.019531 24.378906 17.972656 C 21.773438 16.816406 17.125 16.285156 13.914062 16.285156 C 12.386719 16.285156 7.03125 16.429688 3.660156 18.253906 C 3.613281 18.28125 3.5625 18.292969 3.507812 18.292969 Z M 14.011719 7.285156 C 10.707031 7.285156 6.582031 7.910156 4.914062 9.675781 C 4.351562 10.265625 3.980469 14 3.855469 17.421875 C 7.355469 15.761719 12.394531 15.628906 13.914062 15.628906 C 17.007812 15.628906 21.417969 16.140625 24.171875 17.179688 C 24.09375 14.566406 23.859375 10.5 23.40625 9.59375 C 22.628906 8.019531 17.335938 7.285156 14.011719 7.285156 Z M 14.011719 7.285156 "/>
<path style=" stroke:none;fill-rule:nonzero;fill:rgb(30.980392%,33.72549%,23.137255%);fill-opacity:1;" d="M 24.277344 14.652344 L 24.195312 14.652344 C 13.660156 11.882812 4.015625 14.625 3.925781 14.652344 C 3.839844 14.679688 3.75 14.671875 3.671875 14.628906 C 3.597656 14.585938 3.539062 14.515625 3.519531 14.429688 C 3.492188 14.347656 3.5 14.257812 3.542969 14.179688 C 3.582031 14.105469 3.652344 14.046875 3.738281 14.023438 C 3.839844 14 13.644531 11.207031 24.363281 14.023438 C 24.519531 14.070312 24.617188 14.222656 24.59375 14.382812 C 24.574219 14.542969 24.441406 14.664062 24.277344 14.667969 Z M 20.46875 3.921875 C 19.816406 3.882812 19.203125 3.570312 18.789062 3.0625 C 18.445312 3.28125 18.03125 3.378906 17.625 3.335938 C 17.050781 3.25 16.515625 2.988281 16.097656 2.582031 C 15.699219 3.097656 15.089844 3.414062 14.4375 3.441406 C 13.765625 3.398438 13.136719 3.097656 12.675781 2.601562 C 12.339844 3.023438 11.851562 3.296875 11.316406 3.371094 C 10.683594 3.414062 10.054688 3.234375 9.539062 2.863281 C 9.253906 3.332031 8.804688 3.679688 8.277344 3.84375 C 7.746094 3.984375 7.183594 3.914062 6.703125 3.644531 C 6.582031 3.578125 6.519531 3.441406 6.546875 3.304688 C 6.582031 2.800781 6.757812 2.3125 7.054688 1.902344 C 8.378906 0.507812 11.511719 0.0117188 14.003906 0.0117188 C 15.75 0.0117188 20.457031 0.367188 21.265625 1.984375 C 21.433594 2.414062 21.542969 2.867188 21.582031 3.332031 C 21.597656 3.460938 21.53125 3.589844 21.417969 3.65625 C 21.132812 3.828125 20.804688 3.917969 20.46875 3.921875 Z M 18.855469 2.28125 L 18.902344 2.28125 C 18.992188 2.292969 19.074219 2.34375 19.125 2.421875 C 19.164062 2.472656 19.914062 3.558594 20.898438 3.167969 C 20.863281 2.855469 20.792969 2.550781 20.683594 2.257812 C 20.175781 1.210938 16.46875 0.652344 14.011719 0.652344 C 11.761719 0.652344 8.714844 1.09375 7.535156 2.339844 C 7.378906 2.585938 7.277344 2.867188 7.246094 3.15625 C 7.519531 3.257812 7.820312 3.273438 8.105469 3.199219 C 8.578125 3.023438 8.957031 2.667969 9.160156 2.207031 C 9.207031 2.117188 9.292969 2.054688 9.390625 2.039062 C 9.492188 2.023438 9.59375 2.050781 9.667969 2.121094 C 10.101562 2.503906 10.660156 2.71875 11.242188 2.714844 C 11.722656 2.628906 12.144531 2.332031 12.382812 1.902344 C 12.441406 1.8125 12.539062 1.761719 12.644531 1.757812 C 12.75 1.761719 12.847656 1.808594 12.914062 1.886719 C 12.914062 1.886719 13.601562 2.78125 14.441406 2.78125 C 15.015625 2.71875 15.527344 2.386719 15.816406 1.890625 C 15.875 1.808594 15.96875 1.757812 16.070312 1.757812 C 16.171875 1.757812 16.265625 1.800781 16.332031 1.875 C 16.683594 2.285156 17.160156 2.5625 17.691406 2.664062 C 18.039062 2.691406 18.386719 2.574219 18.648438 2.339844 C 18.707031 2.296875 18.78125 2.277344 18.855469 2.28125 Z M 18.855469 2.28125 "/>
<path style=" stroke:none;fill-rule:nonzero;fill:rgb(30.980392%,33.72549%,23.137255%);fill-opacity:1;" d="M 21.441406 5.714844 L 21.339844 5.714844 C 14.632812 3.5 6.792969 5.714844 6.714844 5.714844 C 6.597656 5.765625 6.460938 5.742188 6.367188 5.65625 C 6.269531 5.574219 6.234375 5.441406 6.269531 5.320312 C 6.304688 5.195312 6.40625 5.105469 6.53125 5.085938 C 6.613281 5.058594 14.640625 2.808594 21.550781 5.085938 C 21.703125 5.132812 21.800781 5.289062 21.773438 5.449219 C 21.746094 5.609375 21.605469 5.726562 21.441406 5.71875 Z M 21.441406 5.714844 "/>
<path style=" stroke:none;fill-rule:nonzero;fill:rgb(30.980392%,33.72549%,23.137255%);fill-opacity:1;" d="M 6.480469 8.574219 L 6.414062 8.574219 C 6.253906 8.542969 6.132812 8.402344 6.128906 8.238281 C 6.179688 6.570312 6.375 2.644531 7.0625 1.898438 C 8.382812 0.503906 11.515625 0.00390625 14.011719 0.00390625 C 15.757812 0.00390625 20.460938 0.359375 21.269531 1.976562 C 21.742188 2.921875 21.871094 7.179688 21.890625 8.023438 C 21.894531 8.132812 21.84375 8.234375 21.753906 8.296875 C 21.667969 8.359375 21.554688 8.378906 21.453125 8.34375 C 19.375 7.621094 16.136719 7.292969 14.011719 7.292969 C 12.9375 7.292969 9.226562 7.382812 6.613281 8.546875 C 6.570312 8.566406 6.527344 8.574219 6.480469 8.574219 Z M 14.011719 0.65625 C 11.761719 0.65625 8.714844 1.097656 7.535156 2.34375 C 7.214844 2.683594 6.914062 4.921875 6.800781 7.753906 C 9.484375 6.738281 12.960938 6.628906 14.011719 6.628906 C 16.445312 6.628906 18.867188 6.945312 21.21875 7.578125 C 21.152344 5.320312 20.960938 2.816406 20.683594 2.261719 C 20.160156 1.214844 16.46875 0.65625 14.011719 0.65625 Z M 14.011719 0.65625 "/>
</g>
</svg>
