<?xml version="1.0" encoding="UTF-8"?>
<svg xmlns="http://www.w3.org/2000/svg" xmlns:xlink="http://www.w3.org/1999/xlink" width="px" height="px" viewBox="0 0 14 15" version="1.1">
<g id="surface1">
<path style=" stroke:none;fill-rule:nonzero;fill:rgb(30.980392%,33.72549%,23.137255%);fill-opacity:1;" d="M 13.753906 15.125 L 0.164062 15.125 C 0.117188 15.125 0.078125 15.105469 0.046875 15.078125 C 0.015625 15.042969 0 15 0 14.957031 C 0.0117188 14.472656 0.144531 10.183594 0.800781 9.488281 C 1.960938 8.253906 4.742188 7.816406 6.957031 7.816406 C 8.402344 7.816406 12.679688 8.128906 13.375 9.527344 C 13.8125 10.410156 13.914062 14.769531 13.914062 14.957031 C 13.917969 15 13.902344 15.042969 13.871094 15.078125 C 13.839844 15.105469 13.796875 15.125 13.753906 15.125 Z M 0.332031 14.808594 L 13.585938 14.808594 C 13.550781 13.453125 13.402344 10.332031 13.074219 9.683594 C 12.566406 8.640625 9.117188 8.160156 6.96875 8.160156 C 4.816406 8.160156 2.128906 8.570312 1.046875 9.730469 C 0.625 10.15625 0.390625 12.933594 0.332031 14.808594 Z M 0.332031 14.808594 "/>
<path style=" stroke:none;fill-rule:nonzero;fill:rgb(30.980392%,33.72549%,23.137255%);fill-opacity:1;" d="M 12.769531 11.097656 C 12.179688 11.054688 11.632812 10.757812 11.285156 10.277344 C 10.980469 10.503906 10.601562 10.609375 10.222656 10.570312 C 9.691406 10.484375 9.203125 10.226562 8.835938 9.832031 C 8.382812 10.382812 7.886719 10.664062 7.351562 10.664062 C 6.609375 10.664062 6.015625 10.125 5.753906 9.839844 C 5.46875 10.257812 5.019531 10.53125 4.519531 10.605469 C 3.933594 10.632812 3.359375 10.445312 2.90625 10.074219 C 2.664062 10.53125 2.253906 10.871094 1.765625 11.027344 C 1.324219 11.140625 0.855469 11.082031 0.457031 10.863281 C 0.394531 10.828125 0.367188 10.757812 0.378906 10.691406 C 0.5 10.050781 0.632812 9.671875 0.804688 9.488281 C 1.96875 8.253906 4.746094 7.816406 6.960938 7.816406 C 8.40625 7.816406 12.683594 8.128906 13.378906 9.527344 C 13.519531 9.90625 13.605469 10.304688 13.632812 10.707031 C 13.640625 10.769531 13.609375 10.835938 13.554688 10.867188 C 13.320312 11.015625 13.046875 11.09375 12.769531 11.097656 Z M 11.316406 9.882812 L 11.335938 9.882812 C 11.382812 9.886719 11.425781 9.914062 11.453125 9.953125 C 11.484375 10.003906 12.269531 11.148438 13.296875 10.632812 C 13.269531 10.304688 13.195312 9.980469 13.074219 9.671875 C 12.566406 8.625 9.117188 8.144531 6.96875 8.144531 C 4.816406 8.144531 2.128906 8.558594 1.046875 9.71875 C 0.984375 9.78125 0.859375 9.992188 0.730469 10.632812 C 1.03125 10.769531 1.367188 10.796875 1.6875 10.714844 C 2.148438 10.550781 2.523438 10.199219 2.71875 9.75 C 2.742188 9.703125 2.785156 9.671875 2.835938 9.667969 C 2.886719 9.65625 2.9375 9.671875 2.976562 9.707031 C 2.976562 9.707031 3.707031 10.367188 4.488281 10.28125 C 4.964844 10.199219 5.378906 9.90625 5.613281 9.488281 C 5.640625 9.445312 5.691406 9.417969 5.746094 9.414062 C 5.800781 9.410156 5.851562 9.4375 5.882812 9.480469 C 5.882812 9.480469 6.535156 10.339844 7.355469 10.339844 C 7.828125 10.339844 8.28125 10.050781 8.699219 9.480469 C 8.726562 9.441406 8.773438 9.414062 8.824219 9.414062 C 8.875 9.414062 8.925781 9.4375 8.957031 9.476562 C 8.957031 9.476562 9.539062 10.179688 10.261719 10.238281 C 10.609375 10.265625 10.957031 10.148438 11.21875 9.914062 C 11.246094 9.894531 11.28125 9.882812 11.316406 9.882812 Z M 11.316406 9.882812 "/>
<path style=" stroke:none;fill-rule:nonzero;fill:rgb(30.980392%,33.72549%,23.137255%);fill-opacity:1;" d="M 13.65625 12.882812 L 13.613281 12.882812 C 6.898438 11.078125 0.40625 12.742188 0.339844 12.761719 C 0.257812 12.773438 0.175781 12.722656 0.15625 12.640625 C 0.132812 12.558594 0.179688 12.472656 0.257812 12.441406 C 0.324219 12.425781 6.902344 10.738281 13.699219 12.566406 C 13.742188 12.578125 13.777344 12.605469 13.796875 12.644531 C 13.820312 12.679688 13.824219 12.726562 13.8125 12.769531 C 13.792969 12.839844 13.730469 12.886719 13.65625 12.882812 Z M 13.65625 12.882812 "/>
<path style=" stroke:none;fill-rule:nonzero;fill:rgb(30.980392%,33.72549%,23.137255%);fill-opacity:1;" d="M 11.496094 5.910156 C 11.042969 5.878906 10.621094 5.65625 10.34375 5.292969 C 10.105469 5.457031 9.8125 5.535156 9.523438 5.507812 C 9.121094 5.441406 8.746094 5.25 8.457031 4.957031 C 8.1875 5.324219 7.765625 5.554688 7.308594 5.578125 C 6.832031 5.542969 6.390625 5.324219 6.078125 4.964844 C 5.851562 5.273438 5.507812 5.476562 5.128906 5.53125 C 4.679688 5.554688 4.238281 5.417969 3.882812 5.140625 C 3.691406 5.480469 3.378906 5.734375 3.007812 5.855469 C 2.652344 5.945312 2.28125 5.898438 1.960938 5.722656 C 1.902344 5.6875 1.871094 5.621094 1.882812 5.550781 C 1.914062 5.214844 2.03125 4.890625 2.222656 4.609375 C 3.128906 3.652344 5.277344 3.3125 7.011719 3.3125 C 8.128906 3.3125 11.457031 3.566406 12 4.648438 C 12.117188 4.941406 12.1875 5.25 12.214844 5.566406 C 12.222656 5.628906 12.191406 5.695312 12.132812 5.726562 C 11.941406 5.84375 11.722656 5.90625 11.496094 5.910156 Z M 10.375 4.890625 L 10.398438 4.890625 C 10.445312 4.898438 10.484375 4.925781 10.511719 4.960938 C 10.535156 5 11.113281 5.835938 11.867188 5.488281 C 11.84375 5.246094 11.789062 5.011719 11.703125 4.785156 C 11.308594 3.996094 8.667969 3.628906 7.003906 3.628906 C 5.34375 3.628906 3.292969 3.941406 2.457031 4.824219 C 2.328125 5.023438 2.25 5.246094 2.226562 5.480469 C 2.441406 5.570312 2.683594 5.585938 2.914062 5.527344 C 3.257812 5.402344 3.535156 5.144531 3.679688 4.808594 C 3.703125 4.761719 3.746094 4.730469 3.792969 4.722656 C 3.84375 4.714844 3.894531 4.726562 3.933594 4.761719 C 3.933594 4.761719 4.488281 5.269531 5.074219 5.195312 C 5.429688 5.132812 5.738281 4.914062 5.914062 4.601562 C 5.945312 4.558594 5.996094 4.53125 6.046875 4.527344 C 6.101562 4.527344 6.152344 4.550781 6.183594 4.59375 C 6.183594 4.59375 6.679688 5.238281 7.292969 5.238281 C 7.648438 5.238281 7.984375 5.019531 8.3125 4.597656 C 8.339844 4.554688 8.386719 4.53125 8.4375 4.527344 C 8.488281 4.53125 8.535156 4.550781 8.570312 4.589844 C 8.820312 4.890625 9.167969 5.09375 9.554688 5.167969 C 9.8125 5.191406 10.070312 5.105469 10.265625 4.929688 C 10.296875 4.90625 10.335938 4.898438 10.375 4.902344 Z M 10.375 4.890625 "/>
<path style=" stroke:none;fill-rule:nonzero;fill:rgb(30.980392%,33.72549%,23.137255%);fill-opacity:1;" d="M 1.753906 9.148438 C 1.722656 9.148438 1.691406 9.136719 1.667969 9.121094 C 1.617188 9.089844 1.585938 9.035156 1.589844 8.976562 C 1.617188 8.078125 1.738281 5.117188 2.21875 4.613281 C 3.125 3.65625 5.273438 3.316406 7.003906 3.316406 C 8.125 3.316406 11.453125 3.570312 11.996094 4.652344 C 12.320312 5.296875 12.40625 8.246094 12.421875 8.828125 C 12.421875 8.886719 12.394531 8.941406 12.347656 8.972656 C 12.300781 9.003906 12.242188 9.007812 12.191406 8.988281 C 10.886719 8.40625 8.5625 8.144531 6.957031 8.144531 C 6.191406 8.144531 3.515625 8.214844 1.832031 9.128906 C 1.808594 9.140625 1.78125 9.148438 1.753906 9.148438 Z M 7.003906 3.644531 C 5.351562 3.644531 3.292969 3.957031 2.457031 4.839844 C 2.175781 5.132812 1.992188 7 1.925781 8.710938 C 3.679688 7.882812 6.199219 7.816406 6.957031 7.816406 C 8.503906 7.816406 10.707031 8.070312 12.085938 8.589844 C 12.046875 7.285156 11.929688 5.25 11.703125 4.796875 C 11.316406 4.007812 8.667969 3.644531 7.003906 3.644531 Z M 7.003906 3.644531 "/>
<path style=" stroke:none;fill-rule:nonzero;fill:rgb(30.980392%,33.72549%,23.137255%);fill-opacity:1;" d="M 12.140625 7.328125 L 12.097656 7.328125 C 6.828125 5.941406 2.007812 7.3125 1.960938 7.328125 C 1.921875 7.339844 1.875 7.335938 1.835938 7.316406 C 1.796875 7.292969 1.769531 7.257812 1.757812 7.214844 C 1.746094 7.171875 1.75 7.128906 1.769531 7.089844 C 1.792969 7.050781 1.828125 7.023438 1.867188 7.011719 C 1.917969 7 6.820312 5.601562 12.183594 7.011719 C 12.257812 7.035156 12.308594 7.113281 12.296875 7.191406 C 12.285156 7.269531 12.21875 7.332031 12.140625 7.335938 Z M 12.140625 7.328125 "/>
<path style=" stroke:none;fill-rule:nonzero;fill:rgb(30.980392%,33.72549%,23.137255%);fill-opacity:1;" d="M 10.234375 1.960938 C 9.90625 1.941406 9.601562 1.785156 9.394531 1.53125 C 9.222656 1.640625 9.015625 1.6875 8.8125 1.667969 C 8.523438 1.625 8.257812 1.496094 8.046875 1.292969 C 7.847656 1.550781 7.546875 1.707031 7.21875 1.722656 C 6.882812 1.699219 6.566406 1.546875 6.339844 1.300781 C 6.167969 1.511719 5.925781 1.648438 5.660156 1.6875 C 5.339844 1.707031 5.027344 1.617188 4.769531 1.429688 C 4.625 1.667969 4.402344 1.839844 4.140625 1.921875 C 3.875 1.992188 3.59375 1.957031 3.351562 1.824219 C 3.292969 1.789062 3.257812 1.71875 3.273438 1.652344 C 3.292969 1.398438 3.378906 1.15625 3.527344 0.949219 C 4.191406 0.253906 5.753906 0.00390625 7.003906 0.00390625 C 7.875 0.00390625 10.226562 0.183594 10.632812 0.992188 C 10.71875 1.207031 10.769531 1.433594 10.789062 1.664062 C 10.796875 1.730469 10.765625 1.792969 10.707031 1.828125 C 10.566406 1.914062 10.402344 1.960938 10.234375 1.960938 Z M 9.429688 1.140625 L 9.453125 1.140625 C 9.496094 1.148438 9.539062 1.171875 9.5625 1.210938 C 9.582031 1.234375 9.957031 1.78125 10.449219 1.582031 C 10.433594 1.429688 10.398438 1.277344 10.34375 1.128906 C 10.085938 0.605469 8.234375 0.324219 7.003906 0.324219 C 5.878906 0.324219 4.359375 0.546875 3.765625 1.167969 C 3.6875 1.292969 3.640625 1.433594 3.621094 1.578125 C 3.761719 1.628906 3.910156 1.636719 4.050781 1.597656 C 4.289062 1.511719 4.480469 1.332031 4.578125 1.101562 C 4.601562 1.058594 4.644531 1.027344 4.695312 1.019531 C 4.746094 1.011719 4.796875 1.027344 4.832031 1.058594 C 5.050781 1.253906 5.332031 1.359375 5.621094 1.359375 C 5.863281 1.3125 6.070312 1.164062 6.191406 0.949219 C 6.21875 0.90625 6.269531 0.878906 6.324219 0.878906 C 6.375 0.878906 6.425781 0.902344 6.457031 0.941406 C 6.457031 0.941406 6.800781 1.390625 7.222656 1.390625 C 7.507812 1.359375 7.761719 1.195312 7.910156 0.945312 C 7.9375 0.90625 7.984375 0.878906 8.035156 0.878906 C 8.085938 0.878906 8.132812 0.898438 8.164062 0.9375 C 8.339844 1.140625 8.582031 1.28125 8.84375 1.332031 C 9.019531 1.34375 9.191406 1.285156 9.324219 1.167969 C 9.355469 1.148438 9.390625 1.136719 9.429688 1.140625 Z M 9.429688 1.140625 "/>
<path style=" stroke:none;fill-rule:nonzero;fill:rgb(30.980392%,33.72549%,23.137255%);fill-opacity:1;" d="M 10.722656 2.859375 L 10.671875 2.859375 C 7.316406 1.75 3.394531 2.859375 3.359375 2.859375 C 3.296875 2.882812 3.230469 2.871094 3.183594 2.828125 C 3.136719 2.785156 3.117188 2.722656 3.132812 2.660156 C 3.152344 2.597656 3.203125 2.554688 3.265625 2.542969 C 3.304688 2.53125 7.320312 1.402344 10.773438 2.542969 C 10.851562 2.566406 10.898438 2.644531 10.886719 2.722656 C 10.871094 2.804688 10.800781 2.863281 10.722656 2.859375 Z M 10.722656 2.859375 "/>
<path style=" stroke:none;fill-rule:nonzero;fill:rgb(30.980392%,33.72549%,23.137255%);fill-opacity:1;" d="M 3.242188 4.285156 L 3.207031 4.285156 C 3.125 4.269531 3.066406 4.199219 3.066406 4.117188 C 3.089844 3.285156 3.1875 1.320312 3.53125 0.949219 C 4.191406 0.25 5.757812 0.00390625 7.003906 0.00390625 C 7.878906 0.00390625 10.230469 0.179688 10.636719 0.988281 C 10.871094 1.460938 10.933594 3.589844 10.945312 4.011719 C 10.945312 4.066406 10.921875 4.117188 10.875 4.148438 C 10.832031 4.179688 10.777344 4.1875 10.726562 4.171875 C 9.6875 3.8125 8.070312 3.644531 7.003906 3.644531 C 6.46875 3.644531 4.613281 3.691406 3.304688 4.273438 C 3.285156 4.28125 3.261719 4.289062 3.242188 4.285156 Z M 7.003906 0.328125 C 5.878906 0.328125 4.359375 0.550781 3.765625 1.171875 C 3.605469 1.34375 3.457031 2.460938 3.402344 3.878906 C 4.742188 3.367188 6.480469 3.316406 7.003906 3.316406 C 8.222656 3.3125 9.433594 3.472656 10.609375 3.789062 C 10.578125 2.660156 10.480469 1.410156 10.34375 1.132812 C 10.078125 0.609375 8.234375 0.328125 7.003906 0.328125 Z M 7.003906 0.328125 "/>
</g>
</svg>
