<?xml version="1.0" encoding="UTF-8"?> <svg xmlns="http://www.w3.org/2000/svg" width="54.68" height="59.49" viewBox="0 0 54.68 59.49"> <defs> <style> .a { fill: #4f563b; } </style> </defs> <g> <g> <path class="a" d="M813.58,414.25H760.19a.66.66,0,0,1-.46-.19.65.65,0,0,1-.18-.47c.05-1.91.57-18.77,3.14-21.51,4.57-4.85,15.49-6.58,24.19-6.58,5.68,0,22.48,1.24,25.21,6.74,1.72,3.46,2.12,20.62,2.13,21.35a.63.63,0,0,1-.18.47A.66.66,0,0,1,813.58,414.25ZM760.86,413h52.06c-.14-5.32-.72-17.6-2-20.15-2-4.11-15.55-6-24-6s-19,1.62-23.25,6.18C762,394.71,761.09,405.63,760.86,413Z" transform="translate(-759.55 -354.76)"></path> <path class="a" d="M809.72,398.41a7.92,7.92,0,0,1-5.84-3.22,6,6,0,0,1-4.17,1.15,9.54,9.54,0,0,1-5.45-2.91c-1.77,2.17-3.73,3.28-5.83,3.28h0c-2.92,0-5.25-2.12-6.27-3.24a7.14,7.14,0,0,1-4.85,3,9.32,9.32,0,0,1-6.35-2.08,7.74,7.74,0,0,1-4.47,3.75,7.06,7.06,0,0,1-5.15-.65.65.65,0,0,1-.3-.68c.47-2.51,1-4,1.67-4.73,4.57-4.85,15.49-6.58,24.19-6.58,5.68,0,22.48,1.24,25.21,6.74h0a17.07,17.07,0,0,1,1,4.63.65.65,0,0,1-.31.64A6,6,0,0,1,809.72,398.41ZM804,393.63h.09a.65.65,0,0,1,.45.28c.13.2,3.21,4.7,7.25,2.68a13.86,13.86,0,0,0-.87-3.79h0c-2-4.11-15.55-6-24-6s-19,1.62-23.25,6.18c-.25.26-.74,1.09-1.25,3.6a5.67,5.67,0,0,0,3.76.33,7,7,0,0,0,4.05-3.8.61.61,0,0,1,.46-.33.62.62,0,0,1,.55.16s2.88,2.6,5.95,2.26a6.28,6.28,0,0,0,4.41-3.12.65.65,0,0,1,.52-.29.6.6,0,0,1,.54.26s2.57,3.38,5.79,3.38h0c1.86,0,3.63-1.14,5.27-3.38a.65.65,0,0,1,.5-.26.65.65,0,0,1,.52.24s2.28,2.77,5.12,3a5,5,0,0,0,3.76-1.28A.69.69,0,0,1,804,393.63Z" transform="translate(-759.55 -354.76)"></path> <path class="a" d="M813.2,405.44l-.17,0c-26.38-7.11-51.89-.56-52.14-.49a.65.65,0,0,1-.33-1.25c.26-.07,26.1-6.71,52.81.49a.64.64,0,0,1,.45.79A.63.63,0,0,1,813.2,405.44Z" transform="translate(-759.55 -354.76)"></path> </g> <g> <path class="a" d="M804.72,378a6.2,6.2,0,0,1-4.54-2.42,4.84,4.84,0,0,1-3.21.84,7.46,7.46,0,0,1-4.19-2.17,6,6,0,0,1-4.52,2.45h0a7.1,7.1,0,0,1-4.83-2.41,5.6,5.6,0,0,1-3.73,2.22,7.23,7.23,0,0,1-4.89-1.53,6.09,6.09,0,0,1-3.45,2.81,5.65,5.65,0,0,1-4.11-.52.63.63,0,0,1-.3-.67,8,8,0,0,1,1.33-3.71c3.56-3.76,12-5.1,18.81-5.1,4.4,0,17.47,1,19.61,5.26h0a12.82,12.82,0,0,1,.83,3.6.65.65,0,0,1-.31.64A4.81,4.81,0,0,1,804.72,378Zm-4.41-4h.09a.66.66,0,0,1,.44.28c.1.15,2.37,3.43,5.33,2.06a10.31,10.31,0,0,0-.64-2.76c-1.55-3.1-11.93-4.54-18.46-4.54s-14.59,1.23-17.87,4.7a5.92,5.92,0,0,0-.91,2.57,4.27,4.27,0,0,0,2.71.19,5.18,5.18,0,0,0,3-2.83.64.64,0,0,1,1-.18s2.18,2,4.49,1.7a4.69,4.69,0,0,0,3.3-2.33.68.68,0,0,1,.52-.29.66.66,0,0,1,.54.26s1.94,2.54,4.35,2.54h0c1.39,0,2.72-.86,4-2.53a.67.67,0,0,1,.5-.27.75.75,0,0,1,.52.24,6.68,6.68,0,0,0,3.86,2.28,3.74,3.74,0,0,0,2.8-.94A.61.61,0,0,1,800.31,374.05Z" transform="translate(-759.55 -354.76)"></path> <path class="a" d="M766.44,390.74a.67.67,0,0,1-.34-.1.64.64,0,0,1-.31-.57c.11-3.53.59-15.19,2.47-17.17,3.56-3.76,12-5.1,18.81-5.1,4.4,0,17.47,1,19.61,5.26,1.27,2.53,1.61,14.13,1.67,16.43a.68.68,0,0,1-.29.56.65.65,0,0,1-.62.06c-5.12-2.28-14.25-3.32-20.56-3.32-3,0-13.52.28-20.14,3.87A.64.64,0,0,1,766.44,390.74Zm20.63-21.65c-6.49,0-14.59,1.23-17.87,4.7-1.1,1.16-1.83,8.5-2.08,15.23,6.88-3.26,16.78-3.52,19.76-3.52,6.08,0,14.74,1,20.15,3.05-.15-5.14-.61-13.14-1.5-14.92C804,370.53,793.6,369.09,787.07,369.09Z" transform="translate(-759.55 -354.76)"></path> <path class="a" d="M807.24,383.58l-.16,0c-20.7-5.45-39.64-.06-39.82,0a.63.63,0,0,1-.8-.44.64.64,0,0,1,.43-.8c.2-.05,19.46-5.54,40.52,0a.65.65,0,0,1-.17,1.27Z" transform="translate(-759.55 -354.76)"></path> </g> <g> <path class="a" d="M799.76,362.47a4.59,4.59,0,0,1-3.3-1.69,3.6,3.6,0,0,1-2.29.54,5.42,5.42,0,0,1-3-1.48,4.37,4.37,0,0,1-3.26,1.69h0a5.19,5.19,0,0,1-3.46-1.65,4.14,4.14,0,0,1-2.67,1.51,5.32,5.32,0,0,1-3.49-1,4.45,4.45,0,0,1-2.48,1.93,4.16,4.16,0,0,1-3.09-.39.62.62,0,0,1-.31-.67,5.36,5.36,0,0,1,1-2.76c2.6-2.74,8.75-3.72,13.65-3.72,3.43,0,12.67.7,14.26,3.88a9.35,9.35,0,0,1,.62,2.65.65.65,0,0,1-.32.64A3.68,3.68,0,0,1,799.76,362.47Zm-3.17-3.22h.09a.61.61,0,0,1,.44.27c.07.1,1.55,2.24,3.48,1.47a7.37,7.37,0,0,0-.42-1.79c-1-2.06-8.28-3.16-13.11-3.16-4.42,0-10.4.87-12.72,3.32a3.85,3.85,0,0,0-.57,1.61,2.81,2.81,0,0,0,1.69.08,3.62,3.62,0,0,0,2.07-1.95.64.64,0,0,1,1-.17,4.63,4.63,0,0,0,3.09,1.17,3.21,3.21,0,0,0,2.24-1.6.64.64,0,0,1,.52-.28.71.71,0,0,1,.53.25s1.35,1.76,3,1.76h0a3.59,3.59,0,0,0,2.7-1.75.61.61,0,0,1,.5-.26.66.66,0,0,1,.51.23A4.69,4.69,0,0,0,794.3,360a2.53,2.53,0,0,0,1.88-.64A.61.61,0,0,1,796.59,359.25Z" transform="translate(-759.55 -354.76)"></path> <path class="a" d="M801.67,366l-.2,0c-13.18-4.36-28.58,0-28.73,0a.65.65,0,1,1-.36-1.24c.16-.05,15.93-4.48,29.5,0a.64.64,0,0,1-.21,1.25Z" transform="translate(-759.55 -354.76)"></path> <path class="a" d="M772.28,371.62h-.13a.69.69,0,0,1-.56-.66c.1-3.28.48-11,1.83-12.47,2.6-2.74,8.75-3.72,13.65-3.72,3.43,0,12.67.7,14.26,3.88.93,1.86,1.18,10.23,1.22,11.89a.64.64,0,0,1-.27.54.65.65,0,0,1-.59.09c-4.08-1.42-10.44-2.07-14.62-2.07-2.11,0-9.4.18-14.53,2.47A.58.58,0,0,1,772.28,371.62Zm14.79-15.57c-4.42,0-10.4.87-12.72,3.32-.63.67-1.22,5.07-1.44,10.64,5.27-2,12.1-2.21,14.16-2.21a54.24,54.24,0,0,1,14.16,1.86c-.13-4.44-.51-9.36-1.05-10.45C799.15,357.15,791.9,356.05,787.07,356.05Z" transform="translate(-759.55 -354.76)"></path> </g> </g> </svg> 