<svg xmlns="http://www.w3.org/2000/svg" width="67.6" height="62.57"><defs><style>.a{fill:#4f563b}</style></defs><path class="a" d="M38.27 52.27a.65.65 0 0 1-.63-.47l-1.18-4.39-4.36-1.14a.64.64 0 0 1 0-1.24l4.39-1.18 1.18-4.4a.68.68 0 0 1 1.25 0l1.18 4.4 4.39 1.18a.64.64 0 0 1 0 1.24l-4.39 1.16-1.18 4.39a.64.64 0 0 1-.65.45Zm-3.55-6.67 2.44.66a.64.64 0 0 1 .45.45l.66 2.44.65-2.44a.65.65 0 0 1 .46-.45l2.43-.66-2.43-.66a.65.65 0 0 1-.46-.45l-.65-2.44-.66 2.44a.64.64 0 0 1-.45.45ZM43.27 13.27a.65.65 0 0 1-.63-.47l-1.18-4.39-4.36-1.14a.64.64 0 0 1 0-1.24l4.39-1.18 1.18-4.4a.68.68 0 0 1 1.25 0l1.18 4.4 4.39 1.18a.64.64 0 0 1 0 1.24L45.1 8.43l-1.18 4.39a.64.64 0 0 1-.65.45ZM39.72 6.6l2.44.66a.64.64 0 0 1 .45.45l.66 2.44.65-2.44a.65.65 0 0 1 .46-.45l2.43-.66-2.43-.66a.65.65 0 0 1-.46-.45l-.65-2.44-.66 2.44a.64.64 0 0 1-.45.45ZM60.92 26.87a.65.65 0 0 1-.62-.48L59.1 22l-4.39-1.18a.65.65 0 0 1 0-1.25l4.39-1.18L60.28 14a.67.67 0 0 1 1.25 0l1.18 4.39 4.39 1.18a.65.65 0 0 1 0 1.25L62.71 22l-1.18 4.39a.65.65 0 0 1-.61.48Zm-3.54-6.68 2.43.66a.63.63 0 0 1 .46.46l.65 2.43.66-2.43a.63.63 0 0 1 .46-.46l2.43-.66-2.43-.65a.65.65 0 0 1-.46-.46l-.66-2.43-.65 2.43a.65.65 0 0 1-.46.46ZM23.71 45.53a6.23 6.23 0 1 1 0-12.46 6.15 6.15 0 0 1 3.74 1.26l3.32-11.12-14.25-3.94-4.42 15.2a.75.75 0 0 1-.08.18 6.22 6.22 0 1 1-5.79-8.49 6.11 6.11 0 0 1 3.74 1.26l5-16.74a.64.64 0 0 1 .77-.44l20.6 5.24a.65.65 0 0 1 .46.81l-7.23 25.08a.51.51 0 0 1-.09.18 6.23 6.23 0 0 1-5.77 3.98Zm0-11.17a4.94 4.94 0 1 0 4.63 6.6.42.42 0 0 1 0-.1l7-24.29L16 11.64l-5.12 17.13a.65.65 0 0 1-.47.44.64.64 0 0 1-.62-.19 5 5 0 1 0 1 5v-.1l4.67-15.65a.65.65 0 0 1 .79-.44l15.5 4.29a.64.64 0 0 1 .44.81l-3.8 12.72a.68.68 0 0 1-.47.45.65.65 0 0 1-.62-.19 4.86 4.86 0 0 0-3.59-1.55Z"/><path class="a" d="M49.64 62.57a6.56 6.56 0 0 1-.76 0 6.23 6.23 0 0 1 .62-12.41l-9.15-23.13a.63.63 0 0 1 .17-.71c.2-.19 5-4.54 10.37-2.4a.65.65 0 0 1 .35.32l1.93 4.13a.66.66 0 0 1-.1.7.63.63 0 0 1-.67.19c-1.37-.41-5.11-1.16-7.07-.08l10.2 25.21a.58.58 0 0 1 0 .19 6.2 6.2 0 0 1-5.93 8Zm0-11.16a4.87 4.87 0 0 0-3 1 4.95 4.95 0 0 0 2.46 8.8 4.88 4.88 0 0 0 3.64-1 4.93 4.93 0 0 0 1.62-5.44.36.36 0 0 1 0-.1L44.02 29.12a.64.64 0 0 1 .19-.74c1.93-1.55 5.4-1.13 7.3-.74l-1.25-2.67c-3.75-1.35-7.36 1.1-8.46 2l9.3 23.63a.67.67 0 0 1-.1.64.65.65 0 0 1-.6.23 5.12 5.12 0 0 0-.8-.06Z"/></svg>