<?xml version="1.0" encoding="UTF-8"?>
<svg xmlns="http://www.w3.org/2000/svg" xmlns:xlink="http://www.w3.org/1999/xlink" width="px" height="px" viewBox="0 0 17 16" version="1.1">
<g id="surface1">
<path style=" stroke:none;fill-rule:nonzero;fill:rgb(30.980392%,33.72549%,23.137255%);fill-opacity:1;" d="M 9.566406 13.273438 C 9.496094 13.277344 9.429688 13.226562 9.410156 13.15625 L 9.113281 12.039062 L 8.023438 11.75 C 7.953125 11.734375 7.90625 11.667969 7.90625 11.59375 C 7.90625 11.519531 7.953125 11.453125 8.023438 11.4375 L 9.121094 11.136719 L 9.417969 10.019531 C 9.445312 9.957031 9.503906 9.914062 9.574219 9.914062 C 9.640625 9.914062 9.703125 9.957031 9.730469 10.019531 L 10.023438 11.136719 L 11.121094 11.4375 C 11.191406 11.453125 11.242188 11.519531 11.242188 11.59375 C 11.242188 11.667969 11.191406 11.734375 11.121094 11.75 L 10.023438 12.046875 L 9.730469 13.160156 C 9.707031 13.230469 9.640625 13.28125 9.566406 13.273438 Z M 8.679688 11.582031 L 9.289062 11.75 C 9.34375 11.765625 9.386719 11.808594 9.402344 11.863281 L 9.566406 12.484375 L 9.730469 11.863281 C 9.746094 11.808594 9.789062 11.761719 9.84375 11.75 L 10.453125 11.582031 L 9.84375 11.414062 C 9.789062 11.398438 9.746094 11.355469 9.730469 11.300781 L 9.566406 10.679688 L 9.402344 11.300781 C 9.386719 11.355469 9.34375 11.398438 9.289062 11.414062 Z M 8.679688 11.582031 "/>
<path style=" stroke:none;fill-rule:nonzero;fill:rgb(30.980392%,33.72549%,23.137255%);fill-opacity:1;" d="M 10.816406 3.371094 C 10.746094 3.371094 10.679688 3.320312 10.660156 3.25 L 10.363281 2.136719 L 9.273438 1.847656 C 9.203125 1.828125 9.15625 1.761719 9.15625 1.6875 C 9.15625 1.613281 9.203125 1.550781 9.273438 1.53125 L 10.371094 1.230469 L 10.667969 0.113281 C 10.695312 0.0507812 10.753906 0.0078125 10.824219 0.0078125 C 10.890625 0.0078125 10.953125 0.0507812 10.980469 0.113281 L 11.273438 1.230469 L 12.371094 1.53125 C 12.441406 1.550781 12.492188 1.613281 12.492188 1.6875 C 12.492188 1.761719 12.441406 1.828125 12.371094 1.847656 L 11.273438 2.140625 L 10.980469 3.257812 C 10.957031 3.328125 10.890625 3.375 10.816406 3.371094 Z M 9.929688 1.675781 L 10.539062 1.84375 C 10.59375 1.859375 10.636719 1.902344 10.652344 1.957031 L 10.816406 2.578125 L 10.980469 1.957031 C 10.996094 1.902344 11.039062 1.859375 11.09375 1.84375 L 11.703125 1.675781 L 11.09375 1.507812 C 11.039062 1.492188 10.996094 1.449219 10.980469 1.394531 L 10.816406 0.773438 L 10.652344 1.394531 C 10.636719 1.449219 10.59375 1.492188 10.539062 1.507812 Z M 9.929688 1.675781 "/>
<path style=" stroke:none;fill-rule:nonzero;fill:rgb(30.980392%,33.72549%,23.137255%);fill-opacity:1;" d="M 15.230469 6.824219 C 15.15625 6.824219 15.09375 6.773438 15.074219 6.703125 L 14.773438 5.585938 L 13.675781 5.289062 C 13.609375 5.265625 13.558594 5.203125 13.558594 5.128906 C 13.558594 5.054688 13.609375 4.992188 13.675781 4.96875 L 14.773438 4.671875 L 15.070312 3.554688 C 15.09375 3.488281 15.15625 3.445312 15.226562 3.445312 C 15.296875 3.445312 15.359375 3.488281 15.382812 3.554688 L 15.675781 4.671875 L 16.773438 4.96875 C 16.84375 4.992188 16.894531 5.054688 16.894531 5.128906 C 16.894531 5.203125 16.84375 5.265625 16.773438 5.289062 L 15.675781 5.585938 L 15.382812 6.703125 C 15.363281 6.773438 15.300781 6.820312 15.230469 6.824219 Z M 14.34375 5.128906 L 14.953125 5.296875 C 15.007812 5.308594 15.054688 5.355469 15.066406 5.410156 L 15.230469 6.027344 L 15.394531 5.410156 C 15.410156 5.355469 15.453125 5.308594 15.511719 5.296875 L 16.117188 5.128906 L 15.511719 4.960938 C 15.453125 4.949219 15.410156 4.902344 15.394531 4.847656 L 15.230469 4.230469 L 15.066406 4.847656 C 15.050781 4.902344 15.007812 4.949219 14.953125 4.960938 Z M 14.34375 5.128906 "/>
<path style=" stroke:none;fill-rule:nonzero;fill:rgb(30.980392%,33.72549%,23.137255%);fill-opacity:1;" d="M 5.925781 11.5625 C 5.066406 11.5625 4.371094 10.855469 4.371094 9.980469 C 4.371094 9.105469 5.066406 8.398438 5.925781 8.398438 C 6.265625 8.398438 6.59375 8.511719 6.863281 8.71875 L 7.691406 5.894531 L 4.128906 4.894531 L 3.023438 8.753906 C 3.019531 8.769531 3.011719 8.785156 3.003906 8.800781 C 2.71875 9.542969 1.933594 9.949219 1.175781 9.753906 C 0.414062 9.558594 -0.0820312 8.816406 0.015625 8.027344 C 0.113281 7.238281 0.773438 6.644531 1.558594 6.644531 C 1.894531 6.640625 2.222656 6.753906 2.492188 6.964844 L 3.742188 2.710938 C 3.765625 2.628906 3.851562 2.578125 3.933594 2.601562 L 9.085938 3.929688 C 9.128906 3.941406 9.164062 3.972656 9.183594 4.007812 C 9.207031 4.046875 9.210938 4.09375 9.199219 4.136719 L 7.390625 10.507812 C 7.386719 10.523438 7.378906 10.539062 7.371094 10.550781 C 7.140625 11.160156 6.566406 11.558594 5.925781 11.5625 Z M 5.925781 8.726562 C 5.300781 8.722656 4.769531 9.199219 4.695312 9.835938 C 4.621094 10.46875 5.027344 11.058594 5.640625 11.203125 C 6.253906 11.347656 6.875 11.003906 7.085938 10.402344 C 7.085938 10.394531 7.085938 10.386719 7.085938 10.378906 L 8.835938 4.207031 L 4 2.957031 L 2.71875 7.308594 C 2.703125 7.363281 2.660156 7.40625 2.601562 7.417969 C 2.546875 7.433594 2.488281 7.414062 2.449219 7.371094 C 2.070312 6.945312 1.460938 6.828125 0.957031 7.085938 C 0.453125 7.339844 0.183594 7.90625 0.292969 8.46875 C 0.402344 9.027344 0.867188 9.445312 1.429688 9.484375 C 1.992188 9.527344 2.511719 9.179688 2.699219 8.640625 L 2.699219 8.613281 L 3.863281 4.640625 C 3.890625 4.554688 3.976562 4.503906 4.0625 4.527344 L 7.9375 5.617188 C 7.980469 5.628906 8.015625 5.65625 8.035156 5.695312 C 8.054688 5.734375 8.0625 5.78125 8.046875 5.824219 L 7.097656 9.054688 C 7.078125 9.109375 7.035156 9.152344 6.980469 9.167969 C 6.921875 9.179688 6.863281 9.164062 6.824219 9.121094 C 6.59375 8.867188 6.269531 8.722656 5.925781 8.726562 Z M 5.925781 8.726562 "/>
<path style=" stroke:none;fill-rule:nonzero;fill:rgb(30.980392%,33.72549%,23.137255%);fill-opacity:1;" d="M 12.410156 15.890625 C 12.347656 15.894531 12.285156 15.894531 12.21875 15.890625 C 11.410156 15.789062 10.816406 15.070312 10.859375 14.242188 C 10.898438 13.414062 11.558594 12.757812 12.375 12.738281 L 10.085938 6.863281 C 10.0625 6.800781 10.078125 6.730469 10.128906 6.683594 C 10.179688 6.636719 11.378906 5.53125 12.722656 6.074219 C 12.761719 6.089844 12.792969 6.117188 12.808594 6.15625 L 13.292969 7.207031 C 13.320312 7.265625 13.308594 7.332031 13.265625 7.382812 C 13.226562 7.433594 13.160156 7.449219 13.101562 7.429688 C 12.757812 7.328125 11.824219 7.136719 11.332031 7.410156 L 13.882812 13.8125 C 13.886719 13.828125 13.886719 13.84375 13.882812 13.863281 C 14.023438 14.339844 13.9375 14.855469 13.644531 15.257812 C 13.351562 15.65625 12.890625 15.894531 12.398438 15.894531 Z M 12.410156 13.054688 C 12.140625 13.054688 11.875 13.144531 11.660156 13.308594 C 11.269531 13.625 11.101562 14.148438 11.234375 14.636719 C 11.367188 15.125 11.777344 15.484375 12.273438 15.546875 C 12.597656 15.589844 12.925781 15.496094 13.183594 15.292969 C 13.59375 14.964844 13.753906 14.410156 13.589844 13.910156 C 13.589844 13.902344 13.589844 13.894531 13.589844 13.882812 L 11.003906 7.394531 C 10.976562 7.328125 10.996094 7.253906 11.050781 7.207031 C 11.535156 6.8125 12.402344 6.921875 12.878906 7.019531 L 12.566406 6.339844 C 11.628906 6 10.726562 6.621094 10.449219 6.847656 L 12.773438 12.851562 C 12.792969 12.90625 12.785156 12.96875 12.75 13.011719 C 12.714844 13.058594 12.65625 13.082031 12.601562 13.070312 C 12.535156 13.0625 12.46875 13.054688 12.398438 13.054688 Z M 12.410156 13.054688 "/>
</g>
</svg>
