<?xml version="1.0" encoding="UTF-8"?> <svg xmlns="http://www.w3.org/2000/svg" width="67.6" height="62.57" viewBox="0 0 67.6 62.57"> <defs> <style> .a { fill: #4f563b; } </style> </defs> <g> <path class="a" d="M890.17,408h0a.65.65,0,0,1-.63-.47l-1.18-4.39L884,402a.64.64,0,0,1,0-1.24l4.39-1.18,1.18-4.4a.68.68,0,0,1,1.25,0l1.18,4.4,4.39,1.18a.64.64,0,0,1,0,1.24L892,403.16l-1.18,4.39A.64.64,0,0,1,890.17,408Zm-3.55-6.67,2.44.66a.64.64,0,0,1,.45.45l.66,2.44.65-2.44a.65.65,0,0,1,.46-.45l2.43-.66-2.43-.66a.65.65,0,0,1-.46-.45l-.65-2.44-.66,2.44a.64.64,0,0,1-.45.45Z" transform="translate(-851.9 -355.73)"></path> <path class="a" d="M895.17,369h0a.65.65,0,0,1-.63-.47l-1.18-4.39L889,363a.64.64,0,0,1,0-1.24l4.39-1.18,1.18-4.4a.68.68,0,0,1,1.25,0l1.18,4.4,4.39,1.18a.64.64,0,0,1,0,1.24L897,364.16l-1.18,4.39A.64.64,0,0,1,895.17,369Zm-3.55-6.67,2.44.66a.64.64,0,0,1,.45.45l.66,2.44.65-2.44a.65.65,0,0,1,.46-.45l2.43-.66-2.43-.66a.65.65,0,0,1-.46-.45l-.65-2.44-.66,2.44a.64.64,0,0,1-.45.45Z" transform="translate(-851.9 -355.73)"></path> <path class="a" d="M912.82,382.6h0a.65.65,0,0,1-.62-.48L911,377.73l-4.39-1.18a.65.65,0,0,1,0-1.25l4.39-1.18,1.18-4.39a.67.67,0,0,1,1.25,0l1.18,4.39L919,375.3a.65.65,0,0,1,0,1.25l-4.39,1.18-1.18,4.39A.65.65,0,0,1,912.82,382.6Zm-3.54-6.68,2.43.66a.63.63,0,0,1,.46.46l.65,2.43.66-2.43a.63.63,0,0,1,.46-.46l2.43-.66-2.43-.65a.65.65,0,0,1-.46-.46l-.66-2.43-.65,2.43a.65.65,0,0,1-.46.46Z" transform="translate(-851.9 -355.73)"></path> <path class="a" d="M875.61,401.26a6.23,6.23,0,1,1,0-12.46,6.15,6.15,0,0,1,3.74,1.26l3.32-11.12L868.42,375,864,390.2a.75.75,0,0,1-.08.18,6.22,6.22,0,1,1-5.79-8.49,6.11,6.11,0,0,1,3.74,1.26l5-16.74a.64.64,0,0,1,.77-.44l20.6,5.24a.65.65,0,0,1,.46.81l-7.23,25.08a.51.51,0,0,1-.09.18A6.23,6.23,0,0,1,875.61,401.26Zm0-11.17a4.94,4.94,0,1,0,4.63,6.6.42.42,0,0,1,0-.1l7-24.29-19.34-4.93-5.12,17.13a.65.65,0,0,1-.47.44.64.64,0,0,1-.62-.19,5,5,0,1,0,1,5l0-.1L867.36,374a.65.65,0,0,1,.79-.44l15.5,4.29a.64.64,0,0,1,.44.81l-3.8,12.72a.68.68,0,0,1-.47.45.65.65,0,0,1-.62-.19A4.86,4.86,0,0,0,875.61,390.09Z" transform="translate(-851.9 -355.73)"></path> <path class="a" d="M901.54,418.3a6.56,6.56,0,0,1-.76,0,6.23,6.23,0,0,1,.62-12.41l-9.15-23.13a.63.63,0,0,1,.17-.71c.2-.19,5-4.54,10.37-2.4a.65.65,0,0,1,.35.32l1.93,4.13a.66.66,0,0,1-.1.7.63.63,0,0,1-.67.19c-1.37-.41-5.11-1.16-7.07-.08l10.2,25.21a.58.58,0,0,1,0,.19,6.2,6.2,0,0,1-5.93,8Zm0-11.16a4.87,4.87,0,0,0-3,1,4.95,4.95,0,0,0,2.46,8.8,4.88,4.88,0,0,0,3.64-1,4.93,4.93,0,0,0,1.62-5.44.36.36,0,0,1,0-.1l-10.34-25.55a.64.64,0,0,1,.19-.74c1.93-1.55,5.4-1.13,7.3-.74l-1.25-2.67c-3.75-1.35-7.36,1.1-8.46,2L903,406.33a.67.67,0,0,1-.1.64.65.65,0,0,1-.6.23A5.12,5.12,0,0,0,901.5,407.14Z" transform="translate(-851.9 -355.73)"></path> </g> </svg> 