<?xml version="1.0" encoding="UTF-8"?>
<svg xmlns="http://www.w3.org/2000/svg" xmlns:xlink="http://www.w3.org/1999/xlink" width="px" height="px" viewBox="0 0 34 32" version="1.1">
<g id="surface1">
<path style=" stroke:none;fill-rule:nonzero;fill:rgb(30.980392%,33.72549%,23.137255%);fill-opacity:1;" d="M 19.136719 26.550781 C 18.988281 26.550781 18.859375 26.453125 18.820312 26.3125 L 18.230469 24.082031 L 16.050781 23.503906 C 15.910156 23.464844 15.808594 23.335938 15.808594 23.1875 C 15.808594 23.039062 15.910156 22.910156 16.050781 22.871094 L 18.246094 22.273438 L 18.835938 20.039062 C 18.886719 19.910156 19.011719 19.828125 19.148438 19.828125 C 19.285156 19.828125 19.40625 19.910156 19.460938 20.039062 L 20.050781 22.273438 L 22.246094 22.871094 C 22.386719 22.910156 22.484375 23.039062 22.484375 23.1875 C 22.484375 23.335938 22.386719 23.464844 22.246094 23.503906 L 20.050781 24.089844 L 19.460938 26.320312 C 19.417969 26.464844 19.28125 26.558594 19.136719 26.550781 Z M 17.359375 23.160156 L 18.578125 23.496094 C 18.691406 23.527344 18.773438 23.613281 18.804688 23.726562 L 19.136719 24.964844 L 19.460938 23.726562 C 19.492188 23.613281 19.578125 23.527344 19.691406 23.496094 L 20.90625 23.160156 L 19.691406 22.828125 C 19.578125 22.796875 19.492188 22.710938 19.460938 22.597656 L 19.136719 21.359375 L 18.804688 22.597656 C 18.773438 22.710938 18.691406 22.796875 18.578125 22.828125 Z M 21.636719 6.742188 C 21.488281 6.742188 21.359375 6.644531 21.320312 6.5 L 20.730469 4.273438 L 18.550781 3.691406 C 18.410156 3.65625 18.308594 3.527344 18.308594 3.378906 C 18.308594 3.230469 18.410156 3.101562 18.550781 3.0625 L 20.746094 2.464844 L 21.335938 0.230469 C 21.386719 0.101562 21.511719 0.0195312 21.648438 0.0195312 C 21.785156 0.0195312 21.90625 0.101562 21.960938 0.230469 L 22.550781 2.464844 L 24.746094 3.0625 C 24.886719 3.101562 24.984375 3.230469 24.984375 3.378906 C 24.984375 3.527344 24.886719 3.65625 24.746094 3.691406 L 22.550781 4.28125 L 21.960938 6.511719 C 21.917969 6.65625 21.78125 6.75 21.636719 6.742188 Z M 19.859375 3.351562 L 21.078125 3.6875 C 21.191406 3.71875 21.273438 3.804688 21.304688 3.917969 L 21.636719 5.15625 L 21.960938 3.917969 C 21.992188 3.804688 22.078125 3.71875 22.191406 3.6875 L 23.40625 3.351562 L 22.191406 3.015625 C 22.078125 2.988281 21.992188 2.902344 21.960938 2.789062 L 21.636719 1.550781 L 21.304688 2.789062 C 21.273438 2.898438 21.191406 2.988281 21.078125 3.015625 Z M 30.460938 13.648438 C 30.316406 13.648438 30.1875 13.546875 30.148438 13.40625 L 29.550781 11.175781 L 27.355469 10.574219 C 27.214844 10.535156 27.121094 10.40625 27.121094 10.257812 C 27.121094 10.109375 27.214844 9.980469 27.355469 9.941406 L 29.550781 9.339844 L 30.140625 7.109375 C 30.191406 6.980469 30.3125 6.894531 30.453125 6.894531 C 30.589844 6.894531 30.714844 6.980469 30.765625 7.109375 L 31.355469 9.339844 L 33.550781 9.941406 C 33.691406 9.980469 33.785156 10.109375 33.785156 10.257812 C 33.785156 10.40625 33.691406 10.535156 33.550781 10.574219 L 31.355469 11.175781 L 30.765625 13.40625 C 30.726562 13.546875 30.605469 13.644531 30.460938 13.648438 Z M 28.691406 10.253906 L 29.90625 10.589844 C 30.019531 10.617188 30.105469 10.707031 30.136719 10.824219 L 30.460938 12.058594 L 30.789062 10.824219 C 30.816406 10.707031 30.90625 10.617188 31.019531 10.589844 L 32.234375 10.253906 L 31.019531 9.925781 C 30.90625 9.894531 30.820312 9.804688 30.789062 9.691406 L 30.460938 8.457031 L 30.136719 9.691406 C 30.105469 9.804688 30.015625 9.894531 29.90625 9.925781 Z M 11.855469 23.125 C 10.132812 23.125 8.738281 21.710938 8.738281 19.960938 C 8.738281 18.214844 10.132812 16.796875 11.855469 16.796875 C 12.53125 16.796875 13.1875 17.019531 13.726562 17.4375 L 15.386719 11.789062 L 8.261719 9.789062 L 6.050781 17.507812 C 6.039062 17.539062 6.027344 17.570312 6.011719 17.601562 C 5.4375 19.082031 3.867188 19.902344 2.347656 19.507812 C 0.828125 19.117188 -0.167969 17.636719 0.0273438 16.054688 C 0.222656 14.472656 1.546875 13.289062 3.113281 13.289062 C 3.789062 13.285156 4.449219 13.511719 4.984375 13.925781 L 7.484375 5.425781 C 7.535156 5.257812 7.703125 5.160156 7.871094 5.203125 L 18.171875 7.863281 C 18.253906 7.886719 18.328125 7.941406 18.371094 8.019531 C 18.414062 8.097656 18.425781 8.1875 18.398438 8.273438 L 14.785156 21.011719 C 14.777344 21.046875 14.761719 21.078125 14.738281 21.105469 C 14.277344 22.316406 13.132812 23.117188 11.855469 23.125 Z M 11.855469 17.453125 C 10.597656 17.445312 9.539062 18.398438 9.390625 19.667969 C 9.242188 20.9375 10.058594 22.113281 11.28125 22.40625 C 12.503906 22.695312 13.746094 22.007812 14.171875 20.804688 C 14.167969 20.789062 14.167969 20.769531 14.171875 20.753906 L 17.671875 8.417969 L 8 5.914062 L 5.441406 14.613281 C 5.40625 14.726562 5.316406 14.808594 5.203125 14.835938 C 5.09375 14.863281 4.972656 14.828125 4.894531 14.742188 C 4.140625 13.890625 2.921875 13.65625 1.914062 14.167969 C 0.910156 14.679688 0.363281 15.816406 0.585938 16.9375 C 0.804688 18.058594 1.738281 18.890625 2.859375 18.972656 C 3.984375 19.050781 5.023438 18.359375 5.394531 17.28125 L 5.394531 17.230469 L 7.730469 9.28125 C 7.78125 9.109375 7.957031 9.011719 8.125 9.054688 L 15.875 11.234375 C 15.957031 11.257812 16.03125 11.316406 16.070312 11.394531 C 16.113281 11.472656 16.121094 11.5625 16.09375 11.648438 L 14.195312 18.109375 C 14.160156 18.21875 14.070312 18.304688 13.960938 18.335938 C 13.847656 18.363281 13.730469 18.324219 13.648438 18.238281 C 13.1875 17.734375 12.535156 17.449219 11.855469 17.453125 Z M 11.855469 17.453125 "/>
<path style=" stroke:none;fill-rule:nonzero;fill:rgb(30.980392%,33.72549%,23.137255%);fill-opacity:1;" d="M 24.820312 31.78125 C 24.695312 31.789062 24.566406 31.789062 24.441406 31.78125 C 22.820312 31.574219 21.632812 30.136719 21.714844 28.484375 C 21.796875 26.828125 23.121094 25.519531 24.75 25.476562 L 20.175781 13.730469 C 20.125 13.601562 20.160156 13.457031 20.261719 13.367188 C 20.359375 13.273438 22.761719 11.0625 25.445312 12.148438 C 25.519531 12.179688 25.582031 12.238281 25.621094 12.3125 L 26.585938 14.410156 C 26.636719 14.527344 26.617188 14.667969 26.535156 14.765625 C 26.453125 14.863281 26.320312 14.902344 26.199219 14.863281 C 25.515625 14.652344 23.644531 14.273438 22.664062 14.820312 L 27.765625 27.625 C 27.769531 27.660156 27.769531 27.691406 27.765625 27.722656 C 28.050781 28.675781 27.875 29.710938 27.289062 30.511719 C 26.703125 31.3125 25.78125 31.785156 24.800781 31.785156 Z M 24.820312 26.113281 C 24.277344 26.109375 23.75 26.285156 23.320312 26.621094 C 22.535156 27.25 22.199219 28.296875 22.46875 29.273438 C 22.738281 30.25 23.558594 30.96875 24.550781 31.089844 C 25.199219 31.175781 25.855469 30.992188 26.371094 30.582031 C 27.1875 29.929688 27.511719 28.820312 27.179688 27.820312 C 27.175781 27.804688 27.175781 27.785156 27.179688 27.769531 L 22.011719 14.792969 C 21.957031 14.660156 21.996094 14.503906 22.105469 14.414062 C 23.070312 13.628906 24.804688 13.839844 25.753906 14.039062 L 25.128906 12.683594 C 23.253906 11.996094 21.449219 13.242188 20.898438 13.699219 L 25.550781 25.703125 C 25.589844 25.8125 25.570312 25.933594 25.5 26.027344 C 25.425781 26.117188 25.3125 26.160156 25.199219 26.144531 C 25.066406 26.121094 24.933594 26.113281 24.800781 26.113281 Z M 24.820312 26.113281 "/>
</g>
</svg>
