<svg width="325" height="325" fill="none" xmlns="http://www.w3.org/2000/svg"><circle cx="162.5" cy="162.5" r="162" stroke="#131313"/><path d="M43.9 158.7c3.813-9.24 8.507-18.187 14.08-26.84 5.72-8.8 11.807-16.427 18.26-22.88-2.787-1.32-6.16-2.933-10.12-4.84a57.877 57.877 0 0 0-11.88-4.4c-4.107-1.173-7.993-1.467-11.66-.88-3.667.44-6.6 2.42-8.8 5.94-.733.88-1.393 1.1-1.98.66-.587-.44-.587-1.1 0-1.98 2.787-4.107 6.16-6.527 10.12-7.26 3.96-.88 8.14-.807 12.54.22 4.4 1.027 8.727 2.64 12.98 4.84a3509.48 3509.48 0 0 0 11.44 5.5c1.467-1.32 3.3-2.713 5.5-4.18a62.632 62.632 0 0 1 7.48-4.4 48.016 48.016 0 0 1 8.58-3.52c3.08-1.027 6.087-1.613 9.02-1.76 5.427-.147 9.387 1.027 11.88 3.52 2.64 2.493 3.813 5.353 3.52 8.58-.147 3.08-1.76 6.013-4.84 8.8-2.933 2.64-7.187 4.107-12.76 4.4-4.4.147-8.653-.367-12.76-1.54a62.245 62.245 0 0 1-11.66-4.62c-6.16 6.307-12.027 13.713-17.6 22.22-5.427 8.36-10.047 16.94-13.86 25.74-.88 1.907-1.98 4.473-3.3 7.7a222.6 222.6 0 0 0-3.52 10.56 130.659 130.659 0 0 0-2.64 11.44c-.587 3.96-.733 7.627-.44 11 .293 3.227 1.173 6.013 2.64 8.36 1.613 2.347 4.107 3.74 7.48 4.18 2.787.44 5.793.147 9.02-.88 3.373-1.173 6.747-2.787 10.12-4.84 3.373-2.2 6.747-4.693 10.12-7.48a182.322 182.322 0 0 0 9.46-8.36c3.08-2.933 5.867-5.72 8.36-8.36 2.493-2.787 4.547-5.207 6.16-7.26.733-.88 1.393-1.027 1.98-.44.733.44.733 1.1 0 1.98-3.08 3.667-6.747 7.773-11 12.32a140.35 140.35 0 0 1-13.64 12.76c-4.84 3.96-9.9 7.333-15.18 10.12-5.133 2.787-10.267 4.253-15.4 4.4-4.987.293-8.8-.587-11.44-2.64-2.493-2.2-4.18-5.06-5.06-8.58-.88-3.52-1.173-7.48-.88-11.88.44-4.547 1.173-9.02 2.2-13.42 1.173-4.4 2.42-8.507 3.74-12.32 1.467-3.96 2.713-7.187 3.74-9.68Zm64.68-61.82c-2.053 0-4.253.513-6.6 1.54a72.1 72.1 0 0 0-6.6 3.52 85.993 85.993 0 0 0-5.94 4.18c-1.76 1.32-3.153 2.493-4.18 3.52 2.933 1.467 6.307 2.787 10.12 3.96 3.813 1.027 7.627 1.393 11.44 1.1 3.667-.44 6.307-1.613 7.92-3.52 1.76-2.053 2.64-4.107 2.64-6.16 0-2.2-.807-4.107-2.42-5.72-1.467-1.613-3.593-2.42-6.38-2.42Zm29.935 96.58c-.146-.147-.366-.513-.66-1.1-2.2 1.467-5.28 2.64-9.24 3.52-3.813.88-7.48 1.1-11 .66-3.52-.44-6.38-1.687-8.58-3.74-2.053-2.053-2.346-5.28-.88-9.68.587-2.2 1.614-4.107 3.08-5.72a34.535 34.535 0 0 1 4.84-4.4 60.413 60.413 0 0 1 5.72-3.52 210.592 210.592 0 0 0 5.94-3.52l-2.2-6.16c-.733-2.053-.806-4.107-.22-6.16.734-2.64 2.347-4.62 4.84-5.94 2.494-1.32 4.987-1.98 7.48-1.98 2.64-.147 4.767.44 6.38 1.76 1.76 1.173 2.274 3.08 1.54 5.72-.733 2.933-2.273 5.353-4.62 7.26a100.553 100.553 0 0 1-7.04 4.84l.88 2.64c2.347-.44 4.4-.22 6.16.66 1.907.733 3.227 1.98 3.96 3.74 1.027 2.053 1.174 4.473.44 7.26-.586 2.787-1.686 5.427-3.3 7.92l2.2 4.4c1.174 1.613 2.787 2.2 4.84 1.76 2.2-.44 3.52-1.76 3.96-3.96.294-1.173.807-1.76 1.54-1.76.88-.147 1.174.513.88 1.98-.44 1.907-1.393 3.447-2.86 4.62-1.466 1.173-3.08 1.98-4.84 2.42-1.76.293-3.52.22-5.28-.22-1.76-.587-3.08-1.687-3.96-3.3Zm-1.76-3.08c-1.173-2.493-2.346-5.28-3.52-8.36a374.074 374.074 0 0 1-3.3-9.46c-1.613 1.173-3.006 2.64-4.18 4.4-1.173 1.613-1.76 3.227-1.76 4.84 0 .733-.366 1.247-1.1 1.54-.88.293-1.32.073-1.32-.66 0-2.2.734-4.4 2.2-6.6 1.614-2.2 3.447-4.107 5.5-5.72-.146-.293-.366-.88-.66-1.76a110.765 110.765 0 0 0-8.8 6.38c-2.786 2.2-4.693 4.913-5.72 8.14-1.026 3.227-.733 5.72.88 7.48 1.76 1.76 3.96 2.86 6.6 3.3 2.787.44 5.647.367 8.58-.22 2.934-.733 5.134-1.833 6.6-3.3Zm-1.1-20.24c.734 2.493 1.54 5.06 2.42 7.7a369.494 369.494 0 0 0 3.08 7.26c1.027-1.907 1.687-3.887 1.98-5.94.294-2.053.074-3.887-.66-5.5-1.173-2.64-3.446-3.813-6.82-3.52Zm-2.86-7.04c2.2-1.173 3.96-2.567 5.28-4.18 1.467-1.76 2.42-3.447 2.86-5.06.587-2.2.44-3.74-.44-4.62-.88-.88-1.98-1.247-3.3-1.1-1.173 0-2.42.587-3.74 1.76-1.173 1.027-1.906 2.493-2.2 4.4-.146.733-.146 1.687 0 2.86.294 1.173.807 3.153 1.54 5.94Zm155.484-68.86c-.294 1.173-.88 2.933-1.76 5.28-.734 2.2-1.687 4.913-2.86 8.14a4826.167 4826.167 0 0 1-7.48 22.22c-2.934 8.653-5.647 17.747-8.14 27.28 2.346.147 4.473-.073 6.38-.66 1.906-.733 3.446-2.127 4.62-4.18.293-.733.806-1.027 1.54-.88.733.147.806.807.22 1.98-1.32 2.493-3.374 4.327-6.16 5.5-2.64 1.173-5.134 1.613-7.48 1.32a375.236 375.236 0 0 0-4.18 20.9c-1.027 6.747-1.394 13.127-1.1 19.14.146 4.4.66 8.507 1.54 12.32 1.026 3.667 2.493 6.82 4.4 9.46 2.053 2.787 4.62 4.913 7.7 6.38 3.226 1.467 7.113 2.127 11.66 1.98.88 0 1.466.513 1.76 1.54 0 1.027-.587 1.54-1.76 1.54-11.734.293-20.02-2.42-24.86-8.14-4.84-5.573-7.407-14.08-7.7-25.52-.147-6.16.293-12.687 1.32-19.58 1.026-7.04 2.42-14.08 4.18-21.12a113.2 113.2 0 0 0-6.6-1.98 94.421 94.421 0 0 0-6.16-1.54c-4.84 8.067-9.607 15.84-14.3 23.32-4.547 7.48-8.727 14.007-12.54 19.58-3.814 5.133-8.58 9.607-14.3 13.42-5.574 3.667-11.514 5.353-17.82 5.06-4.254-.147-7.994-1.1-11.22-2.86-3.227-1.76-5.94-3.96-8.14-6.6-2.2-2.64-3.814-5.647-4.84-9.02-1.027-3.52-1.54-7.04-1.54-10.56.146-6.453 1.833-12.1 5.06-16.94 3.373-4.84 7.48-8.433 12.32-10.78 4.84-2.493 10.12-3.52 15.84-3.08 5.72.44 11.073 2.713 16.06 6.82.88.733 1.1 1.393.66 1.98-.44.587-1.027.513-1.76-.22-4.254-3.52-8.727-5.353-13.42-5.5-4.547-.147-8.8.953-12.76 3.3-3.814 2.2-7.04 5.5-9.68 9.9-2.64 4.253-4.034 9.02-4.18 14.3-.147 3.227.146 6.38.88 9.46.733 3.08 1.833 5.867 3.3 8.36 1.613 2.347 3.52 4.253 5.72 5.72 2.346 1.467 4.986 2.273 7.92 2.42 4.253.293 8.58-1.32 12.98-4.84 4.4-3.52 8.286-7.627 11.66-12.32 3.813-5.427 7.993-11.807 12.54-19.14 4.693-7.48 9.46-15.253 14.3-23.32a40.674 40.674 0 0 0-9.46.22c-2.934.293-5.427 1.76-7.48 4.4-.734.733-1.394.88-1.98.44-.587-.44-.514-1.027.22-1.76 2.346-3.08 5.353-5.06 9.02-5.94 3.666-.88 7.48-.953 11.44-.22l9.68-16.28a731.266 731.266 0 0 1 9.68-15.18c3.08-4.84 5.94-9.24 8.58-13.2 2.786-3.96 5.206-7.187 7.26-9.68a879.24 879.24 0 0 0-7.7 2.42c-3.227 1.027-6.674 2.273-10.34 3.74a96.149 96.149 0 0 0-10.34 5.06c-3.227 1.907-5.94 4.033-8.14 6.38-2.054 2.347-3.3 4.913-3.74 7.7-.294 2.64.806 5.427 3.3 8.36.733.733.806 1.393.22 1.98-.44.44-1.027.367-1.76-.22-4.254-3.96-6.307-7.627-6.16-11 .293-3.373 1.906-6.453 4.84-9.24 2.933-2.933 6.746-5.5 11.44-7.7 4.84-2.2 9.68-4.107 14.52-5.72 4.986-1.76 9.606-3.153 13.86-4.18 4.253-1.027 7.333-1.76 9.24-2.2.586-.147 1.1 0 1.54.44.44.293.586.807.44 1.54Zm-27.5 61.6c1.026-4.107 2.346-8.507 3.96-13.2 1.613-4.84 3.226-9.607 4.84-14.3a666.776 666.776 0 0 1 4.62-13.42c1.613-4.253 2.933-7.847 3.96-10.78-1.76 2.787-3.887 6.16-6.38 10.12-2.347 3.96-4.84 8.213-7.48 12.76-2.64 4.4-5.28 8.873-7.92 13.42-2.64 4.547-5.06 8.653-7.26 12.32 2.053.587 4.033 1.173 5.94 1.76a40.118 40.118 0 0 0 5.72 1.32Z" fill="#131313"/></svg>