<?xml version="1.0" encoding="UTF-8"?>
<svg xmlns="http://www.w3.org/2000/svg" xmlns:xlink="http://www.w3.org/1999/xlink" width="px" height="px" viewBox="0 0 81 81" version="1.1">
<g id="surface1">
<path style="fill:none;stroke-width:1;stroke-linecap:butt;stroke-linejoin:miter;stroke:rgb(7.45098%,7.45098%,7.45098%);stroke-opacity:1;stroke-miterlimit:4;" d="M 324.498457 162.5 C 324.498457 251.96277 251.96277 324.498457 162.5 324.498457 C 73.03723 324.498457 0.501543 251.96277 0.501543 162.5 C 0.501543 73.03723 73.03723 0.501543 162.5 0.501543 C 251.96277 0.501543 324.498457 73.03723 324.498457 162.5 Z M 324.498457 162.5 " transform="matrix(0.249231,0,0,0.249231,0,0)"/>
<path style=" stroke:none;fill-rule:nonzero;fill:rgb(7.45098%,7.45098%,7.45098%);fill-opacity:1;" d="M 10.941406 39.554688 C 11.890625 37.25 13.0625 35.019531 14.449219 32.863281 C 15.875 30.671875 17.394531 28.769531 19 27.160156 C 18.308594 26.832031 17.464844 26.429688 16.480469 25.953125 C 15.527344 25.480469 14.542969 25.113281 13.519531 24.859375 C 12.496094 24.566406 11.527344 24.492188 10.613281 24.640625 C 9.699219 24.75 8.96875 25.242188 8.417969 26.121094 C 8.234375 26.339844 8.070312 26.394531 7.925781 26.285156 C 7.78125 26.175781 7.78125 26.007812 7.925781 25.789062 C 8.621094 24.765625 9.460938 24.164062 10.449219 23.980469 C 11.433594 23.761719 12.476562 23.78125 13.574219 24.035156 C 14.667969 24.292969 15.75 24.695312 16.808594 25.242188 C 17.867188 25.753906 18.820312 26.210938 19.660156 26.613281 C 20.023438 26.285156 20.480469 25.9375 21.03125 25.570312 C 21.613281 25.167969 22.238281 24.804688 22.894531 24.472656 C 23.589844 24.109375 24.300781 23.816406 25.03125 23.597656 C 25.800781 23.339844 26.550781 23.195312 27.28125 23.160156 C 28.632812 23.121094 29.621094 23.414062 30.242188 24.035156 C 30.898438 24.65625 31.191406 25.371094 31.117188 26.175781 C 31.082031 26.941406 30.679688 27.671875 29.914062 28.367188 C 29.183594 29.027344 28.121094 29.390625 26.734375 29.464844 C 25.636719 29.5 24.574219 29.371094 23.550781 29.082031 C 22.527344 28.789062 21.558594 28.402344 20.644531 27.929688 C 19.109375 29.5 17.648438 31.347656 16.261719 33.464844 C 14.90625 35.550781 13.757812 37.6875 12.804688 39.882812 C 12.585938 40.355469 12.3125 40.996094 11.984375 41.800781 C 11.691406 42.605469 11.398438 43.484375 11.105469 44.433594 C 10.851562 45.347656 10.628906 46.296875 10.449219 47.285156 C 10.300781 48.269531 10.265625 49.183594 10.339844 50.027344 C 10.410156 50.828125 10.628906 51.523438 10.996094 52.109375 C 11.398438 52.695312 12.019531 53.042969 12.859375 53.152344 C 13.554688 53.261719 14.304688 53.1875 15.109375 52.929688 C 15.949219 52.640625 16.789062 52.238281 17.628906 51.726562 C 18.472656 51.175781 19.3125 50.554688 20.152344 49.859375 C 20.992188 49.167969 21.78125 48.472656 22.511719 47.777344 C 23.277344 47.046875 23.972656 46.351562 24.59375 45.695312 C 25.214844 45 25.726562 44.394531 26.128906 43.882812 C 26.3125 43.664062 26.476562 43.628906 26.621094 43.773438 C 26.804688 43.882812 26.804688 44.050781 26.621094 44.269531 C 25.855469 45.183594 24.941406 46.207031 23.882812 47.339844 C 22.820312 48.472656 21.6875 49.53125 20.480469 50.519531 C 19.277344 51.507812 18.015625 52.347656 16.699219 53.042969 C 15.417969 53.734375 14.140625 54.101562 12.859375 54.136719 C 11.617188 54.210938 10.667969 53.992188 10.007812 53.480469 C 9.386719 52.929688 8.96875 52.21875 8.746094 51.339844 C 8.527344 50.464844 8.457031 49.476562 8.527344 48.378906 C 8.636719 47.246094 8.820312 46.132812 9.078125 45.035156 C 9.371094 43.9375 9.679688 42.914062 10.007812 41.964844 C 10.375 40.980469 10.683594 40.175781 10.941406 39.554688 Z M 27.0625 24.144531 C 26.550781 24.144531 26 24.273438 25.417969 24.527344 C 24.867188 24.785156 24.320312 25.078125 23.773438 25.40625 C 23.261719 25.734375 22.765625 26.082031 22.292969 26.449219 C 21.851562 26.777344 21.503906 27.070312 21.25 27.324219 C 21.980469 27.691406 22.820312 28.019531 23.773438 28.3125 C 24.722656 28.570312 25.671875 28.660156 26.621094 28.585938 C 27.535156 28.476562 28.195312 28.183594 28.597656 27.710938 C 29.035156 27.199219 29.253906 26.6875 29.253906 26.175781 C 29.253906 25.625 29.054688 25.152344 28.652344 24.75 C 28.285156 24.347656 27.757812 24.144531 27.0625 24.144531 Z M 34.523438 48.214844 C 34.484375 48.179688 34.429688 48.089844 34.359375 47.941406 C 33.808594 48.308594 33.042969 48.601562 32.054688 48.820312 C 31.105469 49.039062 30.191406 49.09375 29.3125 48.984375 C 28.4375 48.875 27.722656 48.5625 27.175781 48.050781 C 26.664062 47.539062 26.589844 46.734375 26.957031 45.640625 C 27.101562 45.089844 27.359375 44.617188 27.722656 44.214844 C 28.089844 43.8125 28.492188 43.445312 28.929688 43.117188 C 29.40625 42.789062 29.878906 42.496094 30.355469 42.238281 C 30.867188 41.949219 31.359375 41.65625 31.835938 41.363281 C 31.652344 40.851562 31.46875 40.339844 31.289062 39.828125 C 31.105469 39.316406 31.085938 38.804688 31.230469 38.292969 C 31.414062 37.632812 31.816406 37.140625 32.4375 36.8125 C 33.058594 36.480469 33.679688 36.316406 34.304688 36.316406 C 34.960938 36.28125 35.492188 36.425781 35.894531 36.757812 C 36.332031 37.050781 36.460938 37.523438 36.277344 38.183594 C 36.09375 38.914062 35.710938 39.515625 35.125 39.992188 C 34.539062 40.429688 33.957031 40.832031 33.371094 41.199219 L 33.589844 41.855469 C 34.175781 41.746094 34.6875 41.800781 35.125 42.019531 C 35.601562 42.203125 35.929688 42.515625 36.113281 42.953125 C 36.367188 43.464844 36.40625 44.066406 36.222656 44.761719 C 36.074219 45.457031 35.800781 46.113281 35.398438 46.734375 L 35.949219 47.832031 C 36.242188 48.234375 36.640625 48.378906 37.152344 48.269531 C 37.703125 48.160156 38.03125 47.832031 38.140625 47.285156 C 38.214844 46.992188 38.34375 46.84375 38.523438 46.84375 C 38.746094 46.808594 38.816406 46.972656 38.746094 47.339844 C 38.632812 47.8125 38.398438 48.199219 38.03125 48.492188 C 37.664062 48.78125 37.265625 48.984375 36.824219 49.09375 C 36.386719 49.167969 35.949219 49.148438 35.507812 49.039062 C 35.070312 48.890625 34.742188 48.617188 34.523438 48.214844 Z M 34.082031 47.449219 C 33.792969 46.828125 33.5 46.132812 33.207031 45.363281 C 32.914062 44.5625 32.640625 43.773438 32.382812 43.007812 C 31.980469 43.300781 31.632812 43.664062 31.34375 44.105469 C 31.050781 44.507812 30.902344 44.90625 30.902344 45.308594 C 30.902344 45.492188 30.8125 45.621094 30.628906 45.695312 C 30.410156 45.765625 30.300781 45.710938 30.300781 45.53125 C 30.300781 44.980469 30.484375 44.433594 30.847656 43.882812 C 31.25 43.335938 31.707031 42.859375 32.21875 42.457031 C 32.183594 42.386719 32.128906 42.238281 32.054688 42.019531 C 31.324219 42.496094 30.59375 43.027344 29.863281 43.609375 C 29.167969 44.160156 28.691406 44.835938 28.4375 45.640625 C 28.179688 46.445312 28.253906 47.066406 28.65625 47.503906 C 29.09375 47.941406 29.640625 48.214844 30.300781 48.324219 C 30.996094 48.433594 31.707031 48.417969 32.4375 48.269531 C 33.167969 48.089844 33.71875 47.8125 34.082031 47.449219 Z M 33.808594 42.402344 C 33.992188 43.027344 34.191406 43.664062 34.414062 44.324219 C 34.667969 44.945312 34.925781 45.546875 35.179688 46.132812 C 35.4375 45.65625 35.601562 45.164062 35.671875 44.652344 C 35.746094 44.140625 35.691406 43.683594 35.507812 43.28125 C 35.21875 42.625 34.648438 42.332031 33.808594 42.402344 Z M 33.097656 40.648438 C 33.644531 40.355469 34.082031 40.007812 34.414062 39.609375 C 34.777344 39.167969 35.015625 38.75 35.125 38.347656 C 35.273438 37.796875 35.234375 37.414062 35.015625 37.195312 C 34.796875 36.976562 34.523438 36.882812 34.191406 36.921875 C 33.902344 36.921875 33.589844 37.066406 33.261719 37.359375 C 32.96875 37.617188 32.785156 37.980469 32.710938 38.457031 C 32.675781 38.640625 32.675781 38.875 32.710938 39.167969 C 32.785156 39.460938 32.914062 39.953125 33.097656 40.648438 Z M 71.847656 23.488281 C 71.773438 23.78125 71.628906 24.21875 71.410156 24.804688 C 71.226562 25.351562 70.988281 26.027344 70.695312 26.832031 C 70.183594 28.367188 69.5625 30.214844 68.832031 32.371094 C 68.101562 34.527344 67.425781 36.792969 66.804688 39.167969 C 67.386719 39.207031 67.917969 39.152344 68.394531 39.003906 C 68.867188 38.820312 69.253906 38.472656 69.546875 37.960938 C 69.617188 37.78125 69.746094 37.707031 69.929688 37.742188 C 70.113281 37.78125 70.128906 37.945312 69.984375 38.238281 C 69.65625 38.859375 69.144531 39.316406 68.449219 39.609375 C 67.789062 39.898438 67.167969 40.007812 66.585938 39.9375 C 66.183594 41.691406 65.835938 43.425781 65.542969 45.144531 C 65.285156 46.828125 65.195312 48.417969 65.269531 49.914062 C 65.304688 51.011719 65.433594 52.035156 65.652344 52.988281 C 65.90625 53.902344 66.273438 54.6875 66.75 55.34375 C 67.261719 56.039062 67.898438 56.570312 68.667969 56.933594 C 69.472656 57.300781 70.441406 57.464844 71.574219 57.429688 C 71.792969 57.429688 71.9375 57.554688 72.011719 57.8125 C 72.011719 58.066406 71.867188 58.195312 71.574219 58.195312 C 68.648438 58.269531 66.585938 57.59375 65.378906 56.167969 C 64.171875 54.777344 63.53125 52.65625 63.457031 49.804688 C 63.421875 48.269531 63.53125 46.644531 63.789062 44.925781 C 64.042969 43.171875 64.390625 41.417969 64.828125 39.664062 C 64.28125 39.480469 63.734375 39.316406 63.183594 39.167969 C 62.671875 39.023438 62.160156 38.894531 61.648438 38.785156 C 60.441406 40.796875 59.253906 42.734375 58.085938 44.597656 C 56.953125 46.460938 55.910156 48.089844 54.960938 49.476562 C 54.007812 50.757812 52.820312 51.871094 51.394531 52.820312 C 50.007812 53.734375 48.527344 54.15625 46.953125 54.082031 C 45.894531 54.046875 44.960938 53.808594 44.160156 53.371094 C 43.355469 52.929688 42.679688 52.382812 42.128906 51.726562 C 41.582031 51.066406 41.179688 50.316406 40.921875 49.476562 C 40.667969 48.601562 40.539062 47.722656 40.539062 46.84375 C 40.574219 45.238281 40.996094 43.828125 41.800781 42.625 C 42.640625 41.417969 43.664062 40.523438 44.871094 39.9375 C 46.078125 39.316406 47.394531 39.058594 48.820312 39.167969 C 50.246094 39.277344 51.578125 39.84375 52.820312 40.867188 C 53.042969 41.050781 53.097656 41.214844 52.984375 41.363281 C 52.875 41.507812 52.730469 41.488281 52.546875 41.308594 C 51.488281 40.429688 50.371094 39.972656 49.203125 39.9375 C 48.070312 39.898438 47.007812 40.175781 46.023438 40.757812 C 45.070312 41.308594 44.269531 42.128906 43.609375 43.226562 C 42.953125 44.285156 42.605469 45.476562 42.570312 46.789062 C 42.53125 47.59375 42.605469 48.378906 42.789062 49.148438 C 42.96875 49.914062 43.246094 50.609375 43.609375 51.230469 C 44.011719 51.816406 44.488281 52.292969 45.035156 52.65625 C 45.621094 53.023438 46.277344 53.222656 47.007812 53.261719 C 48.070312 53.332031 49.148438 52.929688 50.246094 52.054688 C 51.339844 51.175781 52.308594 50.152344 53.152344 48.984375 C 54.101562 47.632812 55.144531 46.042969 56.277344 44.214844 C 57.445312 42.347656 58.632812 40.410156 59.839844 38.402344 C 59.035156 38.328125 58.25 38.347656 57.480469 38.457031 C 56.75 38.53125 56.128906 38.894531 55.617188 39.554688 C 55.433594 39.734375 55.269531 39.773438 55.125 39.664062 C 54.976562 39.554688 54.996094 39.40625 55.179688 39.222656 C 55.765625 38.457031 56.511719 37.960938 57.425781 37.742188 C 58.339844 37.523438 59.292969 37.507812 60.277344 37.6875 C 61.082031 36.335938 61.886719 34.984375 62.691406 33.632812 C 63.53125 32.277344 64.335938 31.015625 65.105469 29.847656 C 65.871094 28.640625 66.585938 27.546875 67.242188 26.558594 C 67.9375 25.570312 68.539062 24.765625 69.050781 24.144531 C 68.578125 24.292969 67.9375 24.492188 67.132812 24.75 C 66.328125 25.003906 65.46875 25.316406 64.554688 25.679688 C 63.679688 26.046875 62.820312 26.464844 61.976562 26.941406 C 61.175781 27.417969 60.496094 27.945312 59.949219 28.53125 C 59.4375 29.117188 59.128906 29.757812 59.019531 30.449219 C 58.945312 31.109375 59.21875 31.804688 59.839844 32.535156 C 60.023438 32.71875 60.039062 32.882812 59.894531 33.027344 C 59.785156 33.136719 59.640625 33.121094 59.457031 32.972656 C 58.394531 31.984375 57.882812 31.074219 57.921875 30.230469 C 57.992188 29.390625 58.394531 28.625 59.128906 27.929688 C 59.859375 27.199219 60.808594 26.558594 61.976562 26.007812 C 63.183594 25.460938 64.390625 24.984375 65.597656 24.585938 C 66.839844 24.144531 67.992188 23.796875 69.050781 23.542969 C 70.113281 23.285156 70.878906 23.105469 71.355469 22.992188 C 71.5 22.957031 71.628906 22.992188 71.738281 23.105469 C 71.847656 23.175781 71.882812 23.304688 71.847656 23.488281 Z M 64.996094 38.839844 C 65.25 37.816406 65.578125 36.71875 65.980469 35.550781 C 66.382812 34.34375 66.785156 33.15625 67.1875 31.984375 C 67.589844 30.78125 67.972656 29.664062 68.339844 28.640625 C 68.742188 27.582031 69.070312 26.6875 69.324219 25.953125 C 68.886719 26.648438 68.355469 27.488281 67.734375 28.476562 C 67.152344 29.464844 66.53125 30.523438 65.871094 31.65625 C 65.214844 32.753906 64.554688 33.867188 63.898438 35.003906 C 63.238281 36.136719 62.636719 37.160156 62.089844 38.074219 C 62.601562 38.21875 63.09375 38.363281 63.570312 38.511719 C 64.042969 38.65625 64.519531 38.765625 64.996094 38.839844 Z M 64.996094 38.839844 "/>
</g>
</svg>
