<?xml version="1.0" encoding="UTF-8"?>
<svg xmlns="http://www.w3.org/2000/svg" xmlns:xlink="http://www.w3.org/1999/xlink" width="px" height="px" viewBox="0 0 163 162" version="1.1">
<g id="surface1">
<path style="fill:none;stroke-width:1;stroke-linecap:butt;stroke-linejoin:miter;stroke:rgb(7.45098%,7.45098%,7.45098%);stroke-opacity:1;stroke-miterlimit:4;" d="M 324.501534 162.5 C 324.501534 251.970607 251.966905 324.498457 162.5 324.498457 C 73.033095 324.498457 0.498466 251.970607 0.498466 162.5 C 0.498466 73.029393 73.033095 0.501543 162.5 0.501543 C 251.966905 0.501543 324.501534 73.029393 324.501534 162.5 Z M 324.501534 162.5 " transform="matrix(0.501538,0,0,0.498462,0,0)"/>
<path style=" stroke:none;fill-rule:nonzero;fill:rgb(7.45098%,7.45098%,7.45098%);fill-opacity:1;" d="M 22.015625 79.105469 C 23.929688 74.5 26.285156 70.039062 29.078125 65.726562 C 31.949219 61.339844 35 57.539062 38.238281 54.324219 C 36.839844 53.664062 35.148438 52.859375 33.160156 51.910156 C 31.261719 50.964844 29.265625 50.230469 27.203125 49.714844 C 25.144531 49.132812 23.195312 48.984375 21.355469 49.277344 C 19.515625 49.496094 18.046875 50.484375 16.941406 52.238281 C 16.574219 52.675781 16.242188 52.785156 15.949219 52.566406 C 15.65625 52.347656 15.65625 52.019531 15.949219 51.582031 C 17.347656 49.535156 19.039062 48.328125 21.023438 47.960938 C 23.011719 47.523438 25.105469 47.558594 27.3125 48.070312 C 29.519531 48.582031 31.691406 49.386719 33.824219 50.484375 C 35.734375 51.402344 37.648438 52.316406 39.5625 53.226562 C 40.296875 52.566406 41.214844 51.875 42.320312 51.140625 C 43.519531 50.324219 44.769531 49.59375 46.070312 48.949219 C 47.445312 48.226562 48.886719 47.640625 50.375 47.195312 C 51.917969 46.683594 53.425781 46.390625 54.898438 46.316406 C 57.621094 46.242188 59.605469 46.828125 60.855469 48.070312 C 62.179688 49.3125 62.769531 50.738281 62.621094 52.347656 C 62.546875 53.882812 61.738281 55.34375 60.195312 56.734375 C 58.722656 58.050781 56.589844 58.78125 53.796875 58.929688 C 51.589844 59 49.457031 58.746094 47.394531 58.160156 C 45.371094 57.589844 43.414062 56.820312 41.546875 55.859375 C 38.457031 59 35.515625 62.691406 32.71875 66.933594 C 30 71.101562 27.679688 75.378906 25.769531 79.765625 C 25.328125 80.714844 24.777344 81.992188 24.113281 83.601562 C 23.480469 85.339844 22.894531 87.097656 22.347656 88.867188 C 21.820312 90.746094 21.378906 92.648438 21.023438 94.566406 C 20.730469 96.542969 20.65625 98.371094 20.804688 100.050781 C 20.949219 101.660156 21.390625 103.046875 22.128906 104.21875 C 22.9375 105.386719 24.1875 106.082031 25.878906 106.300781 C 27.277344 106.519531 28.785156 106.375 30.402344 105.863281 C 32.09375 105.277344 33.789062 104.472656 35.480469 103.449219 C 37.171875 102.355469 38.863281 101.113281 40.554688 99.722656 C 42.183594 98.386719 43.765625 97 45.300781 95.554688 C 46.84375 94.09375 48.242188 92.703125 49.492188 91.386719 C 50.742188 90 51.773438 88.792969 52.582031 87.769531 C 52.949219 87.332031 53.28125 87.257812 53.574219 87.550781 C 53.941406 87.769531 53.941406 88.097656 53.574219 88.535156 C 52.03125 90.363281 50.191406 92.410156 48.058594 94.679688 C 45.921875 96.945312 43.636719 99.070312 41.214844 101.039062 C 38.789062 103.011719 36.25 104.695312 33.601562 106.082031 C 31.027344 107.472656 28.453125 108.203125 25.878906 108.277344 C 23.378906 108.421875 21.464844 107.984375 20.140625 106.960938 C 18.890625 105.863281 18.046875 104.4375 17.605469 102.683594 C 17.164062 100.929688 17.015625 98.953125 17.164062 96.761719 C 17.382812 94.496094 17.75 92.265625 18.265625 90.070312 C 18.855469 87.878906 19.480469 85.832031 20.140625 83.929688 C 20.878906 81.957031 21.503906 80.347656 22.015625 79.105469 Z M 54.457031 48.289062 C 53.425781 48.289062 52.324219 48.546875 51.148438 49.058594 C 50.015625 49.585938 48.910156 50.171875 47.835938 50.8125 C 46.816406 51.464844 45.820312 52.160156 44.859375 52.898438 C 43.976562 53.554688 43.277344 54.140625 42.761719 54.652344 C 44.230469 55.382812 45.925781 56.039062 47.835938 56.625 C 49.75 57.136719 51.660156 57.320312 53.574219 57.171875 C 55.414062 56.953125 56.738281 56.371094 57.546875 55.417969 C 58.429688 54.394531 58.871094 53.371094 58.871094 52.347656 C 58.871094 51.25 58.464844 50.300781 57.65625 49.496094 C 56.921875 48.691406 55.855469 48.289062 54.457031 48.289062 Z M 69.46875 96.433594 C 69.398438 96.359375 69.285156 96.175781 69.140625 95.882812 C 68.035156 96.617188 66.492188 97.199219 64.503906 97.636719 C 62.59375 98.078125 60.753906 98.1875 58.988281 97.96875 C 57.222656 97.75 55.789062 97.125 54.683594 96.101562 C 53.65625 95.078125 53.507812 93.472656 54.242188 91.277344 C 54.539062 90.183594 55.054688 89.230469 55.789062 88.425781 C 56.527344 87.621094 57.339844 86.886719 58.214844 86.234375 C 59.140625 85.597656 60.097656 85.011719 61.085938 84.480469 C 62.085938 83.910156 63.082031 83.324219 64.0625 82.726562 L 62.960938 79.652344 C 62.59375 78.628906 62.554688 77.605469 62.851562 76.582031 C 63.21875 75.269531 64.027344 74.28125 65.277344 73.621094 C 66.527344 72.964844 67.777344 72.636719 69.027344 72.636719 C 70.351562 72.5625 71.421875 72.855469 72.230469 73.511719 C 73.113281 74.097656 73.371094 75.046875 73 76.363281 C 72.632812 77.828125 71.863281 79.03125 70.683594 79.984375 C 69.542969 80.835938 68.363281 81.640625 67.152344 82.394531 L 67.59375 83.710938 C 68.773438 83.492188 69.800781 83.601562 70.683594 84.039062 C 71.640625 84.40625 72.304688 85.027344 72.671875 85.90625 C 73.183594 86.929688 73.257812 88.132812 72.890625 89.523438 C 72.597656 90.914062 72.046875 92.230469 71.234375 93.472656 L 72.339844 95.664062 C 72.929688 96.46875 73.738281 96.761719 74.765625 96.542969 C 75.871094 96.324219 76.53125 95.664062 76.753906 94.566406 C 76.902344 93.984375 77.15625 93.691406 77.523438 93.691406 C 77.964844 93.617188 78.113281 93.945312 77.964844 94.679688 C 77.746094 95.628906 77.269531 96.394531 76.53125 96.980469 C 75.796875 97.566406 74.988281 97.96875 74.105469 98.1875 C 73.222656 98.332031 72.339844 98.296875 71.457031 98.078125 C 70.574219 97.785156 69.910156 97.238281 69.46875 96.433594 Z M 68.589844 94.898438 C 68 93.65625 67.410156 92.265625 66.824219 90.730469 C 66.25 89.164062 65.699219 87.59375 65.167969 86.015625 C 64.359375 86.597656 63.660156 87.332031 63.070312 88.207031 C 62.484375 89.011719 62.1875 89.816406 62.1875 90.621094 C 62.1875 90.984375 62.003906 91.242188 61.636719 91.386719 C 61.195312 91.535156 60.972656 91.425781 60.972656 91.058594 C 60.972656 89.960938 61.34375 88.867188 62.078125 87.769531 C 62.886719 86.671875 63.808594 85.722656 64.835938 84.917969 C 64.761719 84.773438 64.652344 84.480469 64.503906 84.039062 C 62.984375 85.027344 61.507812 86.089844 60.09375 87.222656 C 58.695312 88.316406 57.738281 89.667969 57.222656 91.277344 C 56.707031 92.886719 56.855469 94.128906 57.664062 95.007812 C 58.546875 95.882812 59.652344 96.433594 60.972656 96.652344 C 62.371094 96.871094 63.808594 96.835938 65.277344 96.542969 C 66.75 96.175781 67.851562 95.628906 68.589844 94.898438 Z M 68.035156 84.808594 C 68.40625 86.050781 68.808594 87.332031 69.25 88.644531 C 69.75 89.859375 70.265625 91.0625 70.792969 92.265625 C 71.308594 91.316406 71.640625 90.328125 71.789062 89.304688 C 71.933594 88.28125 71.824219 87.367188 71.457031 86.5625 C 70.867188 85.246094 69.726562 84.664062 68.035156 84.808594 Z M 66.601562 81.300781 C 67.707031 80.714844 68.589844 80.019531 69.25 79.214844 C 69.984375 78.339844 70.464844 77.496094 70.683594 76.691406 C 70.980469 75.597656 70.90625 74.828125 70.464844 74.390625 C 70.023438 73.953125 69.46875 73.769531 68.808594 73.84375 C 68.21875 73.84375 67.59375 74.132812 66.933594 74.71875 C 66.34375 75.230469 65.976562 75.960938 65.828125 76.914062 C 65.757812 77.277344 65.757812 77.753906 65.828125 78.339844 C 65.976562 78.921875 66.234375 79.910156 66.601562 81.300781 Z M 144.582031 46.976562 C 144.4375 47.558594 144.140625 48.4375 143.699219 49.605469 C 143.332031 50.703125 142.855469 52.054688 142.265625 53.664062 C 141.023438 57.359375 139.773438 61.050781 138.515625 64.738281 C 137.042969 69.054688 135.683594 73.585938 134.433594 78.339844 C 135.609375 78.410156 136.675781 78.300781 137.632812 78.007812 C 138.585938 77.644531 139.359375 76.949219 139.949219 75.925781 C 140.097656 75.558594 140.351562 75.414062 140.722656 75.488281 C 141.089844 75.558594 141.125 75.890625 140.832031 76.472656 C 140.167969 77.714844 139.140625 78.628906 137.742188 79.214844 C 136.417969 79.800781 135.167969 80.019531 133.992188 79.875 C 133.191406 83.324219 132.492188 86.800781 131.894531 90.292969 C 131.378906 93.65625 131.195312 96.835938 131.34375 99.832031 C 131.414062 102.023438 131.671875 104.074219 132.113281 105.972656 C 132.628906 107.800781 133.363281 109.371094 134.320312 110.6875 C 135.351562 112.078125 136.636719 113.136719 138.183594 113.867188 C 139.800781 114.601562 141.75 114.929688 144.03125 114.855469 C 144.472656 114.855469 144.765625 115.109375 144.914062 115.625 C 144.914062 116.136719 144.621094 116.390625 144.03125 116.390625 C 138.144531 116.535156 133.992188 115.183594 131.5625 112.332031 C 129.136719 109.554688 127.847656 105.316406 127.703125 99.613281 C 127.628906 96.542969 127.847656 93.289062 128.363281 89.851562 C 128.878906 86.34375 129.578125 82.835938 130.460938 79.324219 C 129.367188 78.960938 128.261719 78.632812 127.148438 78.339844 C 126.128906 78.046875 125.097656 77.792969 124.058594 77.570312 C 121.632812 81.589844 119.242188 85.464844 116.886719 89.195312 C 114.609375 92.921875 112.511719 96.175781 110.597656 98.953125 C 108.6875 101.511719 106.296875 103.742188 103.425781 105.644531 C 100.632812 107.472656 97.652344 108.3125 94.488281 108.167969 C 92.355469 108.09375 90.480469 107.617188 88.863281 106.742188 C 87.242188 105.863281 85.882812 104.765625 84.78125 103.449219 C 83.675781 102.136719 82.867188 100.636719 82.351562 98.953125 C 81.835938 97.199219 81.578125 95.445312 81.578125 93.691406 C 81.652344 90.472656 82.5 87.660156 84.117188 85.246094 C 85.808594 82.835938 87.867188 81.042969 90.296875 79.875 C 92.722656 78.628906 95.371094 78.117188 98.242188 78.339844 C 101.109375 78.558594 103.792969 79.691406 106.296875 81.738281 C 106.738281 82.101562 106.847656 82.433594 106.625 82.726562 C 106.40625 83.015625 106.113281 82.980469 105.742188 82.613281 C 103.609375 80.859375 101.367188 79.945312 99.011719 79.875 C 96.734375 79.800781 94.601562 80.347656 92.613281 81.519531 C 90.699219 82.613281 89.082031 84.261719 87.757812 86.453125 C 86.433594 88.574219 85.734375 90.949219 85.664062 93.582031 C 85.589844 95.191406 85.734375 96.761719 86.105469 98.296875 C 86.472656 99.832031 87.023438 101.222656 87.757812 102.464844 C 88.566406 103.632812 89.523438 104.582031 90.628906 105.316406 C 91.804688 106.046875 93.128906 106.449219 94.601562 106.519531 C 96.734375 106.667969 98.902344 105.863281 101.109375 104.109375 C 103.316406 102.355469 105.265625 100.308594 106.957031 97.96875 C 108.871094 95.261719 110.964844 92.082031 113.246094 88.425781 C 115.601562 84.699219 117.992188 80.824219 120.417969 76.804688 C 118.839844 76.65625 117.246094 76.691406 115.675781 76.914062 C 114.203125 77.058594 112.953125 77.789062 111.921875 79.105469 C 111.554688 79.472656 111.222656 79.542969 110.929688 79.324219 C 110.636719 79.105469 110.671875 78.8125 111.039062 78.449219 C 112.214844 76.914062 113.726562 75.925781 115.5625 75.488281 C 117.402344 75.046875 119.316406 75.011719 121.300781 75.378906 L 126.15625 67.261719 C 127.742188 64.71875 129.363281 62.199219 131.011719 59.695312 C 132.554688 57.28125 133.992188 55.089844 135.316406 53.117188 C 136.710938 51.140625 137.925781 49.535156 138.957031 48.289062 C 137.667969 48.6875 136.378906 49.089844 135.09375 49.496094 C 133.476562 50.007812 131.746094 50.628906 129.90625 51.363281 C 128.128906 52.097656 126.398438 52.941406 124.722656 53.882812 C 123.105469 54.835938 121.742188 55.894531 120.640625 57.0625 C 119.609375 58.234375 118.984375 59.511719 118.765625 60.902344 C 118.617188 62.21875 119.167969 63.605469 120.417969 65.070312 C 120.785156 65.433594 120.824219 65.761719 120.527344 66.054688 C 120.308594 66.277344 120.015625 66.238281 119.648438 65.945312 C 117.511719 63.972656 116.484375 62.144531 116.558594 60.464844 C 116.703125 58.78125 117.511719 57.246094 118.984375 55.859375 C 120.457031 54.394531 122.367188 53.117188 124.722656 52.019531 C 127.148438 50.921875 129.578125 49.972656 132.003906 49.167969 C 134.503906 48.289062 136.820312 47.597656 138.957031 47.085938 C 141.089844 46.574219 142.632812 46.207031 143.589844 45.988281 C 143.882812 45.914062 144.140625 45.988281 144.363281 46.207031 C 144.582031 46.351562 144.65625 46.609375 144.582031 46.976562 Z M 130.789062 77.679688 C 131.304688 75.632812 131.96875 73.441406 132.777344 71.101562 C 133.585938 68.6875 134.394531 66.3125 135.203125 63.972656 C 135.953125 61.734375 136.726562 59.503906 137.519531 57.28125 C 138.332031 55.164062 138.992188 53.371094 139.507812 51.910156 C 138.625 53.300781 137.558594 54.980469 136.308594 56.953125 C 135.128906 58.929688 133.878906 61.046875 132.554688 63.316406 C 131.230469 65.507812 129.90625 67.738281 128.582031 70.003906 C 127.261719 72.269531 126.046875 74.316406 124.941406 76.144531 C 125.972656 76.4375 126.964844 76.730469 127.921875 77.023438 C 128.859375 77.3125 129.820312 77.53125 130.789062 77.679688 Z M 130.789062 77.679688 "/>
</g>
</svg>
