<svg width="325" height="325" viewBox="0 0 325 325" fill="none" xmlns="http://www.w3.org/2000/svg">
<circle cx="162.5" cy="162.5" r="162" stroke="#131313"/>
<path d="M44 132.74C40.6267 130.833 38.06 128.487 36.3 125.7C34.54 122.767 33.5133 119.76 33.22 116.68C32.9267 113.453 33.2933 110.3 34.32 107.22C35.4933 104.14 37.18 101.427 39.38 99.08C41.7267 96.7333 44.5867 94.9733 47.96 93.8C51.3333 92.48 55.1467 92.04 59.4 92.48C66 93.2133 70.9867 95.78 74.36 100.18C77.7333 104.433 79.42 109.86 79.42 116.46C79.2733 121.74 78.1733 127.02 76.12 132.3C74.2133 137.433 72.3067 142.493 70.4 147.48C68.4933 152.32 66.3667 157.6 64.02 163.32C61.82 168.893 59.6933 174.467 57.64 180.04C55.7333 185.467 54.0467 190.6 52.58 195.44C51.26 200.133 50.4533 203.947 50.16 206.88C51.48 205.267 53.02 203.287 54.78 200.94C56.54 198.593 58.52 195.953 60.72 193.02C63.0667 189.793 66.0733 185.687 69.74 180.7C73.5533 175.567 77.8067 169.993 82.5 163.98C87.1933 157.967 92.2533 151.733 97.68 145.28C103.253 138.827 108.973 132.593 114.84 126.58C120.853 120.567 126.867 115.067 132.88 110.08C139.04 105.093 145.053 101.133 150.92 98.2C156.933 95.12 162.727 93.2867 168.3 92.7C173.873 92.1133 179.007 93.2133 183.7 96C184.58 96.5867 184.727 97.32 184.14 98.2C183.7 99.08 183.04 99.2267 182.16 98.64C177.76 96 172.92 95.0467 167.64 95.78C162.507 96.5133 157.153 98.42 151.58 101.5C146.007 104.58 140.36 108.613 134.64 113.6C128.92 118.587 123.273 124.087 117.7 130.1C112.127 135.967 106.773 142.053 101.64 148.36C96.5067 154.667 91.74 160.753 87.34 166.62C82.94 172.487 78.98 177.913 75.46 182.9C72.0867 187.74 69.3733 191.627 67.32 194.56C67.32 194.56 66.7333 195.44 65.56 197.2C64.3867 198.813 62.8467 200.72 60.94 202.92C59.18 205.12 57.2 207.32 55 209.52C52.9467 211.72 50.9667 213.407 49.06 214.58C47.3 215.607 45.76 215.827 44.44 215.24C43.12 214.653 42.3867 212.747 42.24 209.52C42.0933 206.733 42.68 202.847 44 197.86C45.32 192.873 47.0067 187.447 49.06 181.58C51.26 175.567 53.5333 169.48 55.88 163.32C58.3733 157.16 60.6467 151.44 62.7 146.16C64.6067 141.467 66.5133 136.627 68.42 131.64C70.4733 126.507 71.5 121.447 71.5 116.46C71.5 112.207 70.4733 108.027 68.42 103.92C66.5133 99.8133 63.2867 97.2467 58.74 96.22C54.9267 95.34 51.26 96.0733 47.74 98.42C44.22 100.767 41.5067 103.847 39.6 107.66C37.6933 111.327 37.0333 115.36 37.62 119.76C38.2067 124.013 40.7733 127.68 45.32 130.76C46.2 131.493 46.42 132.153 45.98 132.74C45.54 133.327 44.88 133.327 44 132.74ZM136.269 193.46C136.123 193.313 135.903 192.947 135.609 192.36C133.409 193.827 130.329 195 126.369 195.88C122.556 196.76 118.889 196.98 115.369 196.54C111.849 196.1 108.989 194.853 106.789 192.8C104.736 190.747 104.443 187.52 105.909 183.12C106.496 180.92 107.523 179.013 108.989 177.4C110.456 175.787 112.069 174.32 113.829 173C115.736 171.68 117.643 170.507 119.549 169.48C121.603 168.307 123.583 167.133 125.489 165.96C124.756 163.907 124.023 161.853 123.289 159.8C122.556 157.747 122.483 155.693 123.069 153.64C123.803 151 125.416 149.02 127.909 147.7C130.403 146.38 132.896 145.72 135.389 145.72C138.029 145.573 140.156 146.16 141.769 147.48C143.529 148.653 144.043 150.56 143.309 153.2C142.576 156.133 141.036 158.553 138.689 160.46C136.343 162.22 133.996 163.833 131.649 165.3L132.529 167.94C134.876 167.5 136.929 167.72 138.689 168.6C140.596 169.333 141.916 170.58 142.649 172.34C143.676 174.393 143.823 176.813 143.089 179.6C142.503 182.387 141.403 185.027 139.789 187.52L141.989 191.92C143.163 193.533 144.776 194.12 146.829 193.68C149.029 193.24 150.349 191.92 150.789 189.72C151.083 188.547 151.596 187.96 152.329 187.96C153.209 187.813 153.503 188.473 153.209 189.94C152.769 191.847 151.816 193.387 150.349 194.56C148.883 195.733 147.269 196.54 145.509 196.98C143.749 197.273 141.989 197.2 140.229 196.76C138.469 196.173 137.149 195.073 136.269 193.46ZM134.509 190.38C133.336 187.887 132.163 185.1 130.989 182.02C129.816 178.793 128.716 175.64 127.689 172.56C126.076 173.733 124.683 175.2 123.509 176.96C122.336 178.573 121.749 180.187 121.749 181.8C121.749 182.533 121.383 183.047 120.649 183.34C119.769 183.633 119.329 183.413 119.329 182.68C119.329 180.48 120.063 178.28 121.529 176.08C123.143 173.88 124.976 171.973 127.029 170.36C126.883 170.067 126.663 169.48 126.369 168.6C123.436 170.507 120.503 172.633 117.569 174.98C114.783 177.18 112.876 179.893 111.849 183.12C110.823 186.347 111.116 188.84 112.729 190.6C114.489 192.36 116.689 193.46 119.329 193.9C122.116 194.34 124.976 194.267 127.909 193.68C130.843 192.947 133.043 191.847 134.509 190.38ZM133.409 170.14C134.143 172.633 134.949 175.2 135.829 177.84C136.856 180.333 137.883 182.753 138.909 185.1C139.936 183.193 140.596 181.213 140.889 179.16C141.183 177.107 140.963 175.273 140.229 173.66C139.056 171.02 136.783 169.847 133.409 170.14ZM130.549 163.1C132.749 161.927 134.509 160.533 135.829 158.92C137.296 157.16 138.249 155.473 138.689 153.86C139.276 151.66 139.129 150.12 138.249 149.24C137.369 148.36 136.269 147.993 134.949 148.14C133.776 148.14 132.529 148.727 131.209 149.9C130.036 150.927 129.303 152.393 129.009 154.3C128.863 155.033 128.863 155.987 129.009 157.16C129.303 158.333 129.816 160.313 130.549 163.1ZM286.033 94.24C285.739 95.4133 285.153 97.1733 284.273 99.52C283.539 101.72 282.586 104.433 281.413 107.66C279.359 113.82 276.866 121.227 273.933 129.88C270.999 138.533 268.286 147.627 265.793 157.16C268.139 157.307 270.266 157.087 272.173 156.5C274.079 155.767 275.619 154.373 276.793 152.32C277.086 151.587 277.599 151.293 278.333 151.44C279.066 151.587 279.139 152.247 278.553 153.42C277.233 155.913 275.179 157.747 272.393 158.92C269.753 160.093 267.259 160.533 264.913 160.24C263.299 167.28 261.906 174.247 260.733 181.14C259.706 187.887 259.339 194.267 259.633 200.28C259.779 204.68 260.293 208.787 261.173 212.6C262.199 216.267 263.666 219.42 265.573 222.06C267.626 224.847 270.193 226.973 273.273 228.44C276.499 229.907 280.386 230.567 284.933 230.42C285.813 230.42 286.399 230.933 286.693 231.96C286.693 232.987 286.106 233.5 284.933 233.5C273.199 233.793 264.913 231.08 260.073 225.36C255.233 219.787 252.666 211.28 252.373 199.84C252.226 193.68 252.666 187.153 253.693 180.26C254.719 173.22 256.113 166.18 257.873 159.14C255.673 158.407 253.473 157.747 251.273 157.16C249.219 156.573 247.166 156.06 245.113 155.62C240.273 163.687 235.506 171.46 230.813 178.94C226.266 186.42 222.086 192.947 218.273 198.52C214.459 203.653 209.693 208.127 203.973 211.94C198.399 215.607 192.459 217.293 186.153 217C181.899 216.853 178.159 215.9 174.933 214.14C171.706 212.38 168.993 210.18 166.793 207.54C164.593 204.9 162.979 201.893 161.953 198.52C160.926 195 160.413 191.48 160.413 187.96C160.559 181.507 162.246 175.86 165.473 171.02C168.846 166.18 172.953 162.587 177.793 160.24C182.633 157.747 187.913 156.72 193.633 157.16C199.353 157.6 204.706 159.873 209.693 163.98C210.573 164.713 210.793 165.373 210.353 165.96C209.913 166.547 209.326 166.473 208.593 165.74C204.339 162.22 199.866 160.387 195.173 160.24C190.626 160.093 186.373 161.193 182.413 163.54C178.599 165.74 175.373 169.04 172.733 173.44C170.093 177.693 168.699 182.46 168.553 187.74C168.406 190.967 168.699 194.12 169.433 197.2C170.166 200.28 171.266 203.067 172.733 205.56C174.346 207.907 176.253 209.813 178.453 211.28C180.799 212.747 183.439 213.553 186.373 213.7C190.626 213.993 194.953 212.38 199.353 208.86C203.753 205.34 207.639 201.233 211.013 196.54C214.826 191.113 219.006 184.733 223.553 177.4C228.246 169.92 233.013 162.147 237.853 154.08C234.626 153.787 231.473 153.86 228.393 154.3C225.459 154.593 222.966 156.06 220.913 158.7C220.179 159.433 219.519 159.58 218.933 159.14C218.346 158.7 218.419 158.113 219.153 157.38C221.499 154.3 224.506 152.32 228.173 151.44C231.839 150.56 235.653 150.487 239.613 151.22C242.839 145.793 246.066 140.367 249.293 134.94C252.666 129.513 255.893 124.453 258.973 119.76C262.053 114.92 264.913 110.52 267.553 106.56C270.339 102.6 272.759 99.3733 274.813 96.88C272.906 97.4667 270.339 98.2733 267.113 99.3C263.886 100.327 260.439 101.573 256.773 103.04C253.253 104.507 249.806 106.193 246.433 108.1C243.206 110.007 240.493 112.133 238.293 114.48C236.239 116.827 234.993 119.393 234.553 122.18C234.259 124.82 235.359 127.607 237.853 130.54C238.586 131.273 238.659 131.933 238.073 132.52C237.633 132.96 237.046 132.887 236.313 132.3C232.059 128.34 230.006 124.673 230.153 121.3C230.446 117.927 232.059 114.847 234.993 112.06C237.926 109.127 241.739 106.56 246.433 104.36C251.273 102.16 256.113 100.253 260.953 98.64C265.939 96.88 270.559 95.4867 274.813 94.46C279.066 93.4333 282.146 92.7 284.053 92.26C284.639 92.1133 285.153 92.26 285.593 92.7C286.033 92.9933 286.179 93.5067 286.033 94.24ZM258.533 155.84C259.559 151.733 260.879 147.333 262.493 142.64C264.106 137.8 265.719 133.033 267.333 128.34C268.946 123.5 270.486 119.027 271.953 114.92C273.566 110.667 274.886 107.073 275.913 104.14C274.153 106.927 272.026 110.3 269.533 114.26C267.186 118.22 264.693 122.473 262.053 127.02C259.413 131.42 256.773 135.893 254.133 140.44C251.493 144.987 249.073 149.093 246.873 152.76C248.926 153.347 250.906 153.933 252.813 154.52C254.719 155.107 256.626 155.547 258.533 155.84Z" fill="#131313"/>
</svg>
